<svg width="41" height="49" viewBox="0 0 41 49" fill="none" xmlns="http://www.w3.org/2000/svg">
<path d="M36.48 3.79932H39.36V47.9277H36.48V3.79932Z" fill="#FFC67B"/>
<path d="M0.959961 12.4331V47.9277H36.48V3.79932H24.96V5.71786H12.48V3.79932H0.959961V8.59584" fill="#FFDA88"/>
<path d="M0.959961 3.79932H4.79997V47.9277H0.959961V3.79932Z" fill="#FFE2A9"/>
<path d="M33.6 45.0497H3.84003V3.79932H12.48V5.71786H24.96L24.9595 3.79932H33.6V45.0497Z" fill="#E5E5E4"/>
<path d="M12.48 1.88062H24.96V5.71787H12.48V1.88062Z" fill="#FFDA88"/>
<path d="M23.04 20.1074C22.673 17.823 21.1098 16.2701 18.7201 16.2701C16.3303 16.2701 14.7671 17.823 14.4001 20.1074C12.48 20.1074 11.52 21.6345 11.52 23.065C11.52 24.6099 12.774 25.8634 14.3199 25.8634H23.1202C24.6661 25.8634 25.9201 24.6099 25.9201 23.065C25.9199 21.6343 24.96 20.1074 23.04 20.1074Z" fill="#7FD3B9"/>
<path d="M13.4399 23.065C13.4399 21.6345 14.3999 20.1074 16.32 20.1074C16.635 18.1467 17.8364 16.7325 19.68 16.369C19.3758 16.309 19.0584 16.2701 18.7201 16.2701C16.3303 16.2701 14.7671 17.823 14.4001 20.1074C12.48 20.1074 11.52 21.6345 11.52 23.065C11.52 24.6099 12.774 25.8634 14.3199 25.8634H16.24C14.6939 25.8634 13.4399 24.6099 13.4399 23.065Z" fill="#BBEAD9"/>
<path d="M12.48 17.2295C13.1871 17.2295 13.7602 16.3705 13.7602 15.3108C13.7602 14.2511 13.1871 13.3921 12.48 13.3921C11.7729 13.3921 11.1998 14.2511 11.1998 15.3108C11.1998 16.3705 11.7729 17.2295 12.48 17.2295Z" fill="#7FD3B9"/>
<path d="M24.96 17.2295C25.667 17.2295 26.2402 16.3705 26.2402 15.3108C26.2402 14.2511 25.667 13.3921 24.96 13.3921C24.2529 13.3921 23.6797 14.2511 23.6797 15.3108C23.6797 16.3705 24.2529 17.2295 24.96 17.2295Z" fill="#7FD3B9"/>
<path d="M16.32 13.3921C17.027 13.3921 17.6002 12.5332 17.6002 11.4736C17.6002 10.414 17.027 9.55505 16.32 9.55505C15.6129 9.55505 15.0397 10.414 15.0397 11.4736C15.0397 12.5332 15.6129 13.3921 16.32 13.3921Z" fill="#7FD3B9"/>
<path d="M21.12 13.3921C21.827 13.3921 22.4002 12.5332 22.4002 11.4736C22.4002 10.414 21.827 9.55505 21.12 9.55505C20.4129 9.55505 19.8397 10.414 19.8397 11.4736C19.8397 12.5332 20.4129 13.3921 21.12 13.3921Z" fill="#7FD3B9"/>
<path d="M7.67999 31.6194H17.2799V33.5374H7.67999V31.6194Z" fill="#C1C1C1"/>
<path d="M7.67999 38.3339H17.2799V40.2519H7.67999V38.3339Z" fill="#C1C1C1"/>
<path d="M28.2375 30.2624L26.2013 32.2973L25.5226 31.6191C25.1477 31.2444 24.5397 31.2444 24.1646 31.6191C23.79 31.9937 23.79 32.6007 24.1646 32.9756L25.5226 34.332C25.8971 34.7069 26.5051 34.7069 26.88 34.332L29.5955 31.6191C29.97 31.2444 29.97 30.6372 29.5955 30.2626C29.2206 29.8878 28.6126 29.8878 28.2375 30.2624Z" fill="#C1C1C1"/>
<path d="M28.2375 36.9776L26.2013 39.0124L25.5226 38.3341C25.1477 37.9595 24.5397 37.9595 24.1646 38.3341C23.79 38.7088 23.79 39.316 24.1646 39.6906L25.5226 41.0471C25.8971 41.4219 26.5051 41.4219 26.88 41.0471L29.5955 38.3341C29.97 37.9595 29.97 37.3523 29.5955 36.9776C29.2206 36.603 28.6126 36.603 28.2375 36.9776Z" fill="#C1C1C1"/>
<path d="M12.48 1.88062H14.4001V5.71787H12.48V1.88062Z" fill="#FFE2A9"/>
<path d="M3.84003 3.79932H4.79999V45.0499H3.84003V3.79932Z" fill="#EFEFEF"/>
<path d="M12.1598 15.3108C12.1598 14.5066 12.4912 13.8198 12.9601 13.5345C12.8114 13.4442 12.6502 13.3921 12.4801 13.3921C11.7737 13.3921 11.1999 14.2516 11.1999 15.3108C11.1999 16.37 11.7737 17.2295 12.4801 17.2295C12.6503 17.2295 12.8116 17.1776 12.9601 17.0871C12.4912 16.8019 12.1598 16.1152 12.1598 15.3108Z" fill="#BBEAD9"/>
<path d="M24.6398 15.3108C24.6398 14.5066 24.9713 13.8198 25.4401 13.5345C25.2914 13.4442 25.1301 13.3921 24.9601 13.3921C24.2537 13.3921 23.6799 14.2516 23.6799 15.3108C23.6799 16.37 24.2537 17.2295 24.9601 17.2295C25.1303 17.2295 25.2916 17.1776 25.4401 17.0871C24.9711 16.8019 24.6398 16.1152 24.6398 15.3108Z" fill="#BBEAD9"/>
<path d="M20.7999 11.4738C20.7999 10.6695 21.1313 9.98289 21.6001 9.69749C21.4515 9.6072 21.2902 9.55505 21.1201 9.55505C20.4137 9.55505 19.8399 10.4146 19.8399 11.4736C19.8399 12.5326 20.4137 13.3923 21.1201 13.3923C21.2902 13.3923 21.4515 13.3403 21.6001 13.2499C21.1312 12.9648 20.7999 12.2782 20.7999 11.4738Z" fill="#BBEAD9"/>
<path d="M15.9999 11.4738C15.9999 10.6695 16.3312 9.98289 16.7999 9.69749C16.6513 9.6072 16.49 9.55505 16.32 9.55505C15.6136 9.55505 15.0397 10.4146 15.0397 11.4736C15.0397 12.5326 15.6136 13.3923 16.32 13.3923C16.49 13.3923 16.6515 13.3403 16.7999 13.2499C16.3312 12.9648 15.9999 12.2782 15.9999 11.4738Z" fill="#BBEAD9"/>
<path d="M24.96 6.67694H12.48C11.9499 6.67694 11.52 6.24735 11.52 5.71767V1.88041C11.52 1.35056 11.9499 0.921143 12.48 0.921143H24.96C25.4902 0.921143 25.9199 1.35073 25.9199 1.88041V5.71767C25.9199 6.24752 25.4902 6.67694 24.96 6.67694ZM13.4399 4.7584H24V2.83968H13.4399V4.7584Z" fill="#161616"/>
<path d="M39.36 48.8869H36.48C35.9499 48.8869 35.52 48.4573 35.52 47.9276V3.79924C35.52 3.26938 35.9499 2.83997 36.48 2.83997H39.36C39.8901 2.83997 40.32 3.26956 40.32 3.79924V47.9276C40.32 48.4574 39.8901 48.8869 39.36 48.8869ZM37.4399 46.9683H38.3999V4.75851H37.4399V46.9683Z" fill="#161616"/>
<path d="M12.48 18.1886C11.2238 18.1886 10.2398 16.9243 10.2398 15.3106C10.2398 13.6969 11.2238 12.4326 12.48 12.4326C13.7362 12.4326 14.7202 13.6969 14.7202 15.3106C14.7202 16.9243 13.7362 18.1886 12.48 18.1886ZM12.4537 14.3471C12.4079 14.3879 12.1599 14.734 12.1599 15.3106C12.1599 15.8872 12.4079 16.2333 12.5063 16.2741C12.5521 16.2333 12.8001 15.8872 12.8001 15.3106C12.8001 14.734 12.5521 14.3879 12.4537 14.3471Z" fill="#161616"/>
<path d="M24.96 18.1886C23.7037 18.1886 22.7198 16.9243 22.7198 15.3106C22.7198 13.6969 23.7037 12.4326 24.96 12.4326C26.2162 12.4326 27.2002 13.6969 27.2002 15.3106C27.2002 16.9243 26.2162 18.1886 24.96 18.1886ZM24.9337 14.3471C24.8878 14.3879 24.6399 14.734 24.6399 15.3106C24.6399 15.8872 24.8878 16.2333 24.9862 16.2741C25.0321 16.2333 25.2801 15.8872 25.2801 15.3106C25.2803 14.734 25.0323 14.3879 24.9337 14.3471Z" fill="#161616"/>
<path d="M16.32 14.3516C15.0637 14.3516 14.0798 13.0873 14.0798 11.4736C14.0798 9.85985 15.0637 8.59558 16.32 8.59558C17.5762 8.59558 18.5602 9.85985 18.5602 11.4736C18.5602 13.0873 17.5762 14.3516 16.32 14.3516ZM16.2937 10.5101C16.2478 10.5509 15.9999 10.897 15.9999 11.4736C15.9999 12.0501 16.2478 12.3963 16.3462 12.437C16.3921 12.3963 16.6401 12.0501 16.6401 11.4736C16.6401 10.897 16.3921 10.5509 16.2937 10.5101Z" fill="#161616"/>
<path d="M21.12 14.3516C19.8637 14.3516 18.8798 13.0873 18.8798 11.4736C18.8798 9.85985 19.8637 8.59558 21.12 8.59558C22.3762 8.59558 23.3601 9.85985 23.3601 11.4736C23.3601 13.0873 22.3762 14.3516 21.12 14.3516ZM21.0937 10.5101C21.0478 10.5509 20.7999 10.897 20.7999 11.4736C20.7999 12.0501 21.0478 12.3963 21.1462 12.437C21.1921 12.3963 21.4401 12.0501 21.4401 11.4736C21.4402 10.897 21.1923 10.5509 21.0937 10.5101Z" fill="#161616"/>
<path d="M7.67999 31.6193H17.2799V33.5373H7.67999V31.6193Z" fill="#161616"/>
<path d="M7.67999 38.3339H17.2799V40.2519H7.67999V38.3339Z" fill="#161616"/>
<path d="M28.2375 30.2624L26.2013 32.2973L25.5226 31.6191C25.1477 31.2444 24.5397 31.2444 24.1646 31.6191C23.79 31.9937 23.79 32.6013 24.1646 32.9756L25.5226 34.3326C25.8971 34.7069 26.5051 34.7069 26.88 34.3326L29.5955 31.6191C29.97 31.2444 29.97 30.6369 29.5955 30.2626C29.2206 29.8878 28.6126 29.8878 28.2375 30.2624Z" fill="#161616"/>
<path d="M28.2375 36.9775L26.2013 39.0122L25.5226 38.334C25.1477 37.9594 24.5397 37.9594 24.1646 38.334C23.79 38.7086 23.79 39.3162 24.1646 39.6905L25.5226 41.0475C25.8971 41.4218 26.5051 41.4218 26.88 41.0475L29.5955 38.334C29.97 37.9594 29.97 37.3518 29.5955 36.9775C29.2206 36.6029 28.6126 36.6029 28.2375 36.9775Z" fill="#161616"/>
<path d="M36.48 48.8869H0.959958C0.429722 48.8869 0 48.4573 0 47.9276V12.433C0 11.9033 0.429897 11.4737 0.959958 11.4737C1.49019 11.4737 1.91992 11.9033 1.91992 12.433V46.9683H35.52V4.75851H25.9199V5.71778C25.9199 6.24763 25.49 6.67705 24.96 6.67705H12.48C11.9499 6.67705 11.52 6.24746 11.52 5.71778V4.75851H1.91992V8.59576C1.91992 9.12562 1.49002 9.55503 0.959958 9.55503C0.429722 9.55503 0 9.12544 0 8.59576V3.79924C0 3.26938 0.429897 2.83997 0.959958 2.83997H12.48C13.0102 2.83997 13.4399 3.26956 13.4399 3.79924V4.75851H24V3.79924C24 3.26938 24.4299 2.83997 24.96 2.83997H36.48C37.0102 2.83997 37.4399 3.26956 37.4399 3.79924V47.9276C37.4399 48.4574 37.0102 48.8869 36.48 48.8869Z" fill="#161616"/>
<path d="M23.1201 26.8226C22.5898 26.8226 22.1202 26.393 22.1202 25.8633C22.1202 25.3336 22.5098 24.904 23.0399 24.904H23.1201C24.1345 24.904 24.9599 24.0791 24.9599 23.0649C24.9599 22.3736 24.5588 21.0668 23.04 21.0668C22.5685 21.0668 22.1667 20.7248 22.0922 20.2597C21.7827 18.334 20.5536 17.2295 18.7199 17.2295C16.8861 17.2295 15.657 18.334 15.3478 20.2597C15.2732 20.7248 14.8715 21.0668 14.3999 21.0668C12.8811 21.0668 12.4798 22.3737 12.4798 23.0649C12.4798 24.0791 13.3053 24.904 14.3197 24.904H19.1998C19.7299 24.904 20.1598 25.3336 20.1598 25.8633C20.1598 26.3931 19.7299 26.8226 19.1998 26.8226H14.3197C12.2464 26.8226 10.5599 25.1367 10.5599 23.0649C10.5599 21.3772 11.623 19.5953 13.6105 19.2201C14.2761 16.7891 16.1778 15.3108 18.7199 15.3108C21.262 15.3108 23.1637 16.7891 23.8293 19.2201C25.8168 19.5953 26.8799 21.3772 26.8799 23.0649C26.88 25.1367 25.1934 26.8226 23.1201 26.8226Z" fill="#161616"/>
<path d="M33.5999 46.0089H3.84002C3.30979 46.0089 2.88007 45.5793 2.88007 45.0496V3.79924C2.88007 3.26938 3.30996 2.83997 3.84002 2.83997H12.48C13.0102 2.83997 13.44 3.26956 13.44 3.79924V4.75851H23.9995V3.79924C23.9995 3.54498 24.1007 3.30088 24.2807 3.12099C24.4607 2.94111 24.705 2.83997 24.9595 2.83997H33.5999C34.1302 2.83997 34.5599 3.26956 34.5599 3.79924V45.0498C34.5601 45.5795 34.1302 46.0089 33.5999 46.0089ZM4.79998 44.0903H32.64V4.75851H25.9196L25.9201 5.71778C25.9201 5.9722 25.8189 6.21613 25.6389 6.39602C25.4589 6.5759 25.2146 6.67705 24.9602 6.67705H12.4802C11.9501 6.67705 11.5202 6.24746 11.5202 5.71778V4.75851H4.79998V44.0903Z" fill="#161616"/>
</svg>
