<svg width="40" height="40" viewBox="0 0 40 40" fill="none" xmlns="http://www.w3.org/2000/svg">
<path d="M34.5725 0.321926H2.92888C2.21091 0.314186 1.51936 0.608459 1.00598 1.14017C0.492598 1.67189 0.199318 2.39761 0.190491 3.1581V36.8119C0.200914 37.5713 0.494896 38.2953 1.0081 38.8257C1.52131 39.356 2.21195 39.6494 2.92888 39.6416H34.5725C35.2905 39.6477 35.9816 39.3524 36.4947 38.8203C37.0078 38.2883 37.3012 37.5627 37.3108 36.8022V3.14843C37.298 2.39017 37.0032 1.66791 36.4904 1.13863C35.9777 0.609361 35.2884 0.31586 34.5725 0.321926Z" fill="#0076B2"/>
<path d="M5.945 14.2293H11.7154V31.9585H5.945V14.2293ZM8.83182 5.40576C9.49366 5.40576 10.1406 5.59321 10.6909 5.94438C11.2411 6.29556 11.67 6.79469 11.9231 7.37862C12.1762 7.96256 12.2423 8.60507 12.1129 9.22487C11.9836 9.84467 11.6646 10.4139 11.1964 10.8606C10.7282 11.3072 10.1318 11.6113 9.48256 11.7342C8.83336 11.8571 8.16056 11.7934 7.54928 11.5512C6.938 11.3089 6.4157 10.8989 6.04846 10.3732C5.68122 9.8474 5.48554 9.22943 5.48617 8.59745C5.48701 7.75068 5.83987 6.93887 6.46721 6.3404C7.09455 5.74193 7.94505 5.40576 8.83182 5.40576Z" fill="white"/>
<path d="M15.3353 14.222H20.8667V16.6561H20.9432C21.7143 15.2626 23.5942 13.793 26.4014 13.793C32.2451 13.7808 33.3285 17.4532 33.3285 22.2149V31.9512H27.558V23.3255C27.558 21.2717 27.5198 18.6277 24.5597 18.6277C21.5996 18.6277 21.0962 20.867 21.0962 23.1916V31.9512H15.3353V14.222Z" fill="white"/>
</svg>
