<svg width="42" height="40" viewBox="0 0 42 40" fill="none" xmlns="http://www.w3.org/2000/svg">
<path d="M37.2314 0H4.87512C2.4392 0 0.462891 1.88701 0.462891 4.21286V35.1071C0.462891 37.433 2.4392 39.32 4.87512 39.32H37.2314C39.6673 39.32 41.6437 37.433 41.6437 35.1071V4.21286C41.6437 1.88701 39.6673 0 37.2314 0ZM25.9527 33.6765C25.1805 33.8082 24.8956 33.3518 24.8956 32.9744C24.8956 32.5004 24.914 30.078 24.914 28.1208C24.914 26.7516 24.436 25.8827 23.8753 25.4263C27.2763 25.0665 30.8613 24.6189 30.8613 19.0105C30.8613 17.4131 30.2638 16.6145 29.2894 15.5876C29.4457 15.2102 29.9696 13.6567 29.1332 11.638C27.8555 11.2606 24.9324 13.2091 24.9324 13.2091C23.719 12.8843 22.4045 12.7176 21.1084 12.7176C19.8123 12.7176 18.4979 12.8843 17.2845 13.2091C17.2845 13.2091 14.3614 11.2606 13.0837 11.638C12.2472 13.6479 12.762 15.2014 12.9274 15.5876C11.9531 16.6145 11.4935 17.4131 11.4935 19.0105C11.4935 24.5926 14.9221 25.0665 18.3232 25.4263C17.882 25.8038 17.4867 26.4532 17.3488 27.3836C16.4756 27.761 14.2419 28.4105 12.909 26.1636C12.0726 24.7769 10.565 24.6628 10.565 24.6628C9.07592 24.6452 10.4639 25.558 10.4639 25.558C11.4567 25.9968 12.1553 27.682 12.1553 27.682C13.0469 30.2887 17.3121 29.411 17.3121 29.411C17.3121 30.631 17.3305 32.6145 17.3305 32.9744C17.3305 33.3518 17.0547 33.8082 16.2734 33.6765C10.2066 31.7369 5.95979 26.225 5.95979 19.7829C5.95979 11.7258 12.4127 5.60837 20.851 5.60837C29.2894 5.60837 36.1284 11.7258 36.1284 19.7829C36.1376 26.225 32.0195 31.7456 25.9527 33.6765ZM16.9352 28.3139C16.7605 28.349 16.5951 28.2788 16.5767 28.1647C16.5583 28.0331 16.6778 27.919 16.8525 27.8838C17.0271 27.8663 17.1926 27.9365 17.211 28.0506C17.2385 28.1647 17.119 28.2788 16.9352 28.3139ZM16.0619 28.2349C16.0619 28.349 15.9241 28.4456 15.7402 28.4456C15.538 28.4631 15.4001 28.3666 15.4001 28.2349C15.4001 28.1208 15.538 28.0243 15.7218 28.0243C15.8965 28.0067 16.0619 28.1033 16.0619 28.2349ZM14.8026 28.1384C14.7659 28.2525 14.582 28.3051 14.4257 28.2525C14.2511 28.2174 14.1316 28.0857 14.1684 27.9716C14.2051 27.8575 14.389 27.8049 14.5452 27.84C14.7291 27.8926 14.8486 28.0243 14.8026 28.1384ZM13.672 27.6644C13.5893 27.761 13.4146 27.7434 13.2767 27.6118C13.1388 27.4977 13.1021 27.3309 13.194 27.2519C13.2767 27.1554 13.4514 27.1729 13.5893 27.3046C13.7088 27.4187 13.7547 27.5942 13.672 27.6644ZM12.8355 26.8657C12.7528 26.9184 12.5965 26.8657 12.4954 26.7341C12.3943 26.6024 12.3943 26.4532 12.4954 26.3918C12.5965 26.3128 12.7528 26.3742 12.8355 26.5059C12.9366 26.6375 12.9366 26.7955 12.8355 26.8657ZM12.238 26.0144C12.1553 26.0934 12.0174 26.0495 11.9163 25.9617C11.8152 25.8476 11.7968 25.716 11.8795 25.6545C11.9623 25.5756 12.1001 25.6194 12.2012 25.7072C12.3024 25.8213 12.3207 25.953 12.238 26.0144ZM11.6221 25.3649C11.5854 25.4439 11.4659 25.4615 11.3648 25.4C11.2453 25.3474 11.1901 25.2508 11.2269 25.1718C11.2636 25.1192 11.3648 25.0928 11.4843 25.1367C11.6038 25.1982 11.6589 25.2947 11.6221 25.3649Z" fill="black"/>
</svg>
