<svg width="38" height="38" viewBox="0 0 38 38" fill="none" xmlns="http://www.w3.org/2000/svg">
<path d="M31.8392 0.321777H6.15023C3.11002 0.321777 0.645447 2.81466 0.645447 5.88978V31.8738C0.645447 34.9489 3.11002 37.4418 6.15023 37.4418H31.8392C34.8794 37.4418 37.344 34.9489 37.344 31.8738V5.88978C37.344 2.81466 34.8794 0.321777 31.8392 0.321777Z" fill="#37AEE2"/>
<path d="M14.9091 29.611C14.1207 29.611 14.1924 29.321 13.9773 28.596L11.6837 20.9835L29.2445 10.5435" fill="#C8DAEA"/>
<path d="M14.9091 29.6112C15.4109 29.6112 15.6976 29.3212 16.056 29.0312L19.2814 25.9137L15.2675 23.4487" fill="#A9C9DD"/>
<path d="M15.2671 23.4462L24.9435 30.6237C25.9469 31.2762 26.8071 30.9137 27.0938 29.6087L31.036 10.9037C31.3944 9.3087 30.3909 8.5837 29.3157 9.0912L6.3075 18.0812C4.80229 18.6612 4.80229 19.6037 6.0208 19.9662L11.97 21.8512L25.5885 13.0787C26.2336 12.7162 26.8071 12.8612 26.377 13.3687" fill="#F6FBFE"/>
</svg>
