<svg width="38" height="38" viewBox="0 0 38 38" fill="none" xmlns="http://www.w3.org/2000/svg">
<path d="M29.5699 0H8.59935C4.2562 0 0.735382 3.56125 0.735382 7.95429V29.1657C0.735382 33.5587 4.2562 37.12 8.59935 37.12H29.5699C33.9131 37.12 37.4339 33.5587 37.4339 29.1657V7.95429C37.4339 3.56125 33.9131 0 29.5699 0Z" fill="url(#paint0_radial_3523_256481)"/>
<path d="M29.5699 0H8.59935C4.2562 0 0.735382 3.56125 0.735382 7.95429V29.1657C0.735382 33.5587 4.2562 37.12 8.59935 37.12H29.5699C33.9131 37.12 37.4339 33.5587 37.4339 29.1657V7.95429C37.4339 3.56125 33.9131 0 29.5699 0Z" fill="url(#paint1_radial_3523_256481)"/>
<path d="M29.5699 0H8.59935C4.2562 0 0.735382 3.56125 0.735382 7.95429V29.1657C0.735382 33.5587 4.2562 37.12 8.59935 37.12H29.5699C33.9131 37.12 37.4339 33.5587 37.4339 29.1657V7.95429C37.4339 3.56125 33.9131 0 29.5699 0Z" fill="url(#paint2_radial_3523_256481)"/>
<path d="M28.2592 11.2576C28.2592 12.3558 27.379 13.2462 26.2932 13.2462C25.2075 13.2462 24.3273 12.3558 24.3273 11.2576C24.3273 10.1594 25.2075 9.26904 26.2932 9.26904C27.379 9.26904 28.2592 10.1594 28.2592 11.2576Z" fill="white"/>
<path fillRule="evenodd" clipRule="evenodd" d="M19.0841 25.1814C22.7034 25.1814 25.6374 22.2137 25.6374 18.5529C25.6374 14.8921 22.7034 11.9243 19.0841 11.9243C15.4649 11.9243 12.5308 14.8921 12.5308 18.5529C12.5308 22.2137 15.4649 25.1814 19.0841 25.1814ZM19.0841 22.53C21.2558 22.53 23.0161 20.7494 23.0161 18.5529C23.0161 16.3563 21.2558 14.5757 19.0841 14.5757C16.9125 14.5757 15.1521 16.3563 15.1521 18.5529C15.1521 20.7494 16.9125 22.53 19.0841 22.53Z" fill="white"/>
<path fillRule="evenodd" clipRule="evenodd" d="M5.97797 18.0281C5.97797 13.5733 5.97797 11.3459 6.83509 9.64438C7.58903 8.14768 8.79206 6.93084 10.2718 6.16823C11.9539 5.30127 14.1561 5.30127 18.5603 5.30127H19.6088C24.013 5.30127 26.2152 5.30127 27.8973 6.16823C29.3771 6.93084 30.5801 8.14768 31.334 9.64438C32.1912 11.3459 32.1912 13.5733 32.1912 18.0281V19.0887C32.1912 23.5435 32.1912 25.7709 31.334 27.4723C30.5801 28.9691 29.3771 30.1859 27.8973 30.9485C26.2152 31.8155 24.013 31.8155 19.6088 31.8155H18.5603C14.1561 31.8155 11.9539 31.8155 10.2718 30.9485C8.79206 30.1859 7.58903 28.9691 6.83509 27.4723C5.97797 25.7709 5.97797 23.5435 5.97797 19.0887V18.0281ZM18.5603 7.95269H19.6088C21.8543 7.95269 23.3805 7.95476 24.5604 8.05225C25.7097 8.14723 26.2974 8.31937 26.7074 8.53066C27.6938 9.03908 28.4958 9.8503 28.9984 10.848C29.2073 11.2627 29.3776 11.8572 29.4714 13.0197C29.5678 14.2131 29.5699 15.7569 29.5699 18.0281V19.0887C29.5699 21.3599 29.5678 22.9037 29.4714 24.0971C29.3776 25.2596 29.2073 25.854 28.9984 26.2687C28.4958 27.2665 27.6938 28.0777 26.7074 28.5861C26.2974 28.7974 25.7097 28.9696 24.5604 29.0645C23.3805 29.162 21.8543 29.1641 19.6088 29.1641H18.5603C16.3149 29.1641 14.7886 29.162 13.6088 29.0645C12.4594 28.9696 11.8717 28.7974 11.4618 28.5861C10.4754 28.0777 9.67333 27.2665 9.1707 26.2687C8.9618 25.854 8.79161 25.2596 8.69772 24.0971C8.60133 22.9037 8.59929 21.3599 8.59929 19.0887V18.0281C8.59929 15.7569 8.60133 14.2131 8.69772 13.0197C8.79161 11.8572 8.9618 11.2627 9.1707 10.848C9.67333 9.8503 10.4754 9.03908 11.4618 8.53066C11.8717 8.31937 12.4594 8.14723 13.6088 8.05225C14.7886 7.95476 16.3149 7.95269 18.5603 7.95269Z" fill="white"/>
<defs>
<radialGradient id="paint0_radial_3523_256481" cx="0" cy="0" r="1" gradientUnits="userSpaceOnUse" gradientTransform="translate(13.842 27.84) rotate(-55.6811) scale(33.7082 33.5701)">
<stop stop-color="#B13589"/>
<stop offset="0.79309" stop-color="#C62F94"/>
<stop offset="1" stop-color="#8A3AC8"/>
</radialGradient>
<radialGradient id="paint1_radial_3523_256481" cx="0" cy="0" r="1" gradientUnits="userSpaceOnUse" gradientTransform="translate(12.5313 38.4457) rotate(-65.385) scale(29.8936 29.6726)">
<stop stop-color="#E0E8B7"/>
<stop offset="0.444662" stop-color="#FB8A2E"/>
<stop offset="0.71474" stop-color="#E2425C"/>
<stop offset="1" stop-color="#E2425C" stop-opacity="0"/>
</radialGradient>
<radialGradient id="paint2_radial_3523_256481" cx="0" cy="0" r="1" gradientUnits="userSpaceOnUse" gradientTransform="translate(-1.23061 1.32571) rotate(-8.2222) scale(50.9846 11.0252)">
<stop offset="0.156701" stop-color="#406ADC"/>
<stop offset="0.467799" stop-color="#6A45BE"/>
<stop offset="1" stop-color="#6A45BE" stop-opacity="0"/>
</radialGradient>
</defs>
</svg>
