<svg width="54" height="45" viewBox="0 0 54 45" fill="none" xmlns="http://www.w3.org/2000/svg">
<path d="M10.8008 9.02265C13.0366 9.02265 14.8506 7.20997 14.8506 4.97574C14.8506 2.74151 13.0366 0.928833 10.8008 0.928833C8.56493 0.928833 6.75095 2.74151 6.75095 4.97574C6.75095 7.20997 8.56493 9.02265 10.8008 9.02265ZM43.1992 9.02265C45.4351 9.02265 47.2491 7.20997 47.2491 4.97574C47.2491 2.74151 45.4351 0.928833 43.1992 0.928833C40.9634 0.928833 39.1494 2.74151 39.1494 4.97574C39.1494 7.20997 40.9634 9.02265 43.1992 9.02265ZM53.8047 40.3946L50.0924 31.1205L46.6247 35.0325L46.456 36.5669L48.793 42.4012C49.2149 43.4551 50.2273 44.0959 51.2989 44.0959C51.6363 44.0959 51.9738 44.0368 52.3029 43.9019C53.6866 43.3455 54.3615 41.7773 53.8047 40.3946ZM50.9192 22.7063L49.3583 15.9445C48.9702 14.2583 47.789 12.8419 46.1944 12.159C44.6335 11.4845 42.9039 11.5941 41.4612 12.4372C39.546 13.567 38.1117 15.3459 37.403 17.4453L36.4496 20.3034L35.0996 21.1634V13.0696C35.0996 12.3276 34.4921 11.7206 33.7497 11.7206H20.2503C19.5079 11.7206 18.9004 12.3276 18.9004 13.0696V21.1634L17.542 20.3034L16.5886 17.4453C15.8883 15.3375 14.4456 13.567 12.5304 12.4372C11.0792 11.5941 9.35801 11.4845 7.79715 12.159C6.20254 12.8419 5.02134 14.2583 4.63323 15.9445L3.08081 22.7063C2.6927 24.3925 3.13987 26.1799 4.29575 27.4867L9.96548 33.8858L10.8176 41.693C10.9695 43.0673 12.1338 44.0959 13.5006 44.0959C13.6019 44.0959 13.6947 44.0874 13.7959 44.079C15.2809 43.9188 16.3439 42.5867 16.1836 41.1028L15.3315 33.2788C15.2049 32.1828 14.7493 31.1626 14.0153 30.3279L10.362 26.1967L11.847 20.2697L12.4207 21.9896C12.7666 23.0435 13.4247 23.9625 14.4878 24.7381L18.7991 27.4782C19.1872 27.7227 19.82 27.8661 20.2503 27.8998H33.7497C34.18 27.8661 34.8128 27.7227 35.2009 27.4782L39.5122 24.7381C40.5753 23.9625 41.2334 23.0519 41.5793 21.9896L42.153 20.2697L43.638 26.1967L39.9847 30.3279C39.2507 31.1626 38.7951 32.1828 38.6685 33.2788L37.8164 41.1028C37.6561 42.5867 38.7276 43.9188 40.2041 44.079C40.3053 44.0874 40.3981 44.0959 40.4994 44.0959C41.8577 44.0959 43.0305 43.0757 43.1824 41.693L44.0345 33.8858L49.7042 27.4867C50.8517 26.1799 51.3073 24.3925 50.9192 22.7063ZM3.90764 31.1205L0.195317 40.3946C-0.361532 41.7773 0.313437 43.3455 1.69712 43.9019C3.11456 44.4584 4.65855 43.7586 5.20696 42.4012L7.54404 36.5669L7.37529 35.0325L3.90764 31.1205Z" fill="#0D2624"/>
</svg>
