<svg width="46" height="47" viewBox="0 0 46 47" fill="none" xmlns="http://www.w3.org/2000/svg">
<path d="M32.5833 10.102C32.3716 10.102 32.2 10.2735 32.2 10.485V14.3156C32.2 14.5272 32.3716 14.6987 32.5833 14.6987H36.4167C36.6284 14.6987 36.8 14.5272 36.8 14.3156V10.485C36.8 10.2735 36.6284 10.102 36.4167 10.102H32.5833ZM32.2 37.6822V36.533C32.2 35.8983 32.7149 35.3838 33.35 35.3838C33.9851 35.3838 34.5 35.8983 34.5 36.533V37.6822H36.8V36.533C36.8 35.8983 37.3149 35.3838 37.95 35.3838C38.5851 35.3838 39.1 35.8983 39.1 36.533V38.8314C39.1 39.466 38.5851 39.9805 37.95 39.9805H28.75C28.1149 39.9805 27.6 39.466 27.6 38.8314V36.533C27.6 35.8983 28.1149 35.3838 28.75 35.3838C29.3851 35.3838 29.9 35.8983 29.9 36.533V37.6822H32.2ZM25.3 21.5937H26.45C27.0851 21.5937 27.6 22.1082 27.6 22.7429C27.6 23.3776 27.0851 23.8921 26.45 23.8921H21.85C21.2149 23.8921 20.7 23.3776 20.7 22.7429C20.7 22.1082 21.2149 21.5937 21.85 21.5937H23V19.2954H19.55C18.9149 19.2954 18.4 18.7809 18.4 18.1462C18.4 17.5115 18.9149 16.997 19.55 16.997H26.45C27.0851 16.997 27.6 17.5115 27.6 18.1462C27.6 18.7809 27.0851 19.2954 26.45 19.2954H25.3V21.5937ZM36.8 23.8921H35.65C35.0149 23.8921 34.5 23.3776 34.5 22.7429C34.5 22.1082 35.0149 21.5937 35.65 21.5937H36.8V20.4446C36.8 19.8099 37.3149 19.2954 37.95 19.2954C38.5851 19.2954 39.1 19.8099 39.1 20.4446V25.0413C39.1 25.6759 38.5851 26.1904 37.95 26.1904C37.3149 26.1904 36.8 25.6759 36.8 25.0413V23.8921ZM25.3 28.4888H24.15C23.5149 28.4888 23 27.9743 23 27.3396C23 26.7049 23.5149 26.1904 24.15 26.1904H26.45C27.0851 26.1904 27.6 26.7049 27.6 27.3396V31.9363C27.6 32.571 27.0851 33.0855 26.45 33.0855H19.55C18.9149 33.0855 18.4 32.571 18.4 31.9363C18.4 31.3016 18.9149 30.7871 19.55 30.7871H25.3V28.4888ZM32.5833 7.80362H36.4167C37.8986 7.80362 39.1 9.00413 39.1 10.485V14.3156C39.1 15.7965 37.8986 16.997 36.4167 16.997H32.5833C31.1014 16.997 29.9 15.7965 29.9 14.3156V10.485C29.9 9.00413 31.1014 7.80362 32.5833 7.80362ZM9.58333 7.80362H13.4167C14.8986 7.80362 16.1 9.00413 16.1 10.485V14.3156C16.1 15.7965 14.8986 16.997 13.4167 16.997H9.58333C8.10137 16.997 6.9 15.7965 6.9 14.3156V10.485C6.9 9.00413 8.10137 7.80362 9.58333 7.80362ZM9.58333 10.102C9.37162 10.102 9.2 10.2735 9.2 10.485V14.3156C9.2 14.5272 9.37162 14.6987 9.58333 14.6987H13.4167C13.6284 14.6987 13.8 14.5272 13.8 14.3156V10.485C13.8 10.2735 13.6284 10.102 13.4167 10.102H9.58333ZM9.58333 30.7871H13.4167C14.8986 30.7871 16.1 31.9876 16.1 33.4686V37.2991C16.1 38.78 14.8986 39.9805 13.4167 39.9805H9.58333C8.10137 39.9805 6.9 38.78 6.9 37.2991V33.4686C6.9 31.9876 8.10137 30.7871 9.58333 30.7871ZM9.58333 33.0855C9.37162 33.0855 9.2 33.257 9.2 33.4686V37.2991C9.2 37.5107 9.37162 37.6822 9.58333 37.6822H13.4167C13.6284 37.6822 13.8 37.5107 13.8 37.2991V33.4686C13.8 33.257 13.6284 33.0855 13.4167 33.0855H9.58333ZM25.3 10.102H19.55C18.9149 10.102 18.4 9.58747 18.4 8.9528C18.4 8.31813 18.9149 7.80362 19.55 7.80362H26.45C27.0851 7.80362 27.6 8.31813 27.6 8.9528V13.5495C27.6 14.1842 27.0851 14.6987 26.45 14.6987C25.8149 14.6987 25.3 14.1842 25.3 13.5495V10.102ZM19.55 14.6987C18.9149 14.6987 18.4 14.1842 18.4 13.5495C18.4 12.9148 18.9149 12.4003 19.55 12.4003H21.85C22.4851 12.4003 23 12.9148 23 13.5495C23 14.1842 22.4851 14.6987 21.85 14.6987H19.55ZM8.05 28.4888C7.41487 28.4888 6.9 27.9743 6.9 27.3396C6.9 26.7049 7.41487 26.1904 8.05 26.1904H12.65C13.2851 26.1904 13.8 26.7049 13.8 27.3396C13.8 27.9743 13.2851 28.4888 12.65 28.4888H8.05ZM17.25 28.4888C16.6149 28.4888 16.1 27.9743 16.1 27.3396C16.1 26.7049 16.6149 26.1904 17.25 26.1904H19.55C20.1851 26.1904 20.7 26.7049 20.7 27.3396C20.7 27.9743 20.1851 28.4888 19.55 28.4888H17.25ZM20.7 37.6822V38.8314C20.7 39.466 20.1851 39.9805 19.55 39.9805C18.9149 39.9805 18.4 39.466 18.4 38.8314V36.533C18.4 35.8983 18.9149 35.3838 19.55 35.3838H24.15C24.7851 35.3838 25.3 35.8983 25.3 36.533C25.3 37.1677 24.7851 37.6822 24.15 37.6822H20.7ZM16.1 21.5937H17.25C17.8851 21.5937 18.4 22.1082 18.4 22.7429C18.4 23.3776 17.8851 23.8921 17.25 23.8921H14.95C14.3149 23.8921 13.8 23.3776 13.8 22.7429V21.5937H12.65C12.0149 21.5937 11.5 21.0792 11.5 20.4446C11.5 19.8099 12.0149 19.2954 12.65 19.2954H14.95C15.5851 19.2954 16.1 19.8099 16.1 20.4446V21.5937ZM6.9 20.4446C6.9 19.8099 7.41487 19.2954 8.05 19.2954C8.68513 19.2954 9.2 19.8099 9.2 20.4446V22.7429C9.2 23.3776 8.68513 23.8921 8.05 23.8921C7.41487 23.8921 6.9 23.3776 6.9 22.7429V20.4446ZM29.9 20.4446C29.9 19.8099 30.4149 19.2954 31.05 19.2954C31.6851 19.2954 32.2 19.8099 32.2 20.4446V25.0413C32.2 25.6759 31.6851 26.1904 31.05 26.1904C30.4149 26.1904 29.9 25.6759 29.9 25.0413V20.4446ZM34.5 30.7871V29.638C34.5 29.0033 35.0149 28.4888 35.65 28.4888H37.95C38.5851 28.4888 39.1 29.0033 39.1 29.638C39.1 30.2726 38.5851 30.7871 37.95 30.7871H36.8V31.9363C36.8 32.571 36.2851 33.0855 35.65 33.0855H31.05C30.4149 33.0855 29.9 32.571 29.9 31.9363V29.638C29.9 29.0033 30.4149 28.4888 31.05 28.4888C31.6851 28.4888 32.2 29.0033 32.2 29.638V30.7871H34.5ZM2.3 11.2512C2.3 11.8858 1.78513 12.4003 1.15 12.4003C0.514873 12.4003 0 11.8858 0 11.2512V6.65445C0 3.48109 2.57436 0.908569 5.75 0.908569H10.35C10.9851 0.908569 11.5 1.42307 11.5 2.05775C11.5 2.69242 10.9851 3.20692 10.35 3.20692H5.75C3.84462 3.20692 2.3 4.75043 2.3 6.65445V11.2512ZM35.65 3.20692C35.0149 3.20692 34.5 2.69242 34.5 2.05775C34.5 1.42307 35.0149 0.908569 35.65 0.908569H40.25C43.4256 0.908569 46 3.48109 46 6.65445V11.2512C46 11.8858 45.4851 12.4003 44.85 12.4003C44.2149 12.4003 43.7 11.8858 43.7 11.2512V6.65445C43.7 4.75043 42.1554 3.20692 40.25 3.20692H35.65ZM10.35 44.5773C10.9851 44.5773 11.5 45.0918 11.5 45.7264C11.5 46.3611 10.9851 46.8756 10.35 46.8756H5.75C2.57436 46.8756 0 44.3031 0 41.1297V36.533C0 35.8983 0.514873 35.3838 1.15 35.3838C1.78513 35.3838 2.3 35.8983 2.3 36.533V41.1297C2.3 43.0337 3.84462 44.5773 5.75 44.5773H10.35ZM43.7 36.533C43.7 35.8983 44.2149 35.3838 44.85 35.3838C45.4851 35.3838 46 35.8983 46 36.533V41.1297C46 44.3031 43.4256 46.8756 40.25 46.8756H35.65C35.0149 46.8756 34.5 46.3611 34.5 45.7264C34.5 45.0918 35.0149 44.5773 35.65 44.5773H40.25C42.1554 44.5773 43.7 43.0337 43.7 41.1297V36.533Z" fill="#0D2624"/>
</svg>
