<svg width="18" height="18" viewBox="0 0 18 18" fill="none" xmlns="http://www.w3.org/2000/svg">
<path fill-rule="evenodd" clip-rule="evenodd" d="M8.99998 17.4C13.6392 17.4 17.4 13.6392 17.4 8.99998C17.4 4.36078 13.6392 0.599976 8.99998 0.599976C4.36078 0.599976 0.599976 4.36078 0.599976 8.99998C0.599976 13.6392 4.36078 17.4 8.99998 17.4ZM12.8924 7.64244C13.3025 7.23239 13.3025 6.56756 12.8924 6.15751C12.4824 5.74746 11.8176 5.74746 11.4075 6.15751L7.94998 9.61505L6.59244 8.25751C6.18239 7.84746 5.51756 7.84746 5.10751 8.25751C4.69746 8.66756 4.69746 9.33239 5.10751 9.74244L7.20751 11.8424C7.61756 12.2525 8.28239 12.2525 8.69244 11.8424L12.8924 7.64244Z" fill="#22C55E"/>
</svg>
