<svg width="33" height="45" viewBox="0 0 33 45" fill="none" xmlns="http://www.w3.org/2000/svg">
<path d="M32.8217 13.1863C32.8217 9.41106 29.7617 6.35332 25.9838 6.35332C22.2059 6.35332 19.146 9.41106 19.146 13.1863C19.146 16.2953 21.223 18.9174 24.0607 19.7459C24.0094 21.121 23.7017 22.1801 23.1205 22.8976C21.8042 24.5375 18.9066 24.8108 15.8382 25.0927C13.4278 25.3147 10.932 25.5539 8.8892 26.5361V14.2368C11.6671 13.3656 13.6757 10.7777 13.6757 7.71991C13.6757 3.94471 10.6158 0.886963 6.83784 0.886963C3.05994 0.886963 0 3.94471 0 7.71991C0 10.7777 2.00862 13.3656 4.78649 14.2368V31.2594C2.00862 32.1391 0 34.7271 0 37.7849C0 41.5601 3.05994 44.6178 6.83784 44.6178C10.6158 44.6178 13.6757 41.5601 13.6757 37.7849C13.6757 34.8809 11.8637 32.3954 9.29947 31.4131C9.56444 30.969 9.96616 30.5761 10.573 30.2686C11.9577 29.5683 14.0261 29.3803 16.2228 29.1754C19.8298 28.8423 23.9154 28.4579 26.3257 25.4685C27.5223 23.9823 28.1292 22.0691 28.1719 19.669C30.8729 18.7466 32.8217 16.1928 32.8217 13.1863ZM6.83784 6.35332C7.59001 6.35332 8.20541 6.96828 8.20541 7.71991C8.20541 8.47153 7.59001 9.0865 6.83784 9.0865C6.08568 9.0865 5.47028 8.47153 5.47028 7.71991C5.47028 6.96828 6.08568 6.35332 6.83784 6.35332ZM6.83784 39.1515C6.08568 39.1515 5.47028 38.5365 5.47028 37.7849C5.47028 37.0332 6.08568 36.4183 6.83784 36.4183C7.59001 36.4183 8.20541 37.0332 8.20541 37.7849C8.20541 38.5365 7.59001 39.1515 6.83784 39.1515ZM25.9838 11.8197C26.736 11.8197 27.3514 12.4346 27.3514 13.1863C27.3514 13.9379 26.736 14.5529 25.9838 14.5529C25.2316 14.5529 24.6162 13.9379 24.6162 13.1863C24.6162 12.4346 25.2316 11.8197 25.9838 11.8197Z" fill="#0D2624"/>
</svg>
