<svg width="38" height="38" viewBox="0 0 38 38" fill="none" xmlns="http://www.w3.org/2000/svg">
<path d="M32.1117 0.321777H6.42275C3.38254 0.321777 0.917969 2.81466 0.917969 5.88978V31.8738C0.917969 34.9489 3.38254 37.4418 6.42275 37.4418H32.1117C35.1519 37.4418 37.6165 34.9489 37.6165 31.8738V5.88978C37.6165 2.81466 35.1519 0.321777 32.1117 0.321777Z" fill="#7289DA"/>
<path d="M25.7181 28.741L24.2129 26.9285C27.1517 26.131 28.2985 24.101 28.2985 24.101C24.5713 27.6535 14.3932 27.7985 10.451 24.101C10.451 24.101 11.4545 25.986 14.4649 26.9285L12.8163 28.741C7.79894 28.6685 5.86366 25.261 5.86366 25.261C5.86366 17.721 9.1608 11.7035 9.1608 11.7035C12.5296 9.31104 15.6117 9.31104 15.6117 9.31104L15.8267 9.60104C11.6695 10.761 9.87756 12.646 9.87756 12.646C14.7516 9.31104 24.7863 9.60104 28.7286 12.646C28.8002 12.5735 26.3632 10.616 22.5644 9.60104L22.9227 9.31104C22.9227 9.31104 26.0049 9.31104 29.3737 11.7035C29.3737 11.7035 32.6708 17.721 32.6708 25.261C32.6708 25.261 30.7355 28.6685 25.7181 28.741Z" fill="white"/>
<path d="M14.9667 23.0877C16.273 23.0877 17.332 21.9516 17.332 20.5502C17.332 19.1488 16.273 18.0127 14.9667 18.0127C13.6603 18.0127 12.6014 19.1488 12.6014 20.5502C12.6014 21.9516 13.6603 23.0877 14.9667 23.0877Z" fill="#7289DA"/>
<path d="M23.2811 23.0877C24.5874 23.0877 25.6464 21.9516 25.6464 20.5502C25.6464 19.1488 24.5874 18.0127 23.2811 18.0127C21.9748 18.0127 20.9158 19.1488 20.9158 20.5502C20.9158 21.9516 21.9748 23.0877 23.2811 23.0877Z" fill="#7289DA"/>
</svg>
