<svg width="38" height="38" viewBox="0 0 38 38" fill="none" xmlns="http://www.w3.org/2000/svg">
<path d="M31.5669 0.321777H5.87789C2.83768 0.321777 0.373108 2.81466 0.373108 5.88978V31.8738C0.373108 34.9489 2.83768 37.4418 5.87789 37.4418H31.5669C34.6071 37.4418 37.0716 34.9489 37.0716 31.8738V5.88978C37.0716 2.81466 34.6071 0.321777 31.5669 0.321777Z" fill="#25D366"/>
<path d="M9.18957 28.8204L10.193 24.1079C8.90328 22.0502 8.40014 19.5872 8.77802 17.181C9.1559 14.7748 10.3888 12.5908 12.2455 11.0386C14.1022 9.48652 16.4549 8.673 18.8624 8.7507C21.2699 8.8284 23.5666 9.792 25.3217 11.4607C27.0767 13.1294 28.1695 15.3885 28.3949 17.8142C28.6204 20.2399 27.963 22.6654 26.5462 24.6357C25.1294 26.606 23.0504 27.9857 20.6995 28.5159C18.3485 29.046 15.887 28.6903 13.7769 27.5154L9.18957 28.8204Z" fill="#25D366" stroke="white" stroke-width="1.69"/>
<path d="M22.4495 20.1121C22.2345 19.9671 22.0195 19.8946 21.8044 20.1846L20.9443 21.3446C20.7293 21.4896 20.5859 21.5621 20.2992 21.4171C19.2241 20.8371 17.7189 20.1846 16.4287 18.0096C16.357 17.7196 16.5003 17.5746 16.6437 17.4296L17.2888 16.4146C17.4321 16.2696 17.3605 16.1246 17.2888 15.9796L16.4287 13.8771C16.2136 13.2971 15.9986 13.3696 15.7836 13.3696H15.2102C15.0668 13.3696 14.7801 13.4421 14.4934 13.7321C12.9165 15.3271 13.5616 17.5746 14.7084 19.0246C14.9235 19.3146 16.357 21.9246 19.4391 23.3021C21.7328 24.3171 22.2345 24.1721 22.8796 24.0271C23.668 23.9546 24.4565 23.3021 24.8149 22.6496C24.8865 22.4321 25.2449 21.4896 24.9582 21.3446" fill="white"/>
</svg>
