<svg width="44" height="51" viewBox="0 0 44 51" fill="none" xmlns="http://www.w3.org/2000/svg">
<path d="M21.5733 3.38843C16.8631 3.38843 13.0443 7.20442 13.0443 11.9113C13.0443 12.0816 13.0619 12.2473 13.0718 12.4156C14.1674 12.4304 15.0513 13.3204 15.0513 14.4181V15.4208H28.0956V14.4181C28.0956 13.3206 28.9795 12.4304 30.0751 12.4156C30.0848 12.2471 30.1025 12.0816 30.1025 11.9113C30.1024 7.20442 26.2836 3.38843 21.5733 3.38843Z" fill="#E5E5E4"/>
<path d="M4.01367 27.4535H39.1332V49.5127H4.01367V27.4535Z" fill="#FFDA88"/>
<path d="M18.9165 3.81543L14.0479 1.38306V7.90266C15.0747 5.98223 16.8155 4.50367 18.9165 3.81543Z" fill="#FFDA88"/>
<path d="M29.099 7.90248V1.38306L24.2302 3.81543C26.3312 4.50367 28.072 5.98223 29.099 7.90248Z" fill="#FFDA88"/>
<path d="M42.1433 27.454H1.00336L5.01702 15.4216H38.1297L42.1433 27.454Z" fill="#FFC67B"/>
<path d="M5.01702 15.4216L1.00336 27.454H4.01365L8.02731 15.4216H5.01702Z" fill="#FFD39F"/>
<path d="M26.0887 12.4123C26.0887 12.9665 25.6394 13.4149 25.0853 13.4149C24.5313 13.4149 24.082 12.9665 24.082 12.4123V11.4096C24.082 10.8555 24.5313 10.407 25.0853 10.407C25.6394 10.407 26.0887 10.8555 26.0887 11.4096V12.4123Z" fill="#7FD3B9"/>
<path d="M19.0648 12.4123C19.0648 12.9665 18.6154 13.4149 18.0614 13.4149C17.5074 13.4149 17.058 12.9665 17.058 12.4123V11.4096C17.058 10.8555 17.5074 10.407 18.0614 10.407C18.6154 10.407 19.0648 10.8555 19.0648 11.4096V12.4123Z" fill="#7FD3B9"/>
<path d="M15.0511 15.4218V14.4192C15.0511 13.3117 14.1526 12.4137 13.0442 12.4137C11.9359 12.4137 11.0373 13.3115 11.0373 14.4192V15.4218H15.0511Z" fill="#E5E5E4"/>
<path d="M18.0614 12.4123V11.4096C18.0614 11.0424 18.2686 10.7349 18.5631 10.5606C18.4132 10.4715 18.2479 10.407 18.0614 10.407C17.5074 10.407 17.058 10.8555 17.058 11.4096V12.4123C17.058 12.9665 17.5074 13.4149 18.0614 13.4149C18.2481 13.4149 18.4132 13.3502 18.5631 13.2613C18.2686 13.087 18.0614 12.7795 18.0614 12.4123Z" fill="#BBEAD9"/>
<path d="M25.0853 12.4123V11.4096C25.0853 11.0424 25.2925 10.7349 25.587 10.5606C25.4371 10.4715 25.272 10.407 25.0853 10.407C24.5313 10.407 24.082 10.8555 24.082 11.4096V12.4123C24.082 12.9665 24.5313 13.4149 25.0853 13.4149C25.272 13.4149 25.4371 13.3502 25.587 13.2613C25.2925 13.087 25.0853 12.7795 25.0853 12.4123Z" fill="#BBEAD9"/>
<path d="M14.0477 12.6917C13.7514 12.5194 13.4117 12.4137 13.0443 12.4137C11.9361 12.4137 11.0374 13.3115 11.0374 14.4192V15.4218H13.0443V14.4192C13.0443 13.6786 13.4505 13.0392 14.0477 12.6917Z" fill="#EFEFEF"/>
<path d="M32.1093 15.4218V14.4192C32.1093 13.3117 31.2108 12.4137 30.1024 12.4137C28.994 12.4137 28.0956 13.3115 28.0956 14.4192V15.4218H32.1093Z" fill="#E5E5E4"/>
<path d="M23.831 39.4855C23.6399 38.2919 22.8216 37.4802 21.5733 37.4802C20.3249 37.4802 19.5067 38.2919 19.3157 39.4855C18.3112 39.4855 17.8106 40.2835 17.8106 41.0318C17.8106 41.8376 18.466 42.4937 19.2747 42.4937H23.8724C24.6808 42.4937 25.3364 41.8376 25.3364 41.0318C25.3361 40.2835 24.8355 39.4855 23.831 39.4855Z" fill="#7FD3B9"/>
<path d="M18.814 41.0319C18.814 40.2839 19.3147 39.4857 20.319 39.4857C20.4832 38.4615 21.1117 37.7222 22.075 37.5322C21.9158 37.5007 21.7501 37.4802 21.5733 37.4802C20.3249 37.4802 19.5067 38.2919 19.3157 39.4855C18.3112 39.4855 17.8106 40.2835 17.8106 41.0317C17.8106 41.8376 18.466 42.4937 19.2747 42.4937H20.278C19.4694 42.4938 18.814 41.8378 18.814 41.0319Z" fill="#BBEAD9"/>
<path d="M26.0887 36.9788C26.0887 37.8092 25.6399 38.4828 25.0853 38.4828C24.5308 38.4828 24.082 37.809 24.082 36.9788C24.082 36.1485 24.5308 35.4749 25.0853 35.4749C25.6399 35.4749 26.0887 36.1487 26.0887 36.9788Z" fill="#7FD3B9"/>
<path d="M19.0648 36.9788C19.0648 37.8092 18.616 38.4828 18.0614 38.4828C17.5068 38.4828 17.058 37.809 17.058 36.9788C17.058 36.1485 17.5068 35.4749 18.0614 35.4749C18.616 35.4749 19.0648 36.1487 19.0648 36.9788Z" fill="#7FD3B9"/>
<path d="M21.0717 34.9735C21.0717 35.8038 20.6229 36.4774 20.0683 36.4774C19.5137 36.4774 19.0649 35.8036 19.0649 34.9735C19.0649 34.1431 19.5137 33.4695 20.0683 33.4695C20.6229 33.4695 21.0717 34.1431 21.0717 34.9735Z" fill="#7FD3B9"/>
<path d="M24.082 34.9735C24.082 35.8038 23.6332 36.4774 23.0786 36.4774C22.524 36.4774 22.0752 35.8036 22.0752 34.9735C22.0752 34.1431 22.524 33.4695 23.0786 33.4695C23.633 33.4695 24.082 34.1431 24.082 34.9735Z" fill="#7FD3B9"/>
<path d="M4.01367 27.4535H6.02059V49.5127H4.01367V27.4535Z" fill="#FFE2A9"/>
<path d="M31.1058 12.6917C30.8094 12.5194 30.4697 12.4137 30.1024 12.4137C28.9941 12.4137 28.0956 13.3115 28.0956 14.4192V15.4218H30.1024V14.4192C30.1024 13.6786 30.5085 13.0392 31.1058 12.6917Z" fill="#EFEFEF"/>
<path d="M15.0511 14.4182V15.4208H15.8154C15.3293 14.3496 15.0511 13.1335 15.0511 11.8801C15.0511 7.51282 18.3392 4.3911 22.5756 3.38845C22.5742 3.38845 22.5732 3.38845 22.5721 3.38845C22.244 3.38845 21.9118 3.35718 21.5732 3.35718C17.4517 3.35718 14.0128 6.29471 13.2177 10.1782C13.104 10.7324 13.0442 11.3151 13.0442 11.9035C13.0442 12.0738 13.0617 12.2433 13.0716 12.4116C14.1672 12.4266 15.0511 13.3206 15.0511 14.4182Z" fill="#EFEFEF"/>
<path d="M18.0614 36.9788C18.0614 36.4236 18.2642 35.9438 18.5631 35.6834C18.415 35.554 18.2451 35.4749 18.0614 35.4749C17.5068 35.4749 17.058 36.1487 17.058 36.9788C17.058 37.8092 17.5068 38.4828 18.0614 38.4828C18.2451 38.4828 18.4152 38.4034 18.5631 38.2743C18.2642 38.0139 18.0614 37.5341 18.0614 36.9788Z" fill="#BBEAD9"/>
<path d="M25.0853 36.9788C25.0853 36.4236 25.2881 35.9438 25.587 35.6834C25.439 35.554 25.2691 35.4749 25.0853 35.4749C24.5308 35.4749 24.082 36.1487 24.082 36.9788C24.082 37.8092 24.5308 38.4828 25.0853 38.4828C25.2691 38.4828 25.439 38.4034 25.587 38.2743C25.2881 38.0139 25.0853 37.5341 25.0853 36.9788Z" fill="#BBEAD9"/>
<path d="M23.0784 34.9735C23.0784 34.4184 23.2812 33.9384 23.5801 33.678C23.432 33.5487 23.2622 33.4695 23.0784 33.4695C22.5238 33.4695 22.075 34.1433 22.075 34.9735C22.075 35.8038 22.5238 36.4774 23.0784 36.4774C23.2622 36.4774 23.4322 36.3981 23.5801 36.2689C23.2812 36.0085 23.0784 35.5287 23.0784 34.9735Z" fill="#BBEAD9"/>
<path d="M20.0683 34.9735C20.0683 34.4184 20.2711 33.9384 20.57 33.678C20.4219 33.5487 20.2521 33.4695 20.0683 33.4695C19.5137 33.4695 19.0649 34.1433 19.0649 34.9735C19.0649 35.8038 19.5137 36.4774 20.0683 36.4774C20.2521 36.4774 20.4219 36.3981 20.57 36.2689C20.2711 36.0085 20.0683 35.5287 20.0683 34.9735Z" fill="#BBEAD9"/>
<path d="M14.0477 8.90539C13.9668 8.90539 13.885 8.89551 13.8037 8.87502C13.3573 8.76346 13.0443 8.36291 13.0443 7.90273V1.38331C13.0443 1.0358 13.2241 0.713537 13.52 0.530456C13.8165 0.346277 14.1853 0.331645 14.4965 0.486377L19.3651 2.91875C19.7286 3.10091 19.9468 3.48372 19.9167 3.88921C19.8873 4.29451 19.6155 4.6422 19.2289 4.76858C17.3779 5.37471 15.8522 6.65646 14.9325 8.37589C14.7553 8.70767 14.4112 8.90539 14.0477 8.90539ZM15.0511 3.00581V4.9641C15.5264 4.51765 16.0471 4.12204 16.6057 3.78221L15.0511 3.00581Z" fill="#161616"/>
<path d="M29.099 8.90557C28.7349 8.90557 28.3916 8.70785 28.214 8.37589C27.2943 6.65646 25.7688 5.37471 23.9178 4.76858C23.5312 4.6422 23.2592 4.29469 23.23 3.88921C23.2001 3.4839 23.4181 3.10091 23.7816 2.91875L28.6502 0.486377C28.9613 0.331645 29.3302 0.346277 29.6267 0.530456C29.9226 0.713537 30.1024 1.0358 30.1024 1.38331V7.90273C30.1024 8.36291 29.7894 8.76346 29.343 8.87502C29.2617 8.89587 29.1799 8.90557 29.099 8.90557ZM26.541 3.78239C27.0996 4.12222 27.6203 4.51783 28.0956 4.96428V3.00599L26.541 3.78239Z" fill="#161616"/>
<path d="M26.0887 12.4123C26.0887 12.9665 25.6394 13.4149 25.0853 13.4149C24.5313 13.4149 24.082 12.9665 24.082 12.4123V11.4096C24.082 10.8555 24.5313 10.407 25.0853 10.407C25.6394 10.407 26.0887 10.8555 26.0887 11.4096V12.4123Z" fill="#161616"/>
<path d="M19.0648 12.4123C19.0648 12.9665 18.6154 13.4149 18.0614 13.4149C17.5074 13.4149 17.058 12.9665 17.058 12.4123V11.4096C17.058 10.8555 17.5074 10.407 18.0614 10.407C18.6154 10.407 19.0648 10.8555 19.0648 11.4096V12.4123Z" fill="#161616"/>
<path d="M15.0511 16.4244H11.0374C10.4834 16.4244 10.0341 15.976 10.0341 15.4218V14.4191C10.0341 12.7604 11.3843 11.411 13.0443 11.411C14.7044 11.411 16.0546 12.7604 16.0546 14.4191V15.4218C16.0546 15.976 15.6053 16.4244 15.0511 16.4244ZM12.041 14.4191H14.0479C14.0479 13.8659 13.5976 13.4165 13.0445 13.4165C12.4914 13.4165 12.041 13.8659 12.041 14.4191Z" fill="#161616"/>
<path d="M32.1093 16.4244H28.0956C27.5416 16.4244 27.0923 15.976 27.0923 15.4218V14.4191C27.0923 12.7604 28.4426 11.411 30.1025 11.411C31.7624 11.411 33.1128 12.7604 33.1128 14.4191V15.4218C33.1127 15.976 32.6633 16.4244 32.1093 16.4244ZM29.099 14.4191H31.1057C31.1057 13.8659 30.6555 13.4165 30.1024 13.4165C29.5492 13.4165 29.099 13.8659 29.099 14.4191Z" fill="#161616"/>
<path d="M28.0956 16.4247H15.0512C14.497 16.4247 14.0479 15.9763 14.0479 15.4221V14.4194C14.0479 13.8749 13.604 13.4265 13.0586 13.4197C12.5318 13.4128 12.1008 13.0007 12.0699 12.4749L12.0605 12.3348C12.0503 12.1947 12.041 12.0547 12.041 11.9126C12.041 6.66015 16.3173 2.38708 21.5733 2.38708C26.8296 2.38708 31.1057 6.66033 31.1057 11.9126C31.1057 12.0546 31.0964 12.1947 31.0861 12.3348L31.0768 12.4749C31.0459 13.0007 30.6148 13.4129 30.0881 13.4197C29.5428 13.4265 29.0988 13.8749 29.0988 14.4194V15.4221C29.099 15.9763 28.6496 16.4247 28.0956 16.4247ZM16.0546 14.4194H27.0922C27.0922 13.1231 27.9296 12.0077 29.0922 11.5896C28.922 7.59256 25.6144 4.39239 21.5733 4.39239C17.5322 4.39239 14.2245 7.59238 14.0546 11.5894C15.2173 12.0077 16.0546 13.1231 16.0546 14.4194Z" fill="#161616"/>
<path d="M23.831 39.4855C23.6399 38.2919 22.8216 37.4802 21.5733 37.4802C20.3249 37.4802 19.5067 38.2919 19.3157 39.4855C18.3112 39.4855 17.8106 40.2835 17.8106 41.0318C17.8106 41.8376 18.466 42.4937 19.2747 42.4937H23.8724C24.6808 42.4937 25.3364 41.8376 25.3364 41.0318C25.3361 40.2835 24.8355 39.4855 23.831 39.4855Z" fill="#161616"/>
<path d="M26.0887 36.9788C26.0887 37.8092 25.6399 38.4828 25.0853 38.4828C24.5308 38.4828 24.082 37.809 24.082 36.9788C24.082 36.1485 24.5308 35.4749 25.0853 35.4749C25.6399 35.4749 26.0887 36.1487 26.0887 36.9788Z" fill="#161616"/>
<path d="M19.0648 36.9788C19.0648 37.8092 18.616 38.4828 18.0614 38.4828C17.5068 38.4828 17.058 37.809 17.058 36.9788C17.058 36.1485 17.5068 35.4749 18.0614 35.4749C18.616 35.4749 19.0648 36.1487 19.0648 36.9788Z" fill="#161616"/>
<path d="M21.0717 34.9735C21.0717 35.8038 20.6229 36.4774 20.0683 36.4774C19.5137 36.4774 19.0649 35.8036 19.0649 34.9735C19.0649 34.1431 19.5137 33.4695 20.0683 33.4695C20.6229 33.4695 21.0717 34.1431 21.0717 34.9735Z" fill="#161616"/>
<path d="M24.082 34.9735C24.082 35.8038 23.6332 36.4774 23.0786 36.4774C22.524 36.4774 22.0752 35.8036 22.0752 34.9735C22.0752 34.1431 22.524 33.4695 23.0786 33.4695C23.633 33.4695 24.082 34.1431 24.082 34.9735Z" fill="#161616"/>
<path d="M39.133 50.5156H11.0374C10.4834 50.5156 10.0341 50.0672 10.0341 49.513C10.0341 48.9588 10.4834 48.5103 11.0374 48.5103H38.1297V28.4562H5.01702V48.5101H7.02395C7.57816 48.5101 8.02731 48.9586 8.02731 49.5128C8.02731 50.067 7.57798 50.5154 7.02395 50.5154H4.01365C3.45944 50.5154 3.01028 50.067 3.01028 49.5128V27.4536C3.01028 26.8994 3.45962 26.4509 4.01365 26.4509H39.1332C39.6874 26.4509 40.1366 26.8994 40.1366 27.4536V49.5128C40.1366 50.0672 39.6873 50.5156 39.133 50.5156Z" fill="#161616"/>
<path d="M42.1433 28.4567H1.00337C0.681051 28.4567 0.378137 28.302 0.189617 28.0406C0.000912901 27.7791 -0.0505187 27.4424 0.0514289 27.1369L4.06509 15.1046C4.20181 14.6952 4.58489 14.4191 5.01703 14.4191H38.1297C38.5613 14.4191 38.9449 14.6952 39.0816 15.1046L40.5711 19.5688C40.7465 20.0946 40.4624 20.6625 39.9366 20.8368C39.4089 21.014 38.842 20.7282 38.6671 20.2032L37.4063 16.4246H5.74018L2.39531 26.4514H40.7509L39.938 24.0152C39.7627 23.4894 40.0467 22.9215 40.5726 22.7472C41.0997 22.5709 41.6665 22.8558 41.8421 23.3807L43.0953 27.1369C43.1972 27.4424 43.1458 27.7793 42.9571 28.0406C42.7689 28.302 42.4657 28.4567 42.1433 28.4567Z" fill="#161616"/>
</svg>
