<?xml version="1.0" encoding="UTF-8" standalone="no"?>
<!DOCTYPE svg PUBLIC "-//W3C//DTD SVG 1.1//EN" "http://www.w3.org/Graphics/SVG/1.1/DTD/svg11.dtd">
<svg xmlns="http://www.w3.org/2000/svg" version="1.1" viewBox="0.00 0.00 256.00 256.00">
<g strokeWidth="2.00" fill="none">
<path stroke="#0f71ad" vector-effect="non-scaling-stroke" d="
  M 209.79 78.16
  C 165.04 46.84 93.61 46.00 48.26 76.72
  A 0.46 0.46 0.0 0 0 48.36 77.53
  Q 61.75 82.28 75.51 85.45
  Q 82.87 87.15 85.26 86.57
  C 91.71 84.98 98.59 82.84 105.19 82.49
  A 1.55 1.54 -64.8 0 0 106.07 82.17
  C 123.19 69.33 139.96 71.82 158.60 79.67
  Q 184.52 90.59 209.74 78.66
  Q 210.20 78.45 209.79 78.16"
/>
<path stroke="#8f96b6" vector-effect="non-scaling-stroke" d="
  M 214.68 82.25
  A 0.83 0.82 51.9 0 0 213.82 82.14
  C 197.74 89.47 180.78 91.79 163.68 86.45
  Q 163.65 86.44 152.63 81.92
  C 135.96 75.08 118.32 75.82 105.13 89.40
  Q 96.35 98.43 92.37 102.91
  A 0.59 0.58 -54.0 0 0 92.51 103.81
  C 99.36 107.71 104.60 105.85 110.92 101.20
  C 125.02 90.82 132.21 83.22 148.70 96.97
  Q 168.46 113.43 187.77 130.40
  Q 188.19 130.77 188.72 130.55
  Q 211.19 120.95 235.03 115.55
  A 0.71 0.70 -13.4 0 0 235.56 114.70
  Q 230.55 94.97 214.68 82.25"
/>
<path stroke="#8f96b6" vector-effect="non-scaling-stroke" d="
  M 158.42 129.14
  C 161.22 128.10 174.92 144.72 179.96 145.64
  C 185.52 146.66 191.66 140.20 186.67 135.58
  Q 175.89 125.63 146.26 101.00
  C 138.43 94.50 132.50 91.57 124.01 97.55
  C 113.56 104.91 105.02 114.58 91.58 108.20
  C 85.27 105.20 87.78 100.91 91.39 97.11
  Q 95.60 92.68 99.49 88.32
  A 0.48 0.47 9.4 0 0 98.95 87.57
  C 88.85 91.74 80.67 91.61 69.50 88.81
  Q 56.51 85.55 44.03 80.65
  Q 43.53 80.45 43.09 80.78
  Q 26.46 93.46 20.72 113.59
  Q 20.56 114.16 21.12 114.32
  C 37.92 119.19 53.24 122.18 68.76 130.87
  Q 69.19 131.11 69.60 130.83
  Q 77.70 125.19 84.91 131.68
  Q 85.32 132.05 85.80 131.80
  C 91.05 129.14 99.96 129.27 102.98 135.49
  A 0.66 0.66 0.0 0 0 103.67 135.85
  Q 118.48 133.69 119.63 148.24
  Q 119.67 148.71 120.15 148.74
  C 129.36 149.21 134.87 157.88 131.81 166.50
  Q 131.63 166.99 132.08 167.24
  C 135.86 169.39 141.52 170.80 145.24 167.71
  A 0.52 0.52 0.0 0 0 145.30 166.96
  L 135.83 156.42
  Q 135.37 155.90 135.78 155.35
  L 136.30 154.65
  A 1.16 1.15 -52.0 0 1 137.97 154.44
  C 141.05 156.96 148.44 165.21 151.70 165.70
  C 155.36 166.24 161.95 162.53 158.10 158.13
  Q 152.79 152.06 147.21 145.67
  A 1.29 1.29 0.0 0 1 148.48 143.56
  C 154.21 144.90 158.80 155.40 164.83 156.95
  C 168.97 158.02 175.36 154.34 174.25 149.50
  C 173.36 145.59 161.30 135.17 157.85 131.66
  A 1.54 1.53 -32.3 0 1 158.42 129.14"
/>
<path stroke="#0f71ad" vector-effect="non-scaling-stroke" d="
  M 165.12 161.57
  Q 165.00 161.51 164.88 161.49
  Q 164.46 161.40 164.29 161.79
  Q 160.20 171.13 150.07 169.83
  Q 149.57 169.76 149.22 170.13
  C 143.86 175.76 135.96 174.48 129.71 171.21
  Q 129.32 171.01 128.95 171.26
  Q 116.31 179.75 107.76 167.42
  Q 107.48 167.01 106.99 167.07
  Q 98.13 168.09 93.51 160.72
  Q 93.24 160.29 92.73 160.30
  Q 82.28 160.62 78.73 150.84
  Q 78.53 150.30 77.96 150.26
  Q 77.06 150.20 76.12 150.29
  Q 75.62 150.33 75.13 150.20
  Q 63.99 147.32 66.20 135.56
  A 1.18 1.17 19.7 0 0 65.60 134.31
  C 51.36 126.81 36.37 122.91 20.78 119.51
  Q 19.81 119.30 19.76 120.29
  C 17.93 159.17 59.13 181.63 91.17 188.83
  C 131.50 197.90 181.86 192.84 214.69 165.25
  C 227.84 154.20 236.91 138.91 236.26 121.33
  A 0.81 0.80 -7.7 0 0 235.27 120.58
  Q 213.12 125.75 191.97 134.10
  Q 191.47 134.29 191.67 134.79
  C 195.39 143.72 188.78 150.91 179.84 150.20
  A 0.61 0.61 0.0 0 0 179.19 150.68
  Q 176.82 161.47 165.62 161.68
  Q 165.36 161.69 165.12 161.57"
/>
<path stroke="#8f96b6" vector-effect="non-scaling-stroke" d="
  M 83.65 139.74
  C 82.93 134.14 77.41 129.84 72.54 134.08
  C 65.44 140.26 75.02 150.44 81.53 143.86
  A 0.76 0.76 0.0 0 1 82.83 144.49
  Q 81.60 154.32 91.01 156.15
  A 1.70 1.68 37.3 0 0 92.08 156.01
  L 95.77 154.27
  A 0.93 0.92 -6.7 0 1 97.07 155.29
  C 95.74 161.77 104.91 165.14 109.33 160.56
  A 0.89 0.89 0.0 0 1 110.85 161.09
  Q 111.65 168.73 117.91 170.02
  C 127.70 172.05 132.45 159.07 123.60 154.18
  Q 119.70 152.03 115.49 154.10
  A 1.01 1.01 0.0 0 1 114.07 152.93
  C 115.83 146.40 115.46 139.39 106.54 139.83
  C 104.71 139.92 103.24 141.14 101.79 142.14
  A 0.81 0.80 -19.1 0 1 100.53 141.53
  C 99.90 131.65 88.28 133.22 84.25 139.87
  Q 83.77 140.66 83.65 139.74"
/>
</g>
<path fill="#1e2d6d" d="
  M 177.67 57.60
  C 209.92 67.48 242.09 91.35 240.66 129.03
  C 239.36 163.47 213.29 186.87 182.24 197.50
  C 154.93 206.84 124.12 208.20 95.10 203.08
  C 57.83 196.52 15.88 171.93 15.51 128.78
  C 15.48 124.69 15.26 120.28 15.94 116.42
  C 21.19 86.78 48.15 67.93 74.82 58.97
  Q 126.00 41.78 177.67 57.60
  Z
  M 209.79 78.16
  C 165.04 46.84 93.61 46.00 48.26 76.72
  A 0.46 0.46 0.0 0 0 48.36 77.53
  Q 61.75 82.28 75.51 85.45
  Q 82.87 87.15 85.26 86.57
  C 91.71 84.98 98.59 82.84 105.19 82.49
  A 1.55 1.54 -64.8 0 0 106.07 82.17
  C 123.19 69.33 139.96 71.82 158.60 79.67
  Q 184.52 90.59 209.74 78.66
  Q 210.20 78.45 209.79 78.16
  Z
  M 214.68 82.25
  A 0.83 0.82 51.9 0 0 213.82 82.14
  C 197.74 89.47 180.78 91.79 163.68 86.45
  Q 163.65 86.44 152.63 81.92
  C 135.96 75.08 118.32 75.82 105.13 89.40
  Q 96.35 98.43 92.37 102.91
  A 0.59 0.58 -54.0 0 0 92.51 103.81
  C 99.36 107.71 104.60 105.85 110.92 101.20
  C 125.02 90.82 132.21 83.22 148.70 96.97
  Q 168.46 113.43 187.77 130.40
  Q 188.19 130.77 188.72 130.55
  Q 211.19 120.95 235.03 115.55
  A 0.71 0.70 -13.4 0 0 235.56 114.70
  Q 230.55 94.97 214.68 82.25
  Z
  M 158.42 129.14
  C 161.22 128.10 174.92 144.72 179.96 145.64
  C 185.52 146.66 191.66 140.20 186.67 135.58
  Q 175.89 125.63 146.26 101.00
  C 138.43 94.50 132.50 91.57 124.01 97.55
  C 113.56 104.91 105.02 114.58 91.58 108.20
  C 85.27 105.20 87.78 100.91 91.39 97.11
  Q 95.60 92.68 99.49 88.32
  A 0.48 0.47 9.4 0 0 98.95 87.57
  C 88.85 91.74 80.67 91.61 69.50 88.81
  Q 56.51 85.55 44.03 80.65
  Q 43.53 80.45 43.09 80.78
  Q 26.46 93.46 20.72 113.59
  Q 20.56 114.16 21.12 114.32
  C 37.92 119.19 53.24 122.18 68.76 130.87
  Q 69.19 131.11 69.60 130.83
  Q 77.70 125.19 84.91 131.68
  Q 85.32 132.05 85.80 131.80
  C 91.05 129.14 99.96 129.27 102.98 135.49
  A 0.66 0.66 0.0 0 0 103.67 135.85
  Q 118.48 133.69 119.63 148.24
  Q 119.67 148.71 120.15 148.74
  C 129.36 149.21 134.87 157.88 131.81 166.50
  Q 131.63 166.99 132.08 167.24
  C 135.86 169.39 141.52 170.80 145.24 167.71
  A 0.52 0.52 0.0 0 0 145.30 166.96
  L 135.83 156.42
  Q 135.37 155.90 135.78 155.35
  L 136.30 154.65
  A 1.16 1.15 -52.0 0 1 137.97 154.44
  C 141.05 156.96 148.44 165.21 151.70 165.70
  C 155.36 166.24 161.95 162.53 158.10 158.13
  Q 152.79 152.06 147.21 145.67
  A 1.29 1.29 0.0 0 1 148.48 143.56
  C 154.21 144.90 158.80 155.40 164.83 156.95
  C 168.97 158.02 175.36 154.34 174.25 149.50
  C 173.36 145.59 161.30 135.17 157.85 131.66
  A 1.54 1.53 -32.3 0 1 158.42 129.14
  Z
  M 165.12 161.57
  Q 165.00 161.51 164.88 161.49
  Q 164.46 161.40 164.29 161.79
  Q 160.20 171.13 150.07 169.83
  Q 149.57 169.76 149.22 170.13
  C 143.86 175.76 135.96 174.48 129.71 171.21
  Q 129.32 171.01 128.95 171.26
  Q 116.31 179.75 107.76 167.42
  Q 107.48 167.01 106.99 167.07
  Q 98.13 168.09 93.51 160.72
  Q 93.24 160.29 92.73 160.30
  Q 82.28 160.62 78.73 150.84
  Q 78.53 150.30 77.96 150.26
  Q 77.06 150.20 76.12 150.29
  Q 75.62 150.33 75.13 150.20
  Q 63.99 147.32 66.20 135.56
  A 1.18 1.17 19.7 0 0 65.60 134.31
  C 51.36 126.81 36.37 122.91 20.78 119.51
  Q 19.81 119.30 19.76 120.29
  C 17.93 159.17 59.13 181.63 91.17 188.83
  C 131.50 197.90 181.86 192.84 214.69 165.25
  C 227.84 154.20 236.91 138.91 236.26 121.33
  A 0.81 0.80 -7.7 0 0 235.27 120.58
  Q 213.12 125.75 191.97 134.10
  Q 191.47 134.29 191.67 134.79
  C 195.39 143.72 188.78 150.91 179.84 150.20
  A 0.61 0.61 0.0 0 0 179.19 150.68
  Q 176.82 161.47 165.62 161.68
  Q 165.36 161.69 165.12 161.57
  Z
  M 83.65 139.74
  C 82.93 134.14 77.41 129.84 72.54 134.08
  C 65.44 140.26 75.02 150.44 81.53 143.86
  A 0.76 0.76 0.0 0 1 82.83 144.49
  Q 81.60 154.32 91.01 156.15
  A 1.70 1.68 37.3 0 0 92.08 156.01
  L 95.77 154.27
  A 0.93 0.92 -6.7 0 1 97.07 155.29
  C 95.74 161.77 104.91 165.14 109.33 160.56
  A 0.89 0.89 0.0 0 1 110.85 161.09
  Q 111.65 168.73 117.91 170.02
  C 127.70 172.05 132.45 159.07 123.60 154.18
  Q 119.70 152.03 115.49 154.10
  A 1.01 1.01 0.0 0 1 114.07 152.93
  C 115.83 146.40 115.46 139.39 106.54 139.83
  C 104.71 139.92 103.24 141.14 101.79 142.14
  A 0.81 0.80 -19.1 0 1 100.53 141.53
  C 99.90 131.65 88.28 133.22 84.25 139.87
  Q 83.77 140.66 83.65 139.74
  Z"
/>
<path fill="#00b5ec" d="
  M 209.79 78.16
  Q 210.20 78.45 209.74 78.66
  Q 184.52 90.59 158.60 79.67
  C 139.96 71.82 123.19 69.33 106.07 82.17
  A 1.55 1.54 -64.8 0 1 105.19 82.49
  C 98.59 82.84 91.71 84.98 85.26 86.57
  Q 82.87 87.15 75.51 85.45
  Q 61.75 82.28 48.36 77.53
  A 0.46 0.46 0.0 0 1 48.26 76.72
  C 93.61 46.00 165.04 46.84 209.79 78.16
  Z"
/>
<path fill="#ffffff" d="
  M 214.68 82.25
  Q 230.55 94.97 235.56 114.70
  A 0.71 0.70 -13.4 0 1 235.03 115.55
  Q 211.19 120.95 188.72 130.55
  Q 188.19 130.77 187.77 130.40
  Q 168.46 113.43 148.70 96.97
  C 132.21 83.22 125.02 90.82 110.92 101.20
  C 104.60 105.85 99.36 107.71 92.51 103.81
  A 0.59 0.58 -54.0 0 1 92.37 102.91
  Q 96.35 98.43 105.13 89.40
  C 118.32 75.82 135.96 75.08 152.63 81.92
  Q 163.65 86.44 163.68 86.45
  C 180.78 91.79 197.74 89.47 213.82 82.14
  A 0.83 0.82 51.9 0 1 214.68 82.25
  Z"
/>
<path fill="#ffffff" d="
  M 158.42 129.14
  A 1.54 1.53 -32.3 0 0 157.85 131.66
  C 161.30 135.17 173.36 145.59 174.25 149.50
  C 175.36 154.34 168.97 158.02 164.83 156.95
  C 158.80 155.40 154.21 144.90 148.48 143.56
  A 1.29 1.29 0.0 0 0 147.21 145.67
  Q 152.79 152.06 158.10 158.13
  C 161.95 162.53 155.36 166.24 151.70 165.70
  C 148.44 165.21 141.05 156.96 137.97 154.44
  A 1.16 1.15 -52.0 0 0 136.30 154.65
  L 135.78 155.35
  Q 135.37 155.90 135.83 156.42
  L 145.30 166.96
  A 0.52 0.52 0.0 0 1 145.24 167.71
  C 141.52 170.80 135.86 169.39 132.08 167.24
  Q 131.63 166.99 131.81 166.50
  C 134.87 157.88 129.36 149.21 120.15 148.74
  Q 119.67 148.71 119.63 148.24
  Q 118.48 133.69 103.67 135.85
  A 0.66 0.66 0.0 0 1 102.98 135.49
  C 99.96 129.27 91.05 129.14 85.80 131.80
  Q 85.32 132.05 84.91 131.68
  Q 77.70 125.19 69.60 130.83
  Q 69.19 131.11 68.76 130.87
  C 53.24 122.18 37.92 119.19 21.12 114.32
  Q 20.56 114.16 20.72 113.59
  Q 26.46 93.46 43.09 80.78
  Q 43.53 80.45 44.03 80.65
  Q 56.51 85.55 69.50 88.81
  C 80.67 91.61 88.85 91.74 98.95 87.57
  A 0.48 0.47 9.4 0 1 99.49 88.32
  Q 95.60 92.68 91.39 97.11
  C 87.78 100.91 85.27 105.20 91.58 108.20
  C 105.02 114.58 113.56 104.91 124.01 97.55
  C 132.50 91.57 138.43 94.50 146.26 101.00
  Q 175.89 125.63 186.67 135.58
  C 191.66 140.20 185.52 146.66 179.96 145.64
  C 174.92 144.72 161.22 128.10 158.42 129.14
  Z"
/>
<path fill="#00b5ec" d="
  M 165.62 161.68
  Q 176.82 161.47 179.19 150.68
  A 0.61 0.61 0.0 0 1 179.84 150.20
  C 188.78 150.91 195.39 143.72 191.67 134.79
  Q 191.47 134.29 191.97 134.10
  Q 213.12 125.75 235.27 120.58
  A 0.81 0.80 -7.7 0 1 236.26 121.33
  C 236.91 138.91 227.84 154.20 214.69 165.25
  C 181.86 192.84 131.50 197.90 91.17 188.83
  C 59.13 181.63 17.93 159.17 19.76 120.29
  Q 19.81 119.30 20.78 119.51
  C 36.37 122.91 51.36 126.81 65.60 134.31
  A 1.18 1.17 19.7 0 1 66.20 135.56
  Q 63.99 147.32 75.13 150.20
  Q 75.62 150.33 76.12 150.29
  Q 77.06 150.20 77.96 150.26
  Q 78.53 150.30 78.73 150.84
  Q 82.28 160.62 92.73 160.30
  Q 93.24 160.29 93.51 160.72
  Q 98.13 168.09 106.99 167.07
  Q 107.48 167.01 107.76 167.42
  Q 116.31 179.75 128.95 171.26
  Q 129.32 171.01 129.71 171.21
  C 135.96 174.48 143.86 175.76 149.22 170.13
  Q 149.57 169.76 150.07 169.83
  Q 160.20 171.13 164.29 161.79
  Q 164.46 161.40 164.88 161.49
  Q 165.00 161.51 165.12 161.57
  Q 165.36 161.69 165.62 161.68
  Z"
/>
<path fill="#ffffff" d="
  M 84.25 139.87
  C 88.28 133.22 99.90 131.65 100.53 141.53
  A 0.81 0.80 -19.1 0 0 101.79 142.14
  C 103.24 141.14 104.71 139.92 106.54 139.83
  C 115.46 139.39 115.83 146.40 114.07 152.93
  A 1.01 1.01 0.0 0 0 115.49 154.10
  Q 119.70 152.03 123.60 154.18
  C 132.45 159.07 127.70 172.05 117.91 170.02
  Q 111.65 168.73 110.85 161.09
  A 0.89 0.89 0.0 0 0 109.33 160.56
  C 104.91 165.14 95.74 161.77 97.07 155.29
  A 0.93 0.92 -6.7 0 0 95.77 154.27
  L 92.08 156.01
  A 1.70 1.68 37.3 0 1 91.01 156.15
  Q 81.60 154.32 82.83 144.49
  A 0.76 0.76 0.0 0 0 81.53 143.86
  C 75.02 150.44 65.44 140.26 72.54 134.08
  C 77.41 129.84 82.93 134.14 83.65 139.74
  Q 83.77 140.66 84.25 139.87
  Z"
/>
</svg>
