<svg width="71" height="71" viewBox="0 0 71 71" fill="none" xmlns="http://www.w3.org/2000/svg">
<path d="M52.9322 40.0014L57.1597 53.5548L57.2205 53.9396C57.2205 56.3072 54.4664 58.2939 50.0135 59.5917C46.0218 60.755 40.5412 61.4747 34.5179 61.4747C28.4947 61.4747 23.014 60.755 19.0223 59.5917C14.5695 58.2939 11.8153 56.3072 11.8153 53.9396L11.8762 53.5548L16.1037 40.0014C16.2449 37.9008 18.4727 36.1318 22.0038 34.9556C25.2342 33.8795 29.6608 33.214 34.5179 33.214C39.375 33.214 43.8017 33.8795 47.032 34.9556C50.5631 36.1318 52.7909 37.9008 52.9321 40.0014H52.9322Z" fill="#8B8C8C"/>
<path d="M46.2211 37.4064C43.2538 36.418 39.1182 35.8066 34.5178 35.8066C29.9175 35.8066 25.7819 36.418 22.8146 37.4064C20.2669 38.255 18.691 39.2581 18.691 40.2142C18.691 41.1704 20.2669 42.1735 22.8146 43.0221C25.7819 44.0105 29.9175 44.6218 34.5178 44.6218C39.1182 44.6218 43.2538 44.0105 46.2211 43.0221C48.7689 42.1735 50.3447 41.1704 50.3447 40.2142C50.3447 39.2581 48.7689 38.255 46.2211 37.4064Z" fill="#6A6A6A"/>
<path d="M27.2572 48.77C26.6477 48.77 26.0521 48.9874 25.606 49.4064C25.204 49.7838 24.9627 50.2906 24.9627 50.8464C24.9627 51.1011 25.019 51.3502 25.1181 51.5843C25.1388 51.6332 25.1615 51.6813 25.186 51.7285L25.4963 52.3258L25.186 52.9233C25.1615 52.9704 25.1388 53.0185 25.1181 53.0675C25.019 53.3016 24.9627 53.5506 24.9627 53.8054C24.9627 54.3611 25.204 54.868 25.606 55.2454C26.0521 55.6643 26.6477 55.8817 27.2572 55.8817C27.8565 55.8817 28.4404 55.6691 28.884 55.2635C29.0982 55.0677 29.2724 54.8305 29.3883 54.5641L29.7274 53.7846H39.3087L39.6472 54.5661C39.7626 54.8326 39.9364 55.07 40.1506 55.2658C40.5952 55.6723 41.1786 55.8817 41.7787 55.8817C42.3658 55.8817 42.9121 55.6164 43.3346 55.2197C43.6816 54.8939 44.0732 54.2995 44.0732 53.8054C44.0732 53.5665 44.0637 53.1641 43.9445 52.9449L43.6078 52.3259L43.9445 51.7069C44.0637 51.4877 44.0732 51.0854 44.0732 50.8464C44.0732 50.3614 43.6643 49.7671 43.3249 49.4484C42.9114 49.0602 42.3563 48.77 41.7787 48.77C41.2406 48.77 40.7226 48.918 40.2928 49.2475C40.0789 49.4114 39.8993 49.6139 39.7641 49.8472L39.3893 50.4936H29.6485L29.2709 49.8622C29.1322 49.6302 28.9479 49.4273 28.7334 49.2629C28.3098 48.9382 27.7901 48.77 27.2572 48.77Z" fill="#5F5F5F"/>
<path d="M55.1427 14.0647L58.4232 24.5818L58.4703 24.8805C58.4703 26.7177 56.3332 28.2593 52.8779 29.2664C49.7804 30.1691 45.5276 30.7275 40.8537 30.7275C36.1798 30.7275 31.9269 30.1691 28.8294 29.2664C25.3742 28.2593 23.237 26.7177 23.237 24.8805L23.2843 24.5818L26.5647 14.0647C26.6742 12.4347 28.403 11.062 31.1431 10.1493C33.6497 9.31434 37.0847 8.79785 40.8537 8.79785C44.6227 8.79785 48.0576 9.31434 50.5643 10.1493C53.3045 11.062 55.0332 12.4347 55.1427 14.0647H55.1427Z" fill="#BEBEBE"/>
<path d="M49.9351 12.052C47.6326 11.2851 44.4234 10.8107 40.8537 10.8107C37.2839 10.8107 34.0748 11.2851 31.7722 12.052C29.7952 12.7106 28.5724 13.4889 28.5724 14.2309C28.5724 14.9728 29.7952 15.7512 31.7722 16.4097C34.0748 17.1767 37.2839 17.6511 40.8537 17.6511C44.4234 17.6511 47.6326 17.1767 49.9351 16.4097C51.9121 15.7512 53.1349 14.9728 53.1349 14.2309C53.1349 13.4889 51.9121 12.7106 49.9351 12.052Z" fill="#757575"/>
<path d="M35.2194 20.8693C34.7463 20.8693 34.2842 21.038 33.938 21.363C33.6261 21.656 33.4389 22.0492 33.4389 22.4805C33.4389 22.6781 33.4826 22.8714 33.5595 23.053C33.5755 23.091 33.5931 23.1283 33.6121 23.165L33.853 23.6285L33.6121 24.092C33.5931 24.1287 33.5755 24.166 33.5595 24.204C33.4826 24.3856 33.4389 24.5789 33.4389 24.7765C33.4389 25.2078 33.6261 25.6011 33.938 25.894C34.2842 26.2191 34.7463 26.3878 35.2194 26.3878C35.6844 26.3878 36.1374 26.2228 36.4817 25.9081C36.6479 25.756 36.7831 25.572 36.873 25.3653L37.1362 24.7605H44.5711L44.8337 25.3668C44.9233 25.5736 45.0581 25.7578 45.2244 25.9098C45.5693 26.2252 46.022 26.3878 46.4877 26.3878C46.9433 26.3878 47.3672 26.1819 47.695 25.8741C47.9643 25.6212 48.2682 25.16 48.2682 24.7765C48.2682 24.5912 48.2608 24.2789 48.1683 24.1089L47.907 23.6285L48.1683 23.1482C48.2608 22.9781 48.2682 22.6659 48.2682 22.4804C48.2682 22.1041 47.9509 21.643 47.6875 21.3957C47.3667 21.0944 46.9359 20.8693 46.4877 20.8693C46.0702 20.8693 45.6682 20.9841 45.3347 21.2397C45.1687 21.367 45.0293 21.5241 44.9244 21.7051L44.6336 22.2068H37.0749L36.782 21.7168C36.6743 21.5367 36.5313 21.3793 36.3649 21.2517C36.0362 20.9998 35.6328 20.8693 35.2194 20.8693Z" fill="#757575"/>
</svg>
