<svg width="1350" height="4630" viewBox="0 0 1350 4630" fill="none" xmlns="http://www.w3.org/2000/svg">
<circle cx="557" cy="3223" r="16" fill="#508291"/>
<circle cx="16" cy="16" r="16" transform="matrix(-1 0 0 1 652 4169)" fill="#508291"/>
<circle cx="1164" cy="1387" r="19" fill="#80BDBE"/>
<circle cx="19" cy="19" r="19" transform="matrix(-1 0 0 1 667 3455)" fill="#80BDBE"/>
<circle cx="1288" cy="2674" r="62" fill="#FFD6A2"/>
<circle cx="62" cy="62" r="62" transform="matrix(-1 0 0 1 147 3398)" fill="#6FE2E9"/>
<circle cx="93.5" cy="824.5" r="31.5" fill="#447BC2"/>
<circle cx="31.5" cy="31.5" r="31.5" transform="matrix(-1 0 0 1 1324 3934)" fill="#465B8B"/>
<circle cx="740.5" cy="1244.5" r="12.5" fill="#475B8B"/>
<circle cx="1132.5" cy="967.5" r="12.5" fill="#475B8B"/>
<circle cx="12.5" cy="12.5" r="12.5" transform="matrix(-1 0 0 1 797 3385)" fill="#475B8B"/>
<circle cx="55" cy="3261" r="32" fill="#FFFDE7"/>
<circle cx="32" cy="32" r="32" transform="matrix(-1 0 0 1 1322 4153)" fill="#FFFDE7"/>
<circle cx="1195.5" cy="3241.5" r="15.5" fill="#FFA16B"/>
<circle cx="15.5" cy="15.5" r="15.5" transform="matrix(-1 0 0 1 191 3909)" fill="#FFA16B"/>
<circle cx="389.5" cy="2658.5" r="15.5" fill="#FFA16B"/>
<circle cx="15.5" cy="15.5" r="15.5" transform="matrix(-1 0 0 1 979 3548)" fill="#FFA16B"/>
<path d="M454.585 67C454.585 67.8882 454.581 68.7734 454.569 69.6528C455.037 90.9352 470.185 95.7566 478 95.4423C460.871 97.0077 455.91 111.066 455.563 117.95C455.563 117.966 455.562 117.983 455.561 118C455.562 117.983 455.563 117.966 455.563 117.95C456.315 102.295 444.172 96.422 438 95.4423C452.572 93.8146 454.394 82.3453 454.569 69.6528C454.55 68.7955 454.555 67.9115 454.585 67Z" fill="#E2F4EA"/>
<path d="M801.585 413C801.585 413.888 801.581 414.773 801.569 415.653C802.037 436.935 817.185 441.757 825 441.442C807.871 443.008 802.91 457.066 802.563 463.95C802.563 463.966 802.562 463.983 802.561 464C802.562 463.983 802.563 463.966 802.563 463.95C803.315 448.295 791.172 442.422 785 441.442C799.572 439.815 801.394 428.345 801.569 415.653C801.55 414.795 801.555 413.911 801.585 413Z" fill="#E2F4EA"/>
<path d="M835.182 3359.37C834.499 3358.8 833.821 3358.23 833.153 3357.66C816.492 3344.41 803.098 3352.97 798.342 3359.18C808.093 3345.01 800.457 3332.2 795.387 3327.53C795.375 3327.52 795.362 3327.51 795.35 3327.5C795.362 3327.51 795.375 3327.52 795.387 3327.53C806.941 3338.12 819.222 3332.54 823.922 3328.43C815.855 3340.67 823.507 3349.4 833.153 3357.66C833.824 3358.19 834.5 3358.76 835.182 3359.37Z" fill="#E2F4EA"/>
<path d="M229.212 4611.18C229.895 4610.61 230.573 4610.04 231.241 4609.47C247.902 4596.22 261.296 4604.78 266.052 4610.99C256.302 4596.82 263.937 4584.02 269.007 4579.35C269.019 4579.34 269.032 4579.33 269.044 4579.32C269.032 4579.33 269.019 4579.34 269.007 4579.35C257.453 4589.94 245.172 4584.36 240.472 4580.24C248.54 4592.49 240.887 4601.22 231.241 4609.47C230.57 4610.01 229.894 4610.58 229.212 4611.18Z" fill="#E2F4EA"/>
<path d="M693.585 2679C693.585 2679.89 693.581 2680.77 693.569 2681.65C694.037 2702.94 709.185 2707.76 717 2707.44C699.871 2709.01 694.91 2723.07 694.563 2729.95C694.563 2729.97 694.562 2729.98 694.561 2730C694.562 2729.98 694.563 2729.97 694.563 2729.95C695.315 2714.3 683.172 2708.42 677 2707.44C691.572 2705.81 693.394 2694.35 693.569 2681.65C693.55 2680.8 693.555 2679.91 693.585 2679Z" fill="#E2F4EA"/>
<path d="M780.415 3837C780.415 3837.89 780.419 3838.77 780.431 3839.65C779.963 3860.94 764.815 3865.76 757 3865.44C774.129 3867.01 779.09 3881.07 779.437 3887.95C779.437 3887.97 779.438 3887.98 779.439 3888C779.438 3887.98 779.437 3887.97 779.437 3887.95C778.685 3872.3 790.828 3866.42 797 3865.44C782.428 3863.81 780.606 3852.35 780.431 3839.65C780.45 3838.8 780.445 3837.91 780.415 3837Z" fill="#E2F4EA"/>
<path d="M991.585 2570C991.585 2570.89 991.581 2571.77 991.569 2572.65C992.037 2593.94 1007.18 2598.76 1015 2598.44C997.871 2600.01 992.91 2614.07 992.563 2620.95C992.563 2620.97 992.562 2620.98 992.561 2621C992.562 2620.98 992.563 2620.97 992.563 2620.95C993.315 2605.3 981.172 2599.42 975 2598.44C989.572 2596.81 991.394 2585.35 991.569 2572.65C991.55 2571.8 991.555 2570.91 991.585 2570Z" fill="#E2F4EA"/>
<path d="M231.415 3480C231.415 3480.89 231.419 3481.77 231.431 3482.65C230.963 3503.94 215.815 3508.76 208 3508.44C225.129 3510.01 230.09 3524.07 230.437 3530.95C230.437 3530.97 230.438 3530.98 230.439 3531C230.438 3530.98 230.437 3530.97 230.437 3530.95C229.685 3515.3 241.828 3509.42 248 3508.44C233.428 3506.81 231.606 3495.35 231.431 3482.65C231.45 3481.8 231.445 3480.91 231.415 3480Z" fill="#E2F4EA"/>
<path d="M370.893 872.407C370.551 873.226 370.207 874.041 369.857 874.848C362.09 894.659 374.163 904.958 381.47 907.687C365.117 902.514 355.14 913.564 352.17 919.779C352.163 919.794 352.156 919.81 352.148 919.825C352.156 919.81 352.163 919.794 352.17 919.779C358.891 905.631 349.986 895.522 344.688 892.234C358.715 896.362 364.808 886.487 369.857 874.848C370.17 874.05 370.515 873.236 370.893 872.407Z" fill="#E2F4EA"/>
<path d="M387.299 3423.66C387.642 3424.48 387.988 3425.29 388.338 3426.1C396.128 3445.91 384.019 3456.21 376.689 3458.94C393.093 3453.77 403.1 3464.82 406.079 3471.03C406.086 3471.05 406.093 3471.06 406.101 3471.08C406.093 3471.06 406.086 3471.05 406.079 3471.03C399.338 3456.88 408.269 3446.78 413.584 3443.49C399.514 3447.62 393.403 3437.74 388.338 3426.1C388.025 3425.3 387.679 3424.49 387.299 3423.66Z" fill="#E2F4EA"/>
<path d="M409 2886.41C408.657 2887.23 408.311 2888.04 407.96 2888.85C400.17 2908.66 412.279 2918.96 419.609 2921.69C403.205 2916.51 393.199 2927.56 390.219 2933.78C390.212 2933.79 390.205 2933.81 390.198 2933.82C390.205 2933.81 390.212 2933.79 390.219 2933.78C396.961 2919.63 388.029 2909.52 382.714 2906.23C396.784 2910.36 402.895 2900.49 407.96 2888.85C408.274 2888.05 408.62 2887.24 409 2886.41Z" fill="#E2F4EA"/>
<path d="M944 3791.41C944.343 3792.23 944.689 3793.04 945.04 3793.85C952.83 3813.66 940.721 3823.96 933.391 3826.69C949.795 3821.51 959.801 3832.56 962.781 3838.78C962.788 3838.79 962.795 3838.81 962.802 3838.82C962.795 3838.81 962.788 3838.79 962.781 3838.78C956.039 3824.63 964.971 3814.52 970.286 3811.23C956.216 3815.36 950.105 3805.49 945.04 3793.85C944.726 3793.05 944.38 3792.24 944 3791.41Z" fill="#E2F4EA"/>
<path d="M641.48 737.264C641.279 737.744 641.077 738.22 640.872 738.692C636.313 750.285 643.399 756.311 647.688 757.908C638.089 754.881 632.234 761.347 630.491 764.984C630.486 764.993 630.482 765.002 630.478 765.01C630.482 765.002 630.486 764.993 630.491 764.984C634.435 756.705 629.209 750.79 626.099 748.866C634.332 751.282 637.908 745.503 640.872 738.692C641.055 738.225 641.258 737.749 641.48 737.264Z" fill="#E2F4EA"/>
<path d="M917.418 1623.75C917.218 1624.23 917.016 1624.71 916.811 1625.18C912.267 1636.77 919.331 1642.8 923.607 1644.39C914.037 1641.37 908.2 1647.83 906.462 1651.47C906.458 1651.48 906.453 1651.49 906.449 1651.5C906.453 1651.49 906.458 1651.48 906.462 1651.47C910.394 1643.19 905.184 1637.27 902.084 1635.35C910.292 1637.77 913.857 1631.99 916.811 1625.18C916.994 1624.71 917.196 1624.23 917.418 1623.75Z" fill="#E2F4EA"/>
<path d="M124.747 1282.4C124.237 1282.51 123.729 1282.61 123.224 1282.7C111.07 1285.41 110.02 1294.63 111.085 1299.07C108.248 1289.44 99.6238 1288.22 95.6365 1288.81C95.6267 1288.81 95.617 1288.81 95.6073 1288.81C95.617 1288.81 95.6267 1288.81 95.6365 1288.81C104.7 1287.44 106.694 1279.82 106.557 1276.17C109.14 1284.33 115.924 1284.05 123.224 1282.7C123.713 1282.59 124.221 1282.49 124.747 1282.4Z" fill="#E2F4EA"/>
<path d="M20.9514 2755.75C20.7507 2756.23 20.5483 2756.71 20.343 2757.18C15.7847 2768.77 22.8703 2774.8 27.1594 2776.39C17.5608 2773.37 11.7055 2779.83 9.96215 2783.47C9.95792 2783.48 9.95368 2783.49 9.94942 2783.5C9.95364 2783.49 9.95788 2783.48 9.96215 2783.47C13.9067 2775.19 8.68041 2769.27 5.5706 2767.35C13.8035 2769.77 17.3794 2763.99 20.343 2757.18C20.5266 2756.71 20.7291 2756.23 20.9514 2755.75Z" fill="#E2F4EA"/>
<path d="M1308.75 4281.33C1308.93 4281.75 1309.11 4282.17 1309.29 4282.59C1313.32 4292.83 1307.06 4298.16 1303.27 4299.57C1311.75 4296.89 1316.92 4302.6 1318.46 4305.82C1318.46 4305.83 1318.47 4305.83 1318.47 4305.84C1318.47 4305.83 1318.46 4305.83 1318.46 4305.82C1314.97 4298.5 1319.59 4293.28 1322.34 4291.58C1315.07 4293.71 1311.91 4288.61 1309.29 4282.59C1309.13 4282.18 1308.95 4281.76 1308.75 4281.33Z" fill="#E2F4EA"/>
<path d="M716.195 183C716.195 183.61 716.192 184.217 716.184 184.821C716.5 199.426 726.725 202.735 732 202.519C720.438 203.594 717.09 213.241 716.855 217.965C717.363 207.222 709.166 203.192 705 202.519C714.836 201.402 716.066 193.531 716.184 184.821C716.171 184.232 716.175 183.626 716.195 183Z" fill="#E2F4EA"/>
<path d="M847.195 129C847.195 129.61 847.192 130.217 847.184 130.821C847.5 145.426 857.725 148.735 863 148.519C851.438 149.594 848.09 159.241 847.855 163.965C848.363 153.222 840.166 149.192 836 148.519C845.836 147.402 847.066 139.531 847.184 130.821C847.171 130.232 847.175 129.626 847.195 129Z" fill="#E2F4EA"/>
<path d="M310.195 743C310.195 743.61 310.192 744.217 310.184 744.821C310.5 759.426 320.725 762.735 326 762.519C314.438 763.594 311.09 773.241 310.855 777.965C311.363 767.222 303.166 763.192 299 762.519C308.836 761.402 310.066 753.531 310.184 744.821C310.171 744.232 310.175 743.626 310.195 743Z" fill="#E2F4EA"/>
<path d="M307.195 0C307.195 0.609571 307.192 1.21708 307.184 1.82056C307.5 16.4261 317.725 19.7349 323 19.5192C311.438 20.5935 308.09 30.2412 307.855 34.9654C308.363 24.2221 300.166 20.1916 296 19.5192C305.836 18.4022 307.066 10.5311 307.184 1.82056C307.171 1.23221 307.175 0.625523 307.195 0Z" fill="#E2F4EA"/>
</svg>
