<svg width="672" height="672" viewBox="0 0 672 672" fill="none" xmlns="http://www.w3.org/2000/svg">
<path fill-rule="evenodd" clip-rule="evenodd" d="M579.141 365.859C568.964 373.061 562.73 382.905 560.438 395.391C559.734 399.299 559.406 403.236 559.453 407.203C558.331 408.319 557.018 409.194 555.516 409.828C554.86 402.403 554.642 394.966 554.859 387.516C554.859 373.516 554.859 359.515 554.859 345.516C570.708 333.945 577.598 318.413 575.531 298.922C571.443 285.864 562.584 279.848 548.953 280.875C538.544 284.286 532.309 291.396 530.25 302.203C529.652 321.351 536.98 336.663 552.234 348.141C552.452 363.348 552.233 378.442 551.578 393.422C548.645 391.623 545.801 389.654 543.047 387.516C541.936 375.765 537.561 365.374 529.922 356.344C521.667 349.256 512.698 348.272 503.016 353.391C501.191 350.289 499.44 347.118 497.766 343.875C512.944 326.965 516.225 307.933 507.609 286.781C508.83 275.323 509.158 263.839 508.594 252.328C508.242 249.735 507.258 247.438 505.641 245.438C503.539 244.464 501.351 244.245 499.078 244.781C493.257 250.276 487.351 255.636 481.359 260.859C480.05 229.586 479.612 198.086 480.047 166.359C481.028 166.415 481.684 165.978 482.016 165.047C481.13 164.095 480.036 163.658 478.734 163.734C478.734 164.391 478.734 165.047 478.734 165.703C478.516 165.703 478.297 165.703 478.078 165.703C477.369 163.035 475.618 161.942 472.828 162.422C466.982 163.276 461.513 165.026 456.422 167.672C451.366 170.651 447.866 174.916 445.922 180.469C439.327 183.127 434.405 187.612 431.156 193.922C430.654 194.95 430.764 195.824 431.484 196.547C430.845 198.231 430.407 199.981 430.172 201.797C427.743 203.294 425.446 205.045 423.281 207.047C422.598 209.105 423.145 210.745 424.922 211.969C432.966 212.913 441.06 213.241 449.203 212.953C449.858 229.465 450.077 246.09 449.859 262.828C445.715 263.197 441.668 264.072 437.719 265.453C435.332 262.957 432.816 260.552 430.172 258.234C425.909 253.425 421.315 248.941 416.391 244.781C413.363 243.205 410.628 243.533 408.188 245.766C406.702 248.645 405.827 251.707 405.562 254.953C405.059 264.807 405.168 274.65 405.891 284.484C405.836 286.491 405.18 288.241 403.922 289.734C402.762 291.238 402.106 292.988 401.953 294.984C396.512 290.198 391.481 284.948 386.859 279.234C386.859 275.515 386.859 271.797 386.859 268.078C387.513 268.135 388.06 267.915 388.5 267.422C396.114 256.613 401.583 244.8 404.906 231.984C408.564 220.65 405.83 211.353 396.703 204.094C386.691 198.976 377.832 200.398 370.125 208.359C364.222 216.861 363.566 225.83 368.156 235.266C372.561 243.654 377.92 251.31 384.234 258.234C384.234 264.359 384.234 270.485 384.234 276.609C373.75 266.124 363.469 255.406 353.391 244.453C353.606 237.553 353.387 230.772 352.734 224.109C352.217 223.924 351.779 223.596 351.422 223.125C347.922 222.687 344.422 222.687 340.922 223.125C339.262 224.859 338.606 226.937 338.953 229.359C330.714 221.415 322.62 213.321 314.672 205.078C296.502 223.467 278.346 241.842 260.203 260.203C253.836 256.804 247.711 253.086 241.828 249.047C242.478 244.795 242.697 240.42 242.484 235.922C243.359 235.922 244.235 235.922 245.109 235.922C249.397 237.473 252.57 240.317 254.625 244.453C256.699 246.423 258.12 246.094 258.891 243.469C256.195 235.195 250.507 230.711 241.828 230.016C241.828 225.422 241.828 220.828 241.828 216.234C242.675 216.39 243.332 216.171 243.797 215.578C245.311 216.335 246.842 217.101 248.391 217.875C251.171 220.545 253.796 223.279 256.266 226.078C256.884 226.007 257.43 225.789 257.906 225.422C257.722 221.234 255.863 217.843 252.328 215.25C249.285 212.74 245.785 211.318 241.828 210.984C241.719 208.132 241.829 205.289 242.156 202.453C242.82 201.904 243.586 201.685 244.453 201.797C248.079 202.68 251.141 204.539 253.641 207.375C257.619 209.306 259.04 208.103 257.906 203.766C253.41 199.604 248.269 196.542 242.484 194.578C242.375 184.513 242.484 174.451 242.812 164.391C257.165 158.078 262.633 147.14 259.219 131.578C257.039 124.701 252.774 119.561 246.422 116.156C244.085 115.348 241.898 114.363 239.859 113.203C238.773 108.845 237.679 104.47 236.578 100.078C278.526 82.0824 322.276 75.6289 367.828 80.7188C438.143 89.9968 494.69 122.7 537.469 178.828C560.342 210.373 573.905 245.592 578.156 284.484C579.076 311.599 579.404 338.723 579.141 365.859Z" fill="#8AD3C1"/>
<path fill-rule="evenodd" clip-rule="evenodd" d="M236.578 100.078C237.679 104.47 238.773 108.845 239.859 113.203C234.8 113.052 229.769 113.27 224.766 113.859C225.64 110.797 226.516 107.735 227.391 104.672C229.01 99.8143 230.76 95.002 232.641 90.2344C234.214 93.4238 235.526 96.705 236.578 100.078Z" fill="#B9DADD"/>
<path fill-rule="evenodd" clip-rule="evenodd" d="M239.859 113.203C241.898 114.363 244.085 115.348 246.422 116.156C252.774 119.561 257.039 124.701 259.219 131.578C262.633 147.14 257.165 158.078 242.812 164.391C242.484 174.451 242.375 184.513 242.484 194.578C240.132 193.61 237.726 193.064 235.266 192.938C233.424 193.794 232.877 195.216 233.625 197.203C237.133 199.085 240.742 200.616 244.453 201.797C243.586 201.685 242.82 201.904 242.156 202.453C241.829 205.289 241.719 208.132 241.828 210.984C241.722 212.315 241.831 213.627 242.156 214.922C242.597 215.415 243.143 215.635 243.797 215.578C243.332 216.171 242.675 216.39 241.828 216.234C241.828 220.828 241.828 225.422 241.828 230.016C241.721 231.562 241.83 233.094 242.156 234.609C243.221 235.003 244.205 235.44 245.109 235.922C244.235 235.922 243.359 235.922 242.484 235.922C242.697 240.42 242.478 244.795 241.828 249.047C235.359 245.756 229.124 242.037 223.125 237.891C222.906 229.141 222.687 220.39 222.469 211.641C222.141 211.313 221.812 210.984 221.484 210.656C217.712 210.141 213.993 210.251 210.328 210.984C209.568 204.099 209.459 197.099 210 189.984C210.745 187.267 212.277 185.079 214.594 183.422C218.541 178.149 221.057 172.243 222.141 165.703C220.934 163.742 219.184 162.32 216.891 161.438C204.294 149.677 202.653 136.661 211.969 122.391C215.564 118.466 219.829 115.622 224.766 113.859C229.769 113.27 234.8 113.052 239.859 113.203Z" fill="#FCFCFC"/>
<path fill-rule="evenodd" clip-rule="evenodd" d="M310.078 127.641C315.566 126.597 318.519 128.784 318.937 134.203C321.034 134.629 323.112 135.176 325.172 135.844C326.114 137.331 325.895 138.644 324.516 139.781C322.109 139.891 319.703 140 317.297 140.109C306.536 140.677 304.13 136.521 310.078 127.641Z" fill="#FDFCFA"/>
<path fill-rule="evenodd" clip-rule="evenodd" d="M239.859 132.891C240.727 132.779 241.493 132.998 242.156 133.547C242.594 137.484 242.594 141.422 242.156 145.359C241.531 146.732 240.656 146.951 239.531 146.016C239.011 141.588 239.12 137.213 239.859 132.891Z" fill="#2D5779"/>
<path fill-rule="evenodd" clip-rule="evenodd" d="M223.453 132.891C224.328 132.891 225.203 132.891 226.078 132.891C226.078 137.484 226.078 142.078 226.078 146.672C225.203 146.672 224.328 146.672 223.453 146.672C223.453 142.078 223.453 137.484 223.453 132.891Z" fill="#1C4B6F"/>
<path fill-rule="evenodd" clip-rule="evenodd" d="M306.141 144.703C312.922 144.703 319.703 144.703 326.484 144.703C326.484 145.578 326.484 146.453 326.484 147.328C319.703 147.328 312.922 147.328 306.141 147.328C306.141 146.453 306.141 145.578 306.141 144.703Z" fill="#FDFBF8"/>
<path fill-rule="evenodd" clip-rule="evenodd" d="M264.797 150.609C271.144 150.5 277.488 150.609 283.828 150.938C284.703 151.594 284.703 152.25 283.828 152.906C277.27 153.234 270.707 153.343 264.141 153.234C264.097 152.277 264.315 151.402 264.797 150.609Z" fill="#FDFCF8"/>
<path fill-rule="evenodd" clip-rule="evenodd" d="M308.766 153.891C315.547 153.891 322.328 153.891 329.109 153.891C329.109 154.547 329.109 155.203 329.109 155.859C322.349 156.45 315.568 156.669 308.766 156.516C308.766 155.641 308.766 154.765 308.766 153.891Z" fill="#FCFCFA"/>
<path fill-rule="evenodd" clip-rule="evenodd" d="M388.828 152.578C387.846 153.107 386.752 153.544 385.547 153.891C384.662 155.276 384.881 156.479 386.203 157.5C389.594 159.404 391.781 158.639 392.766 155.203C394.744 157.167 397.149 158.261 399.984 158.484C400.859 159.359 400.859 160.235 399.984 161.109C393.992 164.064 387.648 165.158 380.953 164.391C378.081 164.122 375.237 163.685 372.422 163.078C370.767 161.857 369.126 160.544 367.5 159.141C365.641 155.969 363.781 152.797 361.922 149.625C359.045 148.176 355.982 147.629 352.734 147.984C352.566 146.48 352.785 145.058 353.391 143.719C357.165 140.72 361.321 140.063 365.859 141.75C368.759 144.209 371.165 147.052 373.078 150.281C378.473 150.223 383.723 150.989 388.828 152.578Z" fill="#EB8272"/>
<path fill-rule="evenodd" clip-rule="evenodd" d="M388.828 152.578C390.334 153.218 391.647 154.093 392.766 155.203C391.781 158.639 389.594 159.404 386.203 157.5C384.881 156.48 384.662 155.276 385.547 153.891C386.752 153.544 387.846 153.107 388.828 152.578Z" fill="#F7B7A0"/>
<path fill-rule="evenodd" clip-rule="evenodd" d="M409.172 160.453C415.516 160.453 421.859 160.453 428.203 160.453C428.315 161.321 428.096 162.087 427.547 162.75C421.426 163.078 415.301 163.187 409.172 163.078C409.172 162.203 409.172 161.328 409.172 160.453Z" fill="#FDFBF6"/>
<path fill-rule="evenodd" clip-rule="evenodd" d="M371.109 163.734C371.334 163.184 371.771 162.965 372.422 163.078C375.237 163.685 378.081 164.122 380.953 164.391C384.016 164.828 387.078 165.265 390.141 165.703C385.57 166.394 380.977 166.504 376.359 166.031C374.431 165.574 372.682 164.809 371.109 163.734Z" fill="#F2F1F0"/>
<path fill-rule="evenodd" clip-rule="evenodd" d="M480.047 166.359C479.396 166.472 478.959 166.253 478.734 165.703C478.734 165.047 478.734 164.391 478.734 163.734C480.036 163.658 481.13 164.095 482.016 165.047C481.684 165.978 481.028 166.415 480.047 166.359Z" fill="#B23B3D"/>
<path fill-rule="evenodd" clip-rule="evenodd" d="M371.109 163.734C372.682 164.809 374.431 165.574 376.359 166.031C380.977 166.504 385.57 166.394 390.141 165.703C389.059 166.64 387.747 167.186 386.203 167.344C381.15 168.219 376.338 167.563 371.766 165.375C370.782 164.825 370.563 164.278 371.109 163.734Z" fill="#576A79"/>
<path fill-rule="evenodd" clip-rule="evenodd" d="M478.078 165.703C478.297 165.703 478.516 165.703 478.734 165.703C478.959 166.253 479.396 166.472 480.047 166.359C479.612 198.086 480.05 229.586 481.359 260.859C479.793 263.083 477.824 264.833 475.453 266.109C467.112 263.516 458.58 262.422 449.859 262.828C450.077 246.09 449.858 229.465 449.203 212.953C461.513 209.283 469.279 201.189 472.5 188.672C473.083 183.215 473.52 177.746 473.812 172.266C474.586 169.637 476.008 167.45 478.078 165.703Z" fill="#FCFDFC"/>
<path fill-rule="evenodd" clip-rule="evenodd" d="M430.172 201.797C430.407 199.981 430.845 198.231 431.484 196.547C434.098 189.121 439.128 184.09 446.578 181.453C448.522 175.806 452.022 171.431 457.078 168.328C459.028 166.917 461.216 166.261 463.641 166.359C465.034 171.366 463.284 174.538 458.391 175.875C457.003 178.794 454.925 181.091 452.156 182.766C451.968 184.335 451.64 185.866 451.172 187.359C447.375 188.161 444.532 190.239 442.641 193.594C441.328 194.031 440.016 194.469 438.703 194.906C437.7 196.821 436.826 198.789 436.078 200.812C434.081 201.051 432.112 201.379 430.172 201.797Z" fill="#F7FBFB"/>
<path fill-rule="evenodd" clip-rule="evenodd" d="M428.859 166.359C430.582 166.993 430.582 167.65 428.859 168.328C429.583 168.655 430.239 168.873 430.828 168.984C429.623 170.685 427.874 172.326 425.578 173.906C427.81 173.732 428.903 174.716 428.859 176.859C423.605 176.968 418.355 176.859 413.109 176.531C412.6 175.37 412.709 174.167 413.438 172.922C414.094 173.14 414.75 173.36 415.406 173.578C415.844 172.922 415.844 172.266 415.406 171.609C415.188 171.828 414.969 172.047 414.75 172.266C410.832 172.611 408.972 170.861 409.172 167.016C415.853 167.23 422.416 167.012 428.859 166.359Z" fill="#FCF3E8"/>
<path fill-rule="evenodd" clip-rule="evenodd" d="M478.078 165.703C476.008 167.45 474.586 169.637 473.812 172.266C473.52 177.746 473.083 183.215 472.5 188.672C469.279 201.189 461.513 209.283 449.203 212.953C441.06 213.241 432.966 212.913 424.922 211.969C423.145 210.745 422.598 209.105 423.281 207.047C425.446 205.045 427.743 203.294 430.172 201.797C432.112 201.379 434.08 201.051 436.078 200.812C436.826 198.789 437.7 196.821 438.703 194.906C440.016 194.469 441.328 194.031 442.641 193.594C444.532 190.239 447.375 188.161 451.172 187.359C451.64 185.866 451.968 184.335 452.156 182.766C454.925 181.091 457.003 178.794 458.391 175.875C463.284 174.538 465.034 171.366 463.641 166.359C461.216 166.261 459.028 166.917 457.078 168.328C457.078 167.89 456.86 167.672 456.422 167.672C461.513 165.026 466.982 163.276 472.828 162.422C475.618 161.942 477.369 163.035 478.078 165.703Z" fill="#81B9C4"/>
<path fill-rule="evenodd" clip-rule="evenodd" d="M463.641 184.734C464.511 180.919 465.714 177.2 467.25 173.578C467.028 177.633 465.825 181.352 463.641 184.734Z" fill="#397789"/>
<path fill-rule="evenodd" clip-rule="evenodd" d="M310.734 185.391C313.407 185.683 314.72 187.215 314.672 189.984C319.047 189.984 323.422 189.984 327.797 189.984C327.797 191.078 327.797 192.172 327.797 193.266C317.732 193.375 307.67 193.266 297.609 192.938C296.735 191.844 296.735 190.75 297.609 189.656C300.912 189.544 304.194 189.216 307.453 188.672C308.779 187.783 309.873 186.689 310.734 185.391Z" fill="#FCFCFA"/>
<path fill-rule="evenodd" clip-rule="evenodd" d="M456.422 167.672C456.86 167.672 457.078 167.89 457.078 168.328C452.022 171.431 448.522 175.806 446.578 181.453C439.128 184.09 434.098 189.121 431.484 196.547C430.764 195.824 430.654 194.95 431.156 193.922C434.405 187.612 439.327 183.127 445.922 180.469C447.866 174.916 451.366 170.651 456.422 167.672Z" fill="#537987"/>
<path fill-rule="evenodd" clip-rule="evenodd" d="M463.641 184.734C462.299 189.35 459.893 193.287 456.422 196.547C458.833 192.606 461.239 188.669 463.641 184.734Z" fill="#337282"/>
<path fill-rule="evenodd" clip-rule="evenodd" d="M513.516 199.172C517.541 198.823 520.166 200.572 521.391 204.422C527.735 204.86 534.078 205.297 540.422 205.734C542.124 207.218 542.124 208.64 540.422 210C524.453 210.438 508.484 210.438 492.516 210C491.641 208.687 491.641 207.375 492.516 206.062C497.931 205.335 503.4 204.788 508.922 204.422C510.228 202.451 511.759 200.701 513.516 199.172Z" fill="#FCFCF9"/>
<path fill-rule="evenodd" clip-rule="evenodd" d="M386.859 268.078C387.077 251.777 386.858 235.59 386.203 219.516C385.547 219.516 384.891 219.516 384.234 219.516C384.234 232.422 384.234 245.328 384.234 258.234C377.92 251.31 372.561 243.654 368.156 235.266C363.566 225.83 364.222 216.861 370.125 208.359C377.832 200.398 386.691 198.976 396.703 204.094C405.83 211.352 408.564 220.65 404.906 231.984C401.583 244.8 396.114 256.613 388.5 267.422C388.06 267.915 387.513 268.135 386.859 268.078Z" fill="#FBB4A0"/>
<path fill-rule="evenodd" clip-rule="evenodd" d="M242.484 194.578C248.269 196.542 253.41 199.604 257.906 203.766C259.04 208.103 257.619 209.306 253.641 207.375C251.141 204.539 248.079 202.68 244.453 201.797C240.742 200.616 237.133 199.085 233.625 197.203C232.877 195.216 233.424 193.794 235.266 192.938C237.726 193.064 240.132 193.61 242.484 194.578Z" fill="#12456E"/>
<path fill-rule="evenodd" clip-rule="evenodd" d="M456.422 196.547C453.771 200.746 450.38 204.245 446.25 207.047C446.031 206.828 445.812 206.609 445.594 206.391C444.29 207.433 442.868 207.979 441.328 208.031C446.838 204.817 451.869 200.988 456.422 196.547Z" fill="#538E9D"/>
<path fill-rule="evenodd" clip-rule="evenodd" d="M338.953 229.359C342.867 234.368 347.242 238.962 352.078 243.141C352.297 243.797 352.734 244.235 353.391 244.453C363.469 255.406 373.75 266.124 384.234 276.609C384.453 277.266 384.891 277.703 385.547 277.922C385.765 278.578 386.203 279.016 386.859 279.234C391.481 284.948 396.512 290.198 401.953 294.984C399.559 303.855 399.341 312.824 401.297 321.891C400.422 322.547 399.547 323.203 398.672 323.859C371.611 294.499 344.159 265.405 316.313 236.578C288.771 266.089 260.99 295.402 232.969 324.516C229.161 321.363 225.333 318.301 221.484 315.328C220.828 314.234 219.953 313.359 218.859 312.703C217.792 311.305 216.589 309.993 215.25 308.766C214.812 308.109 214.812 307.453 215.25 306.797C227.106 295.271 238.59 283.458 249.703 271.359C253.185 267.658 256.685 263.939 260.203 260.203C278.346 241.842 296.502 223.467 314.672 205.078C322.62 213.321 330.714 221.415 338.953 229.359Z" fill="#357A96"/>
<path fill-rule="evenodd" clip-rule="evenodd" d="M241.828 249.047C247.711 253.086 253.836 256.804 260.203 260.203C256.685 263.939 253.185 267.658 249.703 271.359C248.802 271.462 247.927 271.353 247.078 271.031C228.543 260.687 209.949 250.516 191.297 240.516C191.078 240.516 190.859 240.516 190.641 240.516C190.124 239.463 189.249 239.025 188.016 239.203C186.829 239.197 185.735 239.525 184.734 240.188C171.274 249.176 157.93 258.254 144.703 267.422C141.479 268.898 138.416 270.648 135.516 272.672C132.78 271.157 132.233 268.969 133.875 266.109C140.849 261.641 147.521 256.829 153.891 251.672C160.378 248.024 166.503 243.868 172.266 239.203C180.829 233.989 189.251 228.521 197.531 222.797C201.643 225.125 205.69 227.531 209.672 230.016C210.327 223.687 210.546 217.343 210.328 210.984C213.993 210.251 217.712 210.141 221.484 210.656C221.813 210.984 222.141 211.313 222.469 211.641C222.687 220.39 222.906 229.141 223.125 237.891C229.124 242.037 235.359 245.756 241.828 249.047Z" fill="#E97E6E"/>
<path fill-rule="evenodd" clip-rule="evenodd" d="M241.828 210.984C245.785 211.318 249.285 212.74 252.328 215.25C255.863 217.843 257.722 221.234 257.906 225.422C257.43 225.789 256.884 226.007 256.266 226.078C253.796 223.279 251.171 220.545 248.391 217.875C246.842 217.101 245.311 216.335 243.797 215.578C243.143 215.635 242.597 215.415 242.156 214.922C241.831 213.627 241.722 212.315 241.828 210.984Z" fill="#1A496E"/>
<path fill-rule="evenodd" clip-rule="evenodd" d="M352.734 224.109C352.949 230.572 352.73 236.915 352.078 243.141C347.242 238.962 342.867 234.368 338.953 229.359C338.606 226.937 339.262 224.859 340.922 223.125C344.422 222.687 347.922 222.687 351.422 223.125C351.779 223.596 352.217 223.924 352.734 224.109Z" fill="#EA7F6E"/>
<path fill-rule="evenodd" clip-rule="evenodd" d="M172.266 239.203C166.503 243.868 160.378 248.024 153.891 251.672C152.976 250.352 152.539 248.82 152.578 247.078C152.807 244.85 153.244 242.663 153.891 240.516C152.675 237.102 152.347 233.601 152.906 230.016C154.625 227.792 156.922 226.807 159.797 227.062C161.816 222.988 164.879 221.894 168.984 223.781C170.555 225.062 171.54 226.703 171.937 228.703C172.265 232.196 172.375 235.696 172.266 239.203Z" fill="#77B4BE"/>
<path fill-rule="evenodd" clip-rule="evenodd" d="M386.203 219.516C386.858 235.59 387.077 251.778 386.859 268.078C386.859 271.797 386.859 275.515 386.859 279.234C386.203 279.016 385.765 278.578 385.547 277.922C386.202 258.566 386.42 239.097 386.203 219.516Z" fill="#F19886"/>
<path fill-rule="evenodd" clip-rule="evenodd" d="M241.828 230.016C250.507 230.711 256.195 235.195 258.891 243.469C258.12 246.094 256.699 246.423 254.625 244.453C252.57 240.317 249.397 237.473 245.109 235.922C244.205 235.44 243.221 235.002 242.156 234.609C241.83 233.093 241.721 231.562 241.828 230.016Z" fill="#18476C"/>
<path fill-rule="evenodd" clip-rule="evenodd" d="M398.672 323.859C398.672 325.61 398.672 327.359 398.672 329.109C343.547 329.109 288.422 329.109 233.297 329.109C233.297 332.391 233.297 335.672 233.297 338.953C219.297 338.953 205.297 338.953 191.297 338.953C191.142 336.913 191.361 334.944 191.953 333.047C197.2 328.347 202.122 323.315 206.719 317.953C207.047 311.832 207.156 305.707 207.047 299.578C205.953 299.578 204.86 299.578 203.766 299.578C203.875 305.051 203.766 310.52 203.438 315.984C199.458 319.853 195.63 323.79 191.953 327.797C191.299 316.099 191.08 304.286 191.297 292.359C201.685 284.048 211.965 275.626 222.141 267.094C221.544 265.572 220.451 265.134 218.859 265.781C209.593 272.64 200.515 279.75 191.625 287.109C191.298 283.616 191.188 280.116 191.297 276.609C192.373 276.071 193.467 275.525 194.578 274.969C198.232 271.723 201.732 268.333 205.078 264.797C204.498 263.194 203.404 262.648 201.797 263.156C198.752 266.756 195.252 269.71 191.297 272.016C191.297 261.516 191.297 251.016 191.297 240.516C209.949 250.516 228.543 260.687 247.078 271.031C247.927 271.353 248.802 271.462 249.703 271.359C238.59 283.458 227.106 295.271 215.25 306.797C214.812 307.453 214.812 308.109 215.25 308.766C216.589 309.993 217.792 311.305 218.859 312.703C218.142 320.2 213.986 324.138 206.391 324.516C206.309 326.742 207.403 327.617 209.672 327.141C214.078 326.96 217.469 324.991 219.844 321.234C220.86 319.389 221.407 317.42 221.484 315.328C225.333 318.301 229.161 321.363 232.969 324.516C260.99 295.402 288.771 266.089 316.313 236.578C344.159 265.405 371.611 294.499 398.672 323.859Z" fill="#FBFDFD"/>
<path fill-rule="evenodd" clip-rule="evenodd" d="M352.734 224.109C353.387 230.772 353.606 237.553 353.391 244.453C352.734 244.235 352.297 243.797 352.078 243.141C352.73 236.915 352.949 230.572 352.734 224.109Z" fill="#E89885"/>
<path fill-rule="evenodd" clip-rule="evenodd" d="M188.016 239.203C188.016 251.453 188.016 263.703 188.016 275.953C183.119 271.824 178.306 267.558 173.578 263.156C171.782 262.447 170.688 262.995 170.297 264.797C171.214 266.704 172.526 268.345 174.234 269.719C178.553 273.933 183.147 277.761 188.016 281.203C188.125 286.021 188.016 290.833 187.687 295.641C181.609 289.919 175.593 284.122 169.641 278.25C163.285 277.704 156.942 277.814 150.609 278.578C149.568 279.855 149.786 280.84 151.266 281.531C156.953 281.75 162.64 281.969 168.328 282.187C174.805 288.338 181.368 294.354 188.016 300.234C188.016 309.422 188.016 318.609 188.016 327.797C184.081 323.972 180.034 320.253 175.875 316.641C175.212 312.362 174.666 308.096 174.234 303.844C173.612 303.439 173.065 303.548 172.594 304.172C172.156 308.766 172.156 313.359 172.594 317.953C177.432 323.776 182.791 329.026 188.672 333.703C188.672 335.453 188.672 337.203 188.672 338.953C184.392 338.741 180.236 338.96 176.203 339.609C165.132 345.473 153.975 351.161 142.734 356.672C142.625 327.796 142.734 298.921 143.062 270.047C143.497 269.073 144.044 268.198 144.703 267.422C157.93 258.254 171.274 249.175 184.734 240.187C185.735 239.525 186.829 239.197 188.016 239.203Z" fill="#FBFCFC"/>
<path fill-rule="evenodd" clip-rule="evenodd" d="M541.078 240.516C543.679 240.246 546.085 240.792 548.297 242.156C549.924 244.768 551.455 247.393 552.891 250.031C555.953 250.25 559.015 250.469 562.078 250.687C564.33 252.241 564.549 253.991 562.734 255.937C546.171 256.48 529.655 256.371 513.187 255.609C512.69 254.12 512.8 252.698 513.516 251.344C518.966 250.665 524.436 250.009 529.922 249.375C533.007 245.514 536.726 242.56 541.078 240.516Z" fill="#FCFCFA"/>
<path fill-rule="evenodd" clip-rule="evenodd" d="M188.016 239.203C189.249 239.025 190.124 239.463 190.641 240.516C189.987 240.459 189.44 240.678 189 241.172C188.672 252.982 188.562 264.795 188.672 276.609C188.234 276.609 188.016 276.391 188.016 275.953C188.016 263.703 188.016 251.453 188.016 239.203Z" fill="#98B7C2"/>
<path fill-rule="evenodd" clip-rule="evenodd" d="M94.1719 272.672C94.5827 277.321 94.145 281.695 92.8594 285.797C83.2729 279.811 76.3822 271.499 72.1875 260.859C70.3382 256.426 69.6819 251.833 70.2187 247.078C71.0397 244.07 73.0085 242.539 76.125 242.484C81.2017 243.838 84.9207 246.9 87.2812 251.672C91.4826 258.041 93.7794 265.042 94.1719 272.672Z" fill="#7CB6C1"/>
<path fill-rule="evenodd" clip-rule="evenodd" d="M430.172 258.234C428.318 258.509 426.897 257.853 425.906 256.266C425.509 257.566 424.853 257.785 423.938 256.922C423.543 257.996 423.215 259.089 422.953 260.203C423.926 261.996 424.801 263.855 425.578 265.781C425.257 267.082 424.6 268.176 423.609 269.063C424.44 269.265 425.206 269.593 425.906 270.047C425.791 272.211 425.9 274.07 426.234 275.625C425.797 275.844 425.36 276.063 424.922 276.281C425.797 276.719 425.797 277.156 424.922 277.594C424.047 277.812 423.172 278.031 422.297 278.25C423.479 278.458 423.697 278.896 422.953 279.563C421.431 279.364 419.9 278.926 418.359 278.25C418.92 277.579 419.576 277.033 420.328 276.609C421.059 275.807 421.169 274.932 420.656 273.984C419.111 275.51 417.47 276.385 415.734 276.609C415.28 276.265 414.952 275.827 414.75 275.297C413.86 275.874 412.876 276.094 411.797 275.953C411.596 274.06 411.815 272.31 412.453 270.703C412.251 272.294 412.47 273.825 413.109 275.297C416.129 274.203 418.754 272.672 420.984 270.703C421.975 271.595 422.412 271.267 422.297 269.719C420.726 267.123 419.413 264.389 418.359 261.516C420.702 261.113 420.921 260.237 419.016 258.891C418.428 259.551 417.991 259.551 417.703 258.891C418.275 257.868 418.931 256.774 419.672 255.609C419.875 254.493 419.547 253.399 418.688 252.328C418.469 252.766 418.25 253.203 418.031 253.641C417.331 253.187 416.565 252.859 415.734 252.656C416.034 252.385 416.253 252.056 416.391 251.672C415.496 250.758 414.95 249.664 414.75 248.391C414.315 249.941 413.987 251.582 413.766 253.313C415.343 253.646 415.781 254.412 415.078 255.609C412.974 256.468 410.786 256.905 408.516 256.922C408.306 261.411 408.306 265.895 408.516 270.375C408.231 275.552 407.575 280.693 406.547 285.797C407.218 287.955 406.78 289.924 405.234 291.703C404.44 291.195 404.44 290.649 405.234 290.063C404.845 289.758 404.407 289.648 403.922 289.734C405.18 288.241 405.836 286.491 405.891 284.484C405.168 274.65 405.059 264.807 405.562 254.953C405.827 251.707 406.702 248.645 408.188 245.766C410.628 243.533 413.363 243.205 416.391 244.781C421.315 248.941 425.909 253.425 430.172 258.234Z" fill="#0F426B"/>
<path fill-rule="evenodd" clip-rule="evenodd" d="M102.047 243.141C99.538 256.642 98.007 270.205 97.4531 283.828C96.5455 287.054 95.8893 290.335 95.4844 293.672C95.149 305.044 94.9305 316.419 94.8281 327.797C94.8281 334.578 94.8281 341.36 94.8281 348.141C94.9371 352.303 94.8281 356.459 94.5 360.609C93.3614 337.213 93.2525 313.807 94.1719 290.391C94.1719 289.078 94.1719 287.766 94.1719 286.453C95.0985 281.546 95.7547 276.515 96.1406 271.359C97.0764 260.155 98.3889 248.998 100.078 237.891C100.946 237.779 101.712 237.998 102.375 238.547C102.594 240.087 102.485 241.619 102.047 243.141Z" fill="#8EBDC4"/>
<path fill-rule="evenodd" clip-rule="evenodd" d="M386.203 219.516C386.42 239.097 386.202 258.566 385.547 277.922C384.891 277.703 384.453 277.266 384.234 276.609C384.234 270.485 384.234 264.359 384.234 258.234C384.234 245.328 384.234 232.422 384.234 219.516C384.891 219.516 385.547 219.516 386.203 219.516Z" fill="#E98171"/>
<path fill-rule="evenodd" clip-rule="evenodd" d="M95.4844 293.672C95.8893 290.335 96.5455 287.054 97.4531 283.828C99.9416 275.694 104.755 269.241 111.891 264.469C119.074 261.224 122.246 263.521 121.406 271.359C119.346 281.275 113.55 287.947 104.016 291.375C101.249 292.48 98.4053 293.246 95.4844 293.672Z" fill="#79B4BF"/>
<path fill-rule="evenodd" clip-rule="evenodd" d="M188.016 275.953C188.016 276.391 188.234 276.609 188.672 276.609C188.87 278.289 188.651 279.82 188.016 281.203C183.147 277.761 178.553 273.933 174.234 269.719C172.526 268.345 171.214 266.704 170.297 264.797C170.688 262.995 171.782 262.448 173.578 263.156C178.306 267.558 183.119 271.824 188.016 275.953Z" fill="#194F79"/>
<path fill-rule="evenodd" clip-rule="evenodd" d="M191.297 276.609C191.297 275.078 191.297 273.547 191.297 272.016C195.252 269.71 198.752 266.756 201.797 263.156C203.404 262.648 204.498 263.194 205.078 264.797C201.732 268.333 198.232 271.723 194.578 274.969C193.467 275.525 192.373 276.071 191.297 276.609Z" fill="#BDDCDF"/>
<path fill-rule="evenodd" clip-rule="evenodd" d="M227.391 104.672C226.516 107.735 225.64 110.797 224.766 113.859C219.829 115.622 215.564 118.466 211.969 122.391C202.653 136.661 204.294 149.677 216.891 161.438C219.184 162.319 220.934 163.742 222.141 165.703C221.057 172.243 218.541 178.149 214.594 183.422C212.277 185.079 210.745 187.267 210 189.984C209.459 197.099 209.568 204.099 210.328 210.984C210.546 217.343 210.327 223.687 209.672 230.016C205.69 227.531 201.643 225.125 197.531 222.797C189.251 228.521 180.829 233.989 172.266 239.203C172.375 235.696 172.265 232.196 171.938 228.703C171.54 226.703 170.555 225.062 168.984 223.781C164.879 221.895 161.816 222.989 159.797 227.062C156.922 226.807 154.625 227.792 152.906 230.016C152.347 233.601 152.675 237.102 153.891 240.516C153.244 242.663 152.807 244.85 152.578 247.078C152.539 248.82 152.976 250.352 153.891 251.672C147.521 256.829 140.849 261.641 133.875 266.109C132.233 268.969 132.78 271.157 135.516 272.672C138.416 270.648 141.479 268.898 144.703 267.422C144.044 268.198 143.497 269.073 143.062 270.047C142.734 298.921 142.625 327.796 142.734 356.672C137.574 359.36 132.542 362.203 127.641 365.203C135.18 365.856 142.836 366.075 150.609 365.859C150.609 390.578 150.609 415.297 150.609 440.016C148.824 440.319 147.074 440.757 145.359 441.328C145.958 440.516 146.067 439.64 145.688 438.703C133.451 427.583 123.935 414.458 117.141 399.328C124.774 387.089 125.54 374.402 119.438 361.266C117.571 358.738 115.165 356.988 112.219 356.016C109.443 356.385 107.694 357.916 106.969 360.609C106.641 364.76 106.532 368.916 106.641 373.078C105.794 372.712 105.247 372.056 105 371.109C100.895 357.366 98.051 343.366 96.4688 329.109C96.1951 328.285 95.6484 327.847 94.8281 327.797C94.9305 316.419 95.149 305.044 95.4844 293.672C98.4053 293.246 101.249 292.48 104.016 291.375C113.55 287.947 119.346 281.275 121.406 271.359C122.246 263.521 119.074 261.224 111.891 264.469C104.755 269.241 99.9416 275.694 97.4531 283.828C98.007 270.205 99.538 256.642 102.047 243.141C101.851 244.521 102.069 245.834 102.703 247.078C124.281 181.977 165.844 134.509 227.391 104.672Z" fill="#8AD3C1"/>
<path fill-rule="evenodd" clip-rule="evenodd" d="M212.953 277.922C220.172 277.922 227.391 277.922 234.609 277.922C234.845 279.409 234.407 280.612 233.297 281.531C226.516 281.969 219.734 281.969 212.953 281.531C212.132 280.332 212.132 279.129 212.953 277.922Z" fill="#7AAEBE"/>
<path fill-rule="evenodd" clip-rule="evenodd" d="M96.1406 271.359C95.7548 276.515 95.0985 281.546 94.1719 286.453C93.5209 286.566 93.0838 286.347 92.8594 285.797C94.145 281.695 94.5827 277.321 94.1719 272.672C94.5768 272.745 94.9049 272.963 95.1562 273.328C95.3085 272.516 95.6366 271.86 96.1406 271.359Z" fill="#C5DFE5"/>
<path fill-rule="evenodd" clip-rule="evenodd" d="M554.859 345.516C554.859 332.391 554.859 319.266 554.859 306.141C554.203 306.141 553.547 306.141 552.891 306.141C552.236 320.027 552.017 334.027 552.234 348.141C536.981 336.663 529.652 321.351 530.25 302.203C532.309 291.396 538.544 284.286 548.953 280.875C562.584 279.848 571.443 285.864 575.531 298.922C577.598 318.413 570.708 333.945 554.859 345.516Z" fill="#74B2BE"/>
<path fill-rule="evenodd" clip-rule="evenodd" d="M310.734 268.078C323.321 266.652 331.524 271.902 335.344 283.828C335.781 294.328 335.781 304.828 335.344 315.328C335.016 315.656 334.688 315.984 334.359 316.312C322.109 316.75 309.86 316.75 297.609 316.312C297.281 315.984 296.953 315.656 296.625 315.328C296.187 304.828 296.187 294.328 296.625 283.828C298.719 276.16 303.422 270.91 310.734 268.078Z" fill="#134873"/>
<path fill-rule="evenodd" clip-rule="evenodd" d="M317.297 277.922C322.116 278.803 324.959 281.647 325.828 286.453C322.985 286.453 320.14 286.453 317.297 286.453C317.297 283.61 317.297 280.765 317.297 277.922Z" fill="#F5F9F9"/>
<path fill-rule="evenodd" clip-rule="evenodd" d="M312.703 277.922C313.359 277.922 314.016 277.922 314.672 277.922C314.672 280.765 314.672 283.61 314.672 286.453C311.828 286.453 308.984 286.453 306.141 286.453C306.862 282.454 309.049 279.61 312.703 277.922Z" fill="#EFF5F6"/>
<path fill-rule="evenodd" clip-rule="evenodd" d="M306.141 290.391C306.141 290.172 306.141 289.953 306.141 289.734C308.766 289.734 311.391 289.734 314.016 289.734C314.016 291.922 314.016 294.11 314.016 296.297C311.609 296.297 309.203 296.297 306.797 296.297C307 294.188 306.782 292.22 306.141 290.391Z" fill="#FCFDFD"/>
<path fill-rule="evenodd" clip-rule="evenodd" d="M317.297 289.078C320.14 289.078 322.985 289.078 325.828 289.078C325.828 291.703 325.828 294.328 325.828 296.953C322.985 296.953 320.14 296.953 317.297 296.953C317.297 294.328 317.297 291.703 317.297 289.078Z" fill="#EEF4F4"/>
<path fill-rule="evenodd" clip-rule="evenodd" d="M190.641 240.516C190.859 240.516 191.078 240.516 191.297 240.516C191.297 251.016 191.297 261.516 191.297 272.016C191.297 273.547 191.297 275.078 191.297 276.609C191.188 280.116 191.298 283.616 191.625 287.109C200.515 279.75 209.593 272.64 218.859 265.781C220.451 265.134 221.544 265.572 222.141 267.094C211.965 275.626 201.685 284.048 191.297 292.359C190.755 295.081 190.427 297.925 190.313 300.891C189.649 300.341 188.883 300.123 188.016 300.234C181.368 294.354 174.805 288.339 168.328 282.188C162.64 281.969 156.953 281.75 151.266 281.531C149.786 280.84 149.568 279.855 150.609 278.578C156.942 277.814 163.286 277.704 169.641 278.25C175.593 284.122 181.609 289.919 187.688 295.641C188.016 290.833 188.125 286.021 188.016 281.203C188.651 279.82 188.87 278.289 188.672 276.609C188.562 264.795 188.672 252.982 189 241.172C189.44 240.678 189.987 240.459 190.641 240.516Z" fill="#73ADBA"/>
<path fill-rule="evenodd" clip-rule="evenodd" d="M306.141 289.734C308.854 289.088 311.698 288.869 314.672 289.078C314.672 291.703 314.672 294.328 314.672 296.953C311.828 296.953 308.984 296.953 306.141 296.953C306.141 294.766 306.141 292.578 306.141 290.391C306.782 292.22 307 294.188 306.797 296.297C309.203 296.297 311.609 296.297 314.016 296.297C314.016 294.11 314.016 291.922 314.016 289.734C311.391 289.734 308.766 289.734 306.141 289.734Z" fill="#C5D7DF"/>
<path fill-rule="evenodd" clip-rule="evenodd" d="M314.016 307.453C314.016 305.047 314.016 302.641 314.016 300.234C311.609 300.234 309.203 300.234 306.797 300.234C306.797 302.641 306.797 305.047 306.797 307.453C306.152 304.961 305.933 302.336 306.141 299.578C308.984 299.578 311.828 299.578 314.672 299.578C314.88 302.336 314.661 304.961 314.016 307.453Z" fill="#A8BFCE"/>
<path fill-rule="evenodd" clip-rule="evenodd" d="M314.016 307.453C311.609 307.453 309.203 307.453 306.797 307.453C306.797 305.047 306.797 302.641 306.797 300.234C309.203 300.234 311.609 300.234 314.016 300.234C314.016 302.641 314.016 305.047 314.016 307.453Z" fill="#FBFEFD"/>
<path fill-rule="evenodd" clip-rule="evenodd" d="M317.297 299.578C320.14 299.578 322.985 299.578 325.828 299.578C325.828 302.203 325.828 304.828 325.828 307.453C322.985 307.453 320.14 307.453 317.297 307.453C317.297 304.828 317.297 302.203 317.297 299.578Z" fill="#F4F9F9"/>
<path fill-rule="evenodd" clip-rule="evenodd" d="M124.359 300.234C128.454 299.602 131.407 301.133 133.219 304.828C133.654 311.618 132.123 317.962 128.625 323.859C121.793 333.241 113.372 340.897 103.359 346.828C101.523 332.517 104.913 319.611 113.531 308.109C116.723 304.793 120.333 302.168 124.359 300.234Z" fill="#76B3BF"/>
<path fill-rule="evenodd" clip-rule="evenodd" d="M191.297 292.359C191.08 304.286 191.299 316.099 191.953 327.797C191.122 329.616 191.122 331.366 191.953 333.047C191.361 334.944 191.142 336.913 191.297 338.953C205.297 338.953 219.297 338.953 233.297 338.953C233.297 339.172 233.297 339.391 233.297 339.609C233.078 339.609 232.859 339.609 232.641 339.609C226.516 339.609 220.39 339.609 214.266 339.609C201.578 339.609 188.89 339.609 176.203 339.609C180.236 338.96 184.392 338.741 188.672 338.953C188.672 337.203 188.672 335.453 188.672 333.703C188.827 331.663 188.608 329.694 188.016 327.797C188.016 318.609 188.016 309.422 188.016 300.234C188.883 300.123 189.649 300.341 190.312 300.891C190.427 297.925 190.755 295.081 191.297 292.359Z" fill="#7BA7BA"/>
<path fill-rule="evenodd" clip-rule="evenodd" d="M191.953 333.047C191.122 331.366 191.122 329.616 191.953 327.797C195.63 323.79 199.458 319.853 203.438 315.984C203.766 310.52 203.875 305.051 203.766 299.578C204.86 299.578 205.953 299.578 207.047 299.578C207.156 305.707 207.047 311.832 206.719 317.953C202.122 323.315 197.2 328.347 191.953 333.047Z" fill="#215172"/>
<path fill-rule="evenodd" clip-rule="evenodd" d="M67.2656 306.141C72.9953 306.107 77.6987 308.294 81.375 312.703C89.6004 322.057 92.4446 332.776 89.9062 344.859C77.301 339.035 68.5506 329.629 63.6562 316.641C62.2806 312.092 63.4837 308.592 67.2656 306.141Z" fill="#7AB5C1"/>
<path fill-rule="evenodd" clip-rule="evenodd" d="M157.828 311.391C158.696 311.279 159.462 311.498 160.125 312.047C160.734 319.546 164.78 323.702 172.266 324.516C172.218 326.78 171.015 327.654 168.656 327.141C159.989 325.332 156.38 320.082 157.828 311.391Z" fill="#70AABB"/>
<path fill-rule="evenodd" clip-rule="evenodd" d="M188.016 327.797C188.608 329.694 188.827 331.663 188.672 333.703C182.791 329.026 177.432 323.776 172.594 317.953C172.156 313.359 172.156 308.766 172.594 304.172C173.065 303.548 173.612 303.439 174.234 303.844C174.666 308.096 175.212 312.362 175.875 316.641C180.034 320.253 184.081 323.972 188.016 327.797Z" fill="#27567B"/>
<path fill-rule="evenodd" clip-rule="evenodd" d="M218.859 312.703C219.953 313.359 220.828 314.234 221.484 315.328C221.407 317.42 220.86 319.389 219.844 321.234C217.469 324.991 214.078 326.96 209.672 327.141C207.403 327.617 206.309 326.742 206.391 324.516C213.986 324.138 218.142 320.2 218.859 312.703Z" fill="#7EB3BE"/>
<path fill-rule="evenodd" clip-rule="evenodd" d="M503.016 353.391C506.07 359.061 509.461 364.53 513.188 369.797C519.871 377.501 526.543 385.156 533.203 392.766C539.487 400.742 545.613 408.835 551.578 417.047C551.618 417.403 551.836 417.622 552.234 417.703C552.765 416.441 553.093 415.129 553.219 413.766C553.437 414.64 553.656 415.516 553.875 416.391C553.927 414.923 554.255 414.048 554.859 413.766C554.75 416.618 554.86 419.461 555.188 422.297C566.638 440.361 574.403 459.83 578.484 480.703C578.484 481.797 578.484 482.89 578.484 483.984C578.914 496.691 578.476 509.16 577.172 521.391C549.957 505.704 522.832 489.845 495.797 473.812C486.537 468.527 477.131 463.605 467.578 459.047C470.047 434.594 471.688 410.094 472.5 385.547C470.696 376.091 465.336 369.638 456.422 366.187C445.083 365.268 438.192 370.408 435.75 381.609C435.312 383.797 435.312 385.985 435.75 388.172C439.306 409.339 442.478 430.558 445.266 451.828C435.797 450.485 426.391 449.391 417.047 448.547C416.641 441.864 415.985 435.302 415.078 428.859C413.163 410.203 411.851 391.5 411.141 372.75C410.582 362.968 412.332 353.671 416.391 344.859C416.091 344.336 415.653 344.117 415.078 344.203C408.804 337.776 404.211 330.338 401.297 321.891C399.341 312.824 399.559 303.855 401.953 294.984C402.106 292.988 402.762 291.238 403.922 289.734C404.407 289.648 404.845 289.758 405.234 290.062C404.44 290.648 404.44 291.195 405.234 291.703C406.781 289.924 407.218 287.955 406.547 285.797C407.575 280.693 408.231 275.551 408.516 270.375C408.306 265.895 408.306 261.411 408.516 256.922C410.786 256.905 412.974 256.468 415.078 255.609C415.781 254.412 415.343 253.646 413.766 253.312C413.987 251.582 414.315 249.941 414.75 248.391C414.95 249.664 415.496 250.758 416.391 251.672C416.253 252.056 416.034 252.385 415.734 252.656C416.565 252.859 417.331 253.187 418.031 253.641C418.25 253.203 418.469 252.766 418.688 252.328C419.547 253.399 419.875 254.493 419.672 255.609C418.931 256.774 418.275 257.868 417.703 258.891C417.991 259.551 418.428 259.551 419.016 258.891C420.921 260.237 420.702 261.113 418.359 261.516C419.413 264.389 420.726 267.123 422.297 269.719C422.412 271.267 421.975 271.595 420.984 270.703C419.369 266.161 417.072 262.004 414.094 258.234C412.976 262.318 412.429 266.474 412.453 270.703C411.815 272.31 411.596 274.06 411.797 275.953C412.876 276.094 413.86 275.874 414.75 275.297C414.952 275.827 415.28 276.265 415.734 276.609C417.47 276.385 419.111 275.51 420.656 273.984C421.169 274.932 421.059 275.807 420.328 276.609C419.576 277.033 418.92 277.579 418.359 278.25C419.9 278.926 421.431 279.364 422.953 279.562C423.697 278.896 423.479 278.458 422.297 278.25C423.172 278.031 424.047 277.812 424.922 277.594C425.797 277.156 425.797 276.719 424.922 276.281C425.36 276.063 425.797 275.843 426.234 275.625C425.9 274.07 425.791 272.21 425.906 270.047C425.206 269.593 424.44 269.265 423.609 269.062C424.6 268.176 425.257 267.082 425.578 265.781C424.801 263.855 423.926 261.996 422.953 260.203C423.215 259.089 423.543 257.996 423.938 256.922C424.853 257.785 425.509 257.566 425.906 256.266C426.897 257.853 428.318 258.509 430.172 258.234C432.816 260.552 435.332 262.957 437.719 265.453C441.668 264.072 445.715 263.197 449.859 262.828C458.58 262.422 467.112 263.516 475.453 266.109C477.824 264.833 479.793 263.083 481.359 260.859C487.351 255.636 493.257 250.276 499.078 244.781C501.351 244.245 503.539 244.464 505.641 245.437C507.258 247.438 508.242 249.735 508.594 252.328C509.158 263.839 508.83 275.323 507.609 286.781C516.225 307.933 512.944 326.965 497.766 343.875C499.44 347.117 501.191 350.289 503.016 353.391Z" fill="#09416E"/>
<path fill-rule="evenodd" clip-rule="evenodd" d="M484.641 324.516C488.34 325.39 492.059 326.265 495.797 327.141C495.578 327.359 495.359 327.578 495.141 327.797C491.107 326.992 487.17 326.117 483.328 325.172C483.979 325.285 484.416 325.066 484.641 324.516Z" fill="#A5C4D2"/>
<path fill-rule="evenodd" clip-rule="evenodd" d="M423.609 323.203C423.609 323.422 423.609 323.641 423.609 323.859C418.76 325.181 413.948 326.056 409.172 326.484C413.846 324.769 418.659 323.675 423.609 323.203Z" fill="#AEC2CB"/>
<path fill-rule="evenodd" clip-rule="evenodd" d="M424.922 317.297C425.123 319.19 424.904 320.94 424.266 322.547C424.215 321.727 423.777 321.18 422.953 320.906C417.924 320.11 412.893 319.344 407.859 318.609C408.297 318.391 408.734 318.172 409.172 317.953C414.231 318.429 419.262 319.085 424.266 319.922C424.409 319.151 424.191 318.495 423.609 317.953C419.453 316.094 415.297 314.234 411.141 312.375C411.797 311.937 412.453 311.937 413.109 312.375C416.986 314.205 420.923 315.846 424.922 317.297Z" fill="#C0D6DC"/>
<path fill-rule="evenodd" clip-rule="evenodd" d="M486.609 315.328C488.301 313.825 490.269 313.06 492.516 313.031C490.692 314.161 488.723 314.927 486.609 315.328Z" fill="#B1CAD8"/>
<path fill-rule="evenodd" clip-rule="evenodd" d="M486.609 315.328C484.853 316.614 482.884 317.599 480.703 318.281C480.154 318.945 479.935 319.71 480.047 320.578C485.513 320.156 490.983 320.046 496.453 320.25C491.218 320.862 485.968 321.299 480.703 321.562C479.828 322.437 479.828 323.313 480.703 324.187C481.998 324.512 483.31 324.622 484.641 324.516C484.416 325.065 483.979 325.285 483.328 325.172C481.831 324.894 480.737 325.332 480.047 326.484C479.454 326.95 479.235 327.606 479.391 328.453C476.113 335.581 470.644 340.284 462.984 342.562C446.159 346.826 433.254 341.685 424.266 327.141C424.266 326.922 424.266 326.703 424.266 326.484C424.903 325.525 424.684 324.65 423.609 323.859C423.609 323.641 423.609 323.422 423.609 323.203C424.047 323.203 424.266 322.985 424.266 322.547C424.904 320.94 425.123 319.19 424.922 317.297C428.471 309.048 434.596 303.689 443.297 301.219C456.562 298.131 467.827 301.522 477.094 311.391C477.977 313.602 479.18 315.571 480.703 317.297C482.624 316.443 484.593 315.787 486.609 315.328Z" fill="#F7FAFB"/>
<path fill-rule="evenodd" clip-rule="evenodd" d="M453.797 321.234C453.885 322.41 453.666 323.504 453.141 324.516C451.335 325.989 449.586 327.63 447.891 329.438C440.593 333.341 434.14 332.357 428.531 326.484C428.207 325.412 428.098 324.318 428.203 323.203C428.894 323.105 429.55 323.214 430.172 323.531C434.548 329.598 440.017 330.692 446.578 326.813C450.096 324.265 451.518 320.874 450.844 316.641C446.889 315.041 444.701 312.197 444.281 308.109C444.874 307.321 445.639 306.774 446.578 306.469C450.078 306.031 453.578 306.031 457.078 306.469C461.324 306.879 462.09 308.738 459.375 312.047C457.819 313.823 456.069 315.354 454.125 316.641C453.799 318.157 453.69 319.688 453.797 321.234Z" fill="#164771"/>
<path fill-rule="evenodd" clip-rule="evenodd" d="M471.516 290.391C477.442 290.297 479.957 293.142 479.063 298.922C475.282 303.281 471.563 303.281 467.906 298.922C467.469 297.172 467.469 295.422 467.906 293.672C469.042 292.424 470.244 291.33 471.516 290.391Z" fill="#EEF5F6"/>
<path fill-rule="evenodd" clip-rule="evenodd" d="M471.516 293.016C476.804 292.783 478.116 294.971 475.453 299.578C472.259 300.715 470.29 299.621 469.547 296.297C469.935 295.035 470.592 293.942 471.516 293.016Z" fill="#143F67"/>
<path fill-rule="evenodd" clip-rule="evenodd" d="M430.828 290.391C437.18 289.851 439.695 292.695 438.375 298.922C434.594 303.281 430.875 303.281 427.219 298.922C426.781 297.172 426.781 295.422 427.219 293.672C428.354 292.424 429.557 291.33 430.828 290.391Z" fill="#EFF5F6"/>
<path fill-rule="evenodd" clip-rule="evenodd" d="M430.828 293.016C436.147 292.399 437.678 294.477 435.422 299.25C429.457 300.677 427.926 298.598 430.828 293.016Z" fill="#154369"/>
<path fill-rule="evenodd" clip-rule="evenodd" d="M500.391 270.703C501.249 273.012 501.249 275.418 500.391 277.922C499.578 277.632 498.921 277.194 498.422 276.609C499.078 276.609 499.734 276.609 500.391 276.609C500.391 274.641 500.391 272.672 500.391 270.703Z" fill="#7C5D66"/>
<path fill-rule="evenodd" clip-rule="evenodd" d="M500.391 270.703C500.391 272.672 500.391 274.641 500.391 276.609C499.734 276.609 499.078 276.609 498.422 276.609C496.365 275.69 494.396 274.596 492.516 273.328C491.773 272.295 491.664 271.201 492.188 270.047C494.431 266.216 496.836 262.497 499.406 258.891C500.332 262.749 500.66 266.686 500.391 270.703Z" fill="#E67769"/>
<path fill-rule="evenodd" clip-rule="evenodd" d="M420.984 270.703C418.754 272.672 416.129 274.203 413.109 275.297C412.47 273.825 412.251 272.294 412.453 270.703C412.429 266.474 412.975 262.318 414.094 258.234C417.072 262.004 419.369 266.161 420.984 270.703Z" fill="#E0726C"/>
<path fill-rule="evenodd" clip-rule="evenodd" d="M424.266 326.484C424.266 326.703 424.266 326.922 424.266 327.141C422.102 328.519 419.696 329.395 417.047 329.766C419.333 328.515 421.739 327.421 424.266 326.484Z" fill="#ABC3D0"/>
<path fill-rule="evenodd" clip-rule="evenodd" d="M453.797 321.234C457.92 329.089 464.046 331.167 472.172 327.469C473.379 325.717 474.692 324.077 476.109 322.547C477.711 323.878 477.821 325.409 476.438 327.141C470.412 333.134 463.74 333.899 456.422 329.438C454.907 328.041 453.814 326.4 453.141 324.516C453.666 323.504 453.885 322.41 453.797 321.234Z" fill="#265272"/>
<path fill-rule="evenodd" clip-rule="evenodd" d="M398.672 329.109C398.672 332.391 398.672 335.672 398.672 338.953C343.547 338.953 288.422 338.953 233.297 338.953C233.297 335.672 233.297 332.391 233.297 329.109C288.422 329.109 343.547 329.109 398.672 329.109Z" fill="#B6D7DB"/>
<path fill-rule="evenodd" clip-rule="evenodd" d="M480.047 326.484C480.027 327.139 480.355 327.576 481.031 327.797C485.37 329.315 489.636 330.955 493.828 332.719C489.008 331.523 484.195 330.101 479.391 328.453C479.235 327.606 479.454 326.95 480.047 326.484Z" fill="#C4D9E1"/>
<path fill-rule="evenodd" clip-rule="evenodd" d="M417.047 329.766C415.431 331.247 413.681 331.904 411.797 331.734C413.418 330.703 415.168 330.047 417.047 329.766Z" fill="#C4DBE5"/>
<path fill-rule="evenodd" clip-rule="evenodd" d="M401.297 321.891C404.211 330.339 408.804 337.776 415.078 344.203C414.503 344.117 414.066 344.336 413.766 344.859C412.321 346.963 411.884 349.151 412.453 351.422C410.858 358.775 409.984 366.212 409.828 373.734C410.33 388.063 411.315 402.282 412.781 416.391C413 416.172 413.219 415.953 413.438 415.734C413.967 419.617 413.858 423.445 413.109 427.219C413.64 430.774 413.968 434.383 414.094 438.047C414.208 434.863 414.536 431.801 415.078 428.859C415.985 435.302 416.641 441.864 417.047 448.547C410.896 448.382 404.77 448.601 398.672 449.203C398.672 412.453 398.672 375.703 398.672 338.953C398.672 335.672 398.672 332.391 398.672 329.109C398.672 327.359 398.672 325.61 398.672 323.859C399.547 323.203 400.422 322.547 401.297 321.891Z" fill="#FDEDDB"/>
<path fill-rule="evenodd" clip-rule="evenodd" d="M233.297 338.953C288.422 338.953 343.547 338.953 398.672 338.953C398.672 375.703 398.672 412.453 398.672 449.203C388.563 450.448 378.501 451.979 368.484 453.797C368.594 434.327 368.484 414.858 368.156 395.391C363.036 368.832 347.177 353.41 320.578 349.125C295.285 348.611 277.457 359.876 267.094 382.922C265.598 386.754 264.504 390.691 263.812 394.734C263.484 411.577 263.375 428.42 263.484 445.266C266.571 445.224 269.633 445.443 272.672 445.922C278.327 447.328 283.358 449.953 287.766 453.797C284.041 453.688 280.322 453.798 276.609 454.125C275.023 457.16 272.507 458.363 269.062 457.734C265.313 457.645 261.704 456.879 258.234 455.438C253.32 450.789 253.977 447.289 260.203 444.938C253.276 445.646 246.932 444.115 241.172 440.344C238.278 435.378 235.762 430.238 233.625 424.922C231.6 422.105 228.867 420.574 225.422 420.328C222.131 418.924 219.725 419.799 218.203 422.953C220.14 423.045 221.89 423.92 223.453 425.578C225.369 428.966 226.9 432.465 228.047 436.078C227.555 444.844 229.195 453.157 232.969 461.016C237.952 466.735 244.187 470.345 251.672 471.844C259.028 473.442 266.465 474.208 273.984 474.141C273.98 475.679 273.215 476.554 271.688 476.766C252.215 473.276 232.637 470.542 212.953 468.562C207.598 464.681 202.13 460.962 196.547 457.406C187.518 453.22 178.549 448.845 169.641 444.281C163.642 441.305 157.298 439.883 150.609 440.016C150.609 415.297 150.609 390.578 150.609 365.859C178.172 365.859 205.734 365.859 233.297 365.859C233.297 357.11 233.297 348.359 233.297 339.609C233.297 339.391 233.297 339.172 233.297 338.953Z" fill="#FCFDFD"/>
<path fill-rule="evenodd" clip-rule="evenodd" d="M176.203 339.609C188.89 339.609 201.578 339.609 214.266 339.609C212.388 348.032 211.295 356.563 210.984 365.203C183.203 365.203 155.422 365.203 127.641 365.203C132.542 362.203 137.574 359.36 142.734 356.672C153.975 351.161 165.132 345.473 176.203 339.609Z" fill="#327795"/>
<path fill-rule="evenodd" clip-rule="evenodd" d="M214.266 339.609C220.39 339.609 226.516 339.609 232.641 339.609C232.641 348.141 232.641 356.672 232.641 365.203C225.422 365.203 218.203 365.203 210.984 365.203C211.295 356.563 212.388 348.032 214.266 339.609Z" fill="#08436F"/>
<path fill-rule="evenodd" clip-rule="evenodd" d="M543.047 387.516C535.354 383.177 527.807 378.583 520.406 373.734C519.952 374.079 519.624 374.517 519.422 375.047C521.902 377.276 524.527 379.354 527.297 381.281C533.028 384.36 538.496 387.75 543.703 391.453C540.262 392.316 536.762 392.754 533.203 392.766C526.543 385.156 519.871 377.501 513.188 369.797C509.461 364.53 506.07 359.061 503.016 353.391C512.698 348.272 521.667 349.256 529.922 356.344C537.561 365.374 541.936 375.765 543.047 387.516Z" fill="#75B2BD"/>
<path fill-rule="evenodd" clip-rule="evenodd" d="M354.703 384.891C355.168 388.281 355.934 391.562 357 394.734C357.861 414.631 358.189 434.537 357.984 454.453C337.539 456.658 317.195 459.502 296.953 462.984C297.102 461.388 296.446 460.294 294.984 459.703C292.772 457.491 290.366 455.522 287.766 453.797C283.358 449.953 278.327 447.328 272.672 445.922C273.218 428.971 273.546 411.908 273.656 394.734C277.952 376.22 289.217 364.298 307.453 358.969C324.836 356.455 338.945 362.033 349.781 375.703C351.939 378.488 353.58 381.55 354.703 384.891Z" fill="#EA7D6E"/>
<path fill-rule="evenodd" clip-rule="evenodd" d="M552.891 306.141C553.547 306.141 554.203 306.141 554.859 306.141C554.859 319.266 554.859 332.391 554.859 345.516C554.859 359.515 554.859 373.516 554.859 387.516C554.317 390.676 553.989 393.957 553.875 397.359C553.212 396.81 552.446 396.592 551.578 396.703C548.953 394.953 546.328 393.203 543.703 391.453C538.496 387.75 533.028 384.36 527.297 381.281C524.527 379.354 521.902 377.275 519.422 375.047C519.624 374.517 519.952 374.079 520.406 373.734C527.807 378.583 535.354 383.176 543.047 387.516C545.801 389.654 548.645 391.623 551.578 393.422C551.618 393.778 551.836 393.997 552.234 394.078C552.891 364.769 553.109 335.457 552.891 306.141Z" fill="#1C4F76"/>
<path fill-rule="evenodd" clip-rule="evenodd" d="M117.141 399.328C111.983 391.304 108.483 382.554 106.641 373.078C106.532 368.916 106.641 364.76 106.969 360.609C107.694 357.916 109.443 356.385 112.219 356.016C115.165 356.988 117.571 358.738 119.437 361.266C125.54 374.402 124.774 387.089 117.141 399.328Z" fill="#77B4BF"/>
<path fill-rule="evenodd" clip-rule="evenodd" d="M584.391 413.109C575.961 413.476 567.649 412.82 559.453 411.141C568.08 403.942 576.829 396.832 585.703 389.813C584.986 388.917 584.111 388.698 583.078 389.156C575.285 395.313 567.41 401.329 559.453 407.203C559.406 403.236 559.734 399.299 560.438 395.391C562.73 382.905 568.964 373.061 579.141 365.859C590.399 360.295 600.57 361.827 609.656 370.453C618 385.323 615.266 397.901 601.453 408.188C596.276 411.627 590.589 413.268 584.391 413.109Z" fill="#76B3BF"/>
<path fill-rule="evenodd" clip-rule="evenodd" d="M232.641 339.609C232.859 339.609 233.078 339.609 233.297 339.609C233.297 348.359 233.297 357.11 233.297 365.859C205.734 365.859 178.172 365.859 150.609 365.859C142.836 366.075 135.18 365.856 127.641 365.203C155.422 365.203 183.203 365.203 210.984 365.203C218.203 365.203 225.422 365.203 232.641 365.203C232.641 356.672 232.641 348.141 232.641 339.609Z" fill="#8AA9BF"/>
<path fill-rule="evenodd" clip-rule="evenodd" d="M467.578 459.047C460.138 456.64 452.7 454.233 445.266 451.828C442.478 430.558 439.306 409.339 435.75 388.172C435.312 385.985 435.312 383.797 435.75 381.609C438.192 370.409 445.083 365.268 456.422 366.188C465.336 369.638 470.696 376.091 472.5 385.547C471.688 410.094 470.047 434.594 467.578 459.047Z" fill="#FCFCFD"/>
<path fill-rule="evenodd" clip-rule="evenodd" d="M94.1719 290.391C93.2524 313.807 93.3614 337.213 94.5 360.609C94.8281 356.459 94.937 352.303 94.8281 348.141C94.498 363.884 98.1074 378.759 105.656 392.766C108.733 398.125 111.905 403.375 115.172 408.516C114.352 408.566 113.805 409.004 113.531 409.828C111.953 409.32 110.312 408.992 108.609 408.844C108.031 408.379 107.594 407.832 107.297 407.203C109.042 407.759 110.792 408.087 112.547 408.188C109.613 403.396 106.551 398.693 103.359 394.078C102.961 394.16 102.742 394.378 102.703 394.734C101.933 394.069 101.496 393.194 101.391 392.109C101.876 392.195 102.313 392.086 102.703 391.781C97.0069 381.472 93.8352 370.425 93.1875 358.641C92.7498 340.266 92.7498 321.891 93.1875 303.516C93.3004 299.023 93.6285 294.648 94.1719 290.391Z" fill="#9BC9D1"/>
<path fill-rule="evenodd" clip-rule="evenodd" d="M552.891 306.141C553.109 335.457 552.891 364.769 552.234 394.078C551.836 393.997 551.617 393.778 551.578 393.422C552.233 378.442 552.452 363.348 552.234 348.141C552.017 334.027 552.236 320.027 552.891 306.141Z" fill="#446F8D"/>
<path fill-rule="evenodd" clip-rule="evenodd" d="M368.484 453.797C366.078 453.797 363.672 453.797 361.266 453.797C360.609 453.797 359.953 453.797 359.297 453.797C359.514 435.309 359.296 416.934 358.641 398.672C358.37 393.713 357.058 389.12 354.703 384.891C353.58 381.55 351.939 378.488 349.781 375.703C338.945 362.033 324.836 356.455 307.453 358.969C289.217 364.298 277.952 376.22 273.656 394.734C273.546 411.908 273.218 428.971 272.672 445.922C269.633 445.443 266.571 445.224 263.484 445.266C263.375 428.42 263.484 411.577 263.813 394.734C264.504 390.691 265.598 386.754 267.094 382.922C277.457 359.876 295.285 348.611 320.578 349.125C347.177 353.41 363.036 368.832 368.156 395.391C368.484 414.858 368.594 434.327 368.484 453.797Z" fill="#14446D"/>
<path fill-rule="evenodd" clip-rule="evenodd" d="M101.391 392.109C101.496 393.194 101.933 394.069 102.703 394.734C103.136 395.809 103.573 396.903 104.016 398.016C88.2643 397.697 75.9052 391.135 66.9375 378.328C63.1668 365.695 67.2138 362.304 79.0781 368.156C88.4671 374.372 95.9051 382.356 101.391 392.109Z" fill="#7AB5C1"/>
<path fill-rule="evenodd" clip-rule="evenodd" d="M415.078 344.203C415.653 344.117 416.091 344.336 416.391 344.859C412.332 353.671 410.582 362.968 411.141 372.75C411.851 391.5 413.163 410.204 415.078 428.859C414.536 431.801 414.208 434.863 414.094 438.047C413.968 434.383 413.64 430.774 413.109 427.219C413.858 423.445 413.967 419.617 413.438 415.734C413.219 415.953 413 416.172 412.781 416.391C411.315 402.282 410.33 388.063 409.828 373.734C409.984 366.212 410.858 358.775 412.453 351.422C411.884 349.151 412.321 346.963 413.766 344.859C414.066 344.336 414.503 344.117 415.078 344.203Z" fill="#E8E5DC"/>
<path fill-rule="evenodd" clip-rule="evenodd" d="M296.297 382.266C297.412 382.161 298.506 382.27 299.578 382.594C301.656 384.672 303.734 386.75 305.813 388.828C306.134 389.677 306.244 390.552 306.141 391.453C305.24 391.556 304.364 391.447 303.516 391.125C301.219 388.828 298.922 386.531 296.625 384.234C296.308 383.612 296.199 382.956 296.297 382.266Z" fill="#2C3C63"/>
<path fill-rule="evenodd" clip-rule="evenodd" d="M130.922 384.891C133.498 384.593 135.576 385.468 137.156 387.516C138.434 389.999 139.309 392.624 139.781 395.391C140.219 401.953 140.219 408.516 139.781 415.078C139.659 416.653 139.331 418.185 138.797 419.672C132.394 416.068 128.565 410.599 127.313 403.266C126.589 397.89 127.027 392.64 128.625 387.516C129.528 386.725 130.293 385.85 130.922 384.891Z" fill="#74B2BD"/>
<path fill-rule="evenodd" clip-rule="evenodd" d="M332.391 382.266C333.265 382.266 334.141 382.266 335.016 382.266C334.707 384.893 333.394 386.97 331.078 388.5C329.795 389.125 328.701 390.001 327.797 391.125C326.948 391.447 326.073 391.556 325.172 391.453C325.069 390.552 325.178 389.677 325.5 388.828C328.126 386.968 330.423 384.78 332.391 382.266Z" fill="#344062"/>
<path fill-rule="evenodd" clip-rule="evenodd" d="M194.578 375.703C194.528 376.524 194.09 377.07 193.266 377.344C194.875 377.534 196.406 377.971 197.859 378.656C197.663 379.523 197.554 380.507 197.531 381.609C196.875 381.172 196.219 380.735 195.562 380.297C194.339 381.723 192.917 381.942 191.297 380.953C189.215 382.323 187.027 383.526 184.734 384.563C184.157 385.452 183.938 386.437 184.078 387.516C184.053 388.226 183.833 388.883 183.422 389.484C185.789 390.133 188.195 390.353 190.641 390.141C190.641 387.734 190.641 385.328 190.641 382.922C191.068 383.31 191.506 383.747 191.953 384.234C192.392 386.076 192.829 387.825 193.266 389.484C193.266 389.922 193.484 390.141 193.922 390.141C193.849 390.546 193.631 390.874 193.266 391.125C194.797 391.344 196.328 391.563 197.859 391.781C197.494 392.033 197.276 392.361 197.203 392.766C195.891 392.766 194.578 392.766 193.266 392.766C193.266 394.953 193.266 397.141 193.266 399.328C195.672 399.328 198.078 399.328 200.484 399.328C197.18 400.311 193.898 400.093 190.641 398.672C190.641 396.703 190.641 394.734 190.641 392.766C188.234 392.766 185.828 392.766 183.422 392.766C182.602 392.715 182.055 392.277 181.781 391.453C181.788 395.179 181.241 398.788 180.141 402.281C180.711 403.508 181.476 403.836 182.438 403.266C182.56 404.93 182.888 406.461 183.422 407.859C186.168 408.297 189.012 408.734 191.953 409.172C191.735 409.61 191.515 410.047 191.297 410.484C195.713 411.046 200.087 411.811 204.422 412.781C201.797 413.219 199.172 413.219 196.547 412.781C196.765 412.563 196.985 412.344 197.203 412.125C195.672 411.687 194.14 411.687 192.609 412.125C193.703 412.344 194.797 412.563 195.891 412.781C189.329 413.182 182.767 413.51 176.203 413.766C176.203 405.453 176.203 397.141 176.203 388.828C177.167 382.939 180.448 378.893 186.047 376.688C188.837 375.903 191.681 375.575 194.578 375.703Z" fill="#0C4371"/>
<path fill-rule="evenodd" clip-rule="evenodd" d="M190.641 382.922C190.641 385.328 190.641 387.734 190.641 390.141C188.195 390.353 185.789 390.133 183.422 389.484C183.833 388.883 184.053 388.226 184.078 387.516C185.546 385.026 187.733 383.495 190.641 382.922Z" fill="#E7EFF3"/>
<path fill-rule="evenodd" clip-rule="evenodd" d="M543.703 391.453C546.328 393.203 548.953 394.953 551.578 396.703C552.443 403.548 552.443 410.33 551.578 417.047C545.613 408.835 539.487 400.742 533.203 392.766C536.762 392.754 540.262 392.316 543.703 391.453Z" fill="#FAEDDD"/>
<path fill-rule="evenodd" clip-rule="evenodd" d="M194.578 375.703C200.915 377.112 205.399 380.83 208.031 386.859C208.359 396.044 208.469 405.232 208.359 414.422C197.422 414.422 186.485 414.422 175.547 414.422C175.331 405.774 175.55 397.243 176.203 388.828C176.203 397.141 176.203 405.453 176.203 413.766C182.767 413.51 189.329 413.182 195.891 412.781C194.797 412.563 193.703 412.344 192.609 412.125C194.14 411.687 195.672 411.687 197.203 412.125C196.985 412.344 196.765 412.563 196.547 412.781C199.172 413.219 201.797 413.219 204.422 412.781C200.087 411.811 195.713 411.045 191.297 410.484C191.515 410.047 191.735 409.61 191.953 409.172C189.012 408.734 186.168 408.296 183.422 407.859C182.888 406.461 182.56 404.93 182.437 403.266C181.476 403.836 180.711 403.508 180.141 402.281C181.241 398.788 181.788 395.179 181.781 391.453C182.055 392.277 182.602 392.715 183.422 392.766C183.422 394.953 183.422 397.141 183.422 399.328C185.962 399.535 188.369 399.316 190.641 398.672C193.898 400.093 197.179 400.311 200.484 399.328C201.127 397.277 201.346 395.09 201.141 392.766C199.828 392.766 198.516 392.766 197.203 392.766C197.276 392.361 197.494 392.033 197.859 391.781C196.328 391.563 194.797 391.344 193.266 391.125C193.63 390.874 193.849 390.546 193.922 390.141C196.109 390.141 198.297 390.141 200.484 390.141C200.17 386.105 197.983 383.698 193.922 382.922C193.274 385.066 193.056 387.254 193.266 389.484C192.829 387.825 192.391 386.076 191.953 384.234C191.506 383.747 191.068 383.31 190.641 382.922C187.733 383.495 185.545 385.026 184.078 387.516C183.938 386.437 184.157 385.452 184.734 384.562C187.027 383.526 189.215 382.323 191.297 380.953C192.917 381.942 194.339 381.723 195.562 380.297C196.219 380.735 196.875 381.172 197.531 381.609C197.554 380.507 197.663 379.523 197.859 378.656C196.406 377.971 194.875 377.534 193.266 377.344C194.09 377.07 194.528 376.523 194.578 375.703Z" fill="#164872"/>
<path fill-rule="evenodd" clip-rule="evenodd" d="M197.203 392.766C198.516 392.766 199.828 392.766 201.141 392.766C201.346 395.09 201.127 397.277 200.484 399.328C198.078 399.328 195.672 399.328 193.266 399.328C193.266 397.141 193.266 394.953 193.266 392.766C194.578 392.766 195.891 392.766 197.203 392.766Z" fill="#F1F5F6"/>
<path fill-rule="evenodd" clip-rule="evenodd" d="M183.422 392.766C185.828 392.766 188.234 392.766 190.641 392.766C190.641 394.734 190.641 396.703 190.641 398.672C188.369 399.316 185.962 399.535 183.422 399.328C183.422 397.141 183.422 394.953 183.422 392.766Z" fill="#F4F8FA"/>
<path fill-rule="evenodd" clip-rule="evenodd" d="M193.922 390.141C193.484 390.141 193.266 389.922 193.266 389.484C193.056 387.254 193.274 385.066 193.922 382.922C197.983 383.698 200.17 386.105 200.484 390.141C198.297 390.141 196.109 390.141 193.922 390.141Z" fill="#EAEFF2"/>
<path fill-rule="evenodd" clip-rule="evenodd" d="M193.266 401.953C195.891 401.953 198.516 401.953 201.141 401.953C201.141 403.703 201.141 405.453 201.141 407.203C198.516 407.203 195.891 407.203 193.266 407.203C193.266 405.453 193.266 403.703 193.266 401.953Z" fill="#F3F7F9"/>
<path fill-rule="evenodd" clip-rule="evenodd" d="M183.422 407.859C183.422 405.891 183.422 403.922 183.422 401.953C185.828 401.953 188.234 401.953 190.641 401.953C190.641 403.922 190.641 405.891 190.641 407.859C188.234 407.859 185.828 407.859 183.422 407.859Z" fill="#EFF4F7"/>
<path fill-rule="evenodd" clip-rule="evenodd" d="M354.703 384.891C357.058 389.119 358.37 393.713 358.641 398.672C358.641 417.265 358.641 435.86 358.641 454.453C358.422 454.453 358.203 454.453 357.984 454.453C358.189 434.537 357.861 414.631 357 394.734C355.934 391.562 355.168 388.281 354.703 384.891Z" fill="#E48D7E"/>
<path fill-rule="evenodd" clip-rule="evenodd" d="M554.859 387.516C554.641 394.966 554.86 402.403 555.516 409.828C557.018 409.194 558.331 408.319 559.453 407.203C567.41 401.329 575.285 395.313 583.078 389.156C584.111 388.698 584.986 388.917 585.703 389.812C576.829 396.832 568.08 403.942 559.453 411.141C557.833 411.842 556.302 412.717 554.859 413.766C554.255 414.048 553.927 414.923 553.875 416.391C553.656 415.516 553.437 414.64 553.219 413.766C553.093 415.129 552.765 416.441 552.234 417.703C551.836 417.622 551.617 417.403 551.578 417.047C552.443 410.33 552.443 403.548 551.578 396.703C552.446 396.592 553.212 396.81 553.875 397.359C553.989 393.957 554.317 390.676 554.859 387.516Z" fill="#245573"/>
<path fill-rule="evenodd" clip-rule="evenodd" d="M107.297 407.203C107.594 407.832 108.031 408.379 108.609 408.844C110.312 408.992 111.953 409.32 113.531 409.828C113.805 409.004 114.352 408.566 115.172 408.516C117.536 411.21 120.051 413.835 122.719 416.391C125.402 421.972 128.903 427.004 133.219 431.484C133.733 432.678 133.404 433.553 132.234 434.109C128.379 429.923 124.878 425.438 121.734 420.656C117.862 421.385 113.925 422.042 109.922 422.625C104.81 423.157 99.7788 422.72 94.8281 421.313C88.0477 418.373 86.5167 413.779 90.2343 407.531C95.8466 404.82 101.534 404.711 107.297 407.203Z" fill="#7EB7C2"/>
<path fill-rule="evenodd" clip-rule="evenodd" d="M559.453 411.141C567.649 412.82 575.961 413.476 584.391 413.109C582.784 413.748 581.034 413.966 579.141 413.766C579.332 436.09 579.113 458.402 578.484 480.703C574.403 459.83 566.638 440.361 555.188 422.297C554.86 419.461 554.75 416.618 554.859 413.766C556.302 412.717 557.833 411.842 559.453 411.141Z" fill="#FCECDA"/>
<path fill-rule="evenodd" clip-rule="evenodd" d="M329.766 413.766C334.694 413.34 337.209 415.528 337.312 420.328C335.736 423.998 333.002 425.201 329.109 423.938C326.328 420.288 326.547 416.897 329.766 413.766Z" fill="#17436E"/>
<path fill-rule="evenodd" clip-rule="evenodd" d="M296.953 413.766C299.989 413.241 302.505 414.116 304.5 416.391C305.362 422.856 302.627 425.263 296.297 423.609C293.493 420.072 293.711 416.79 296.953 413.766Z" fill="#1B426C"/>
<path fill-rule="evenodd" clip-rule="evenodd" d="M358.641 398.672C359.296 416.934 359.514 435.309 359.297 453.797C359.953 453.797 360.609 453.797 361.266 453.797C360.565 454.41 359.69 454.629 358.641 454.453C358.641 435.86 358.641 417.265 358.641 398.672Z" fill="#6E5962"/>
<path fill-rule="evenodd" clip-rule="evenodd" d="M225.422 420.328C225.396 422.32 224.74 424.07 223.453 425.578C221.89 423.92 220.14 423.045 218.203 422.953C219.725 419.799 222.131 418.924 225.422 420.328Z" fill="#285375"/>
<path fill-rule="evenodd" clip-rule="evenodd" d="M225.422 420.328C228.867 420.574 231.6 422.105 233.625 424.922C235.762 430.238 238.278 435.378 241.172 440.344C246.932 444.115 253.276 445.646 260.203 444.938C253.977 447.289 253.32 450.789 258.234 455.438C261.704 456.879 265.313 457.645 269.062 457.734C272.507 458.363 275.023 457.16 276.609 454.125C280.322 453.798 284.041 453.688 287.766 453.797C290.366 455.522 292.772 457.491 294.984 459.703C295.925 461.054 296.363 462.585 296.297 464.297C294.38 464.154 292.63 464.592 291.047 465.609C277.585 465.758 264.022 465.211 250.359 463.969C243.091 463.685 237.95 460.294 234.938 453.797C232.342 445.195 230.592 436.445 229.688 427.547C229.412 430.47 228.865 433.314 228.047 436.078C226.9 432.465 225.369 428.966 223.453 425.578C224.74 424.07 225.396 422.32 225.422 420.328Z" fill="#8CBFC8"/>
<path fill-rule="evenodd" clip-rule="evenodd" d="M145.359 441.328C147.073 440.757 148.824 440.32 150.609 440.016C157.298 439.883 163.642 441.305 169.641 444.281C178.549 448.846 187.518 453.22 196.547 457.406C202.13 460.963 207.598 464.681 212.953 468.563C232.637 470.542 252.215 473.276 271.687 476.766C273.215 476.554 273.98 475.679 273.984 474.141C278.595 469.21 284.282 466.367 291.047 465.609C292.63 464.592 294.38 464.155 296.297 464.297C296.362 462.585 295.925 461.054 294.984 459.703C296.446 460.294 297.102 461.388 296.953 462.984C317.195 459.502 337.539 456.658 357.984 454.453C358.203 454.453 358.422 454.453 358.641 454.453C359.69 454.629 360.565 454.41 361.266 453.797C363.672 453.797 366.078 453.797 368.484 453.797C378.501 451.979 388.563 450.448 398.672 449.203C404.77 448.601 410.896 448.382 417.047 448.547C426.391 449.391 435.797 450.485 445.266 451.828C452.7 454.233 460.138 456.64 467.578 459.047C477.13 463.605 486.537 468.527 495.797 473.813C522.832 489.845 549.957 505.704 577.172 521.391C577.69 521.982 578.347 522.42 579.141 522.703C579.141 546.547 579.141 570.391 579.141 594.234C578.922 594.234 578.703 594.234 578.484 594.234C548.305 573.673 518.336 552.783 488.578 531.563C479.004 526.161 468.723 523.317 457.734 523.031C448.547 522.594 439.359 522.594 430.172 523.031C411.148 525.072 392.117 527.04 373.078 528.938C356.761 530.038 340.574 529.163 324.516 526.313C287.674 513.983 250.705 501.952 213.609 490.219C195.46 477.643 177.085 465.393 158.484 453.469C155.256 452.028 151.974 450.715 148.641 449.531C146.088 448.783 143.901 449.33 142.078 451.172C154.285 458.373 166.316 465.92 178.172 473.813C177.844 473.922 177.516 474.031 177.188 474.141C162.741 465.235 147.319 458.344 130.922 453.469C122.019 449.016 112.831 445.297 103.359 442.313C101.391 441.875 99.4219 441.875 97.4531 442.313C95.9372 443.27 95.7187 444.473 96.7969 445.922C96.1432 445.978 95.5966 445.759 95.1562 445.266C94.3156 438.75 97.0502 434.484 103.359 432.469C106.422 432.031 109.484 432.031 112.547 432.469C122.494 435.86 132.228 439.689 141.75 443.953C143.057 443.189 144.26 442.314 145.359 441.328Z" fill="#FCBFAC"/>
<path fill-rule="evenodd" clip-rule="evenodd" d="M100.734 447.891C124.98 461.109 149.261 474.343 173.578 487.594C172.039 487.705 170.508 487.487 168.984 486.938C154.996 480.668 140.559 475.418 125.672 471.188C118.09 467.944 110.433 464.881 102.703 462C99.6404 461.562 96.5783 461.562 93.5156 462C91.8054 462.52 90.4929 463.504 89.5781 464.953C87.1139 459.753 88.2079 455.269 92.8594 451.5C95.4778 450.094 98.1028 448.891 100.734 447.891Z" fill="#FCBEA9"/>
<path fill-rule="evenodd" clip-rule="evenodd" d="M291.047 465.609C284.282 466.367 278.595 469.21 273.984 474.141C266.465 474.208 259.028 473.442 251.672 471.844C244.187 470.345 237.952 466.736 232.969 461.016C229.195 453.157 227.555 444.844 228.047 436.078C228.865 433.314 229.412 430.47 229.687 427.547C230.592 436.445 232.342 445.195 234.937 453.797C237.95 460.294 243.091 463.685 250.359 463.969C264.022 465.211 277.585 465.758 291.047 465.609Z" fill="#114470"/>
<path fill-rule="evenodd" clip-rule="evenodd" d="M578.484 594.234C578.703 609.772 578.484 625.303 577.828 640.828C576.527 641.565 575.215 641.565 573.891 640.828C562.002 632.8 550.19 624.596 538.453 616.219C512.957 596.949 487.582 577.59 462.328 558.141C461.479 556.962 460.823 555.65 460.359 554.203C459.328 553.672 458.234 553.453 457.078 553.547C457.174 551.944 456.627 551.507 455.438 552.234C453.327 550.247 450.812 549.153 447.891 548.953C442.773 546.174 437.523 543.767 432.141 541.734C431.95 540.98 431.403 540.543 430.5 540.422C421.917 538.307 413.714 538.745 405.891 541.734C402.384 541.625 398.884 541.735 395.391 542.063C393.978 542.128 392.884 542.675 392.109 543.703C391.453 543.703 390.797 543.703 390.141 543.703C387.122 543.559 384.278 543.996 381.609 545.016C381.172 545.016 380.735 545.016 380.297 545.016C376.79 544.907 373.29 545.016 369.797 545.344C364.206 546.231 358.737 547.215 353.391 548.297C341.343 549.534 329.312 548.878 317.297 546.328C317.246 545.508 316.809 544.961 315.984 544.688C311.391 544.309 306.797 543.981 302.203 543.703C301.985 543.703 301.765 543.703 301.547 543.703C294.957 542.074 288.176 541.2 281.203 541.078C280.328 541.078 279.453 541.078 278.578 541.078C277.581 540.481 276.488 539.934 275.297 539.438C270.483 539.078 265.67 538.75 260.859 538.453C260.641 538.453 260.422 538.453 260.203 538.453C257.303 537.487 254.24 537.05 251.016 537.141C248.034 537.168 245.409 536.293 243.141 534.516C243.029 533.648 243.248 532.882 243.797 532.219C246.565 530.322 249.628 529.556 252.984 529.922C259.384 530.232 265.727 530.998 272.016 532.219C275.078 532.657 278.14 532.657 281.203 532.219C268.284 527.944 255.378 523.678 242.484 519.422C233.116 516.478 223.71 513.634 214.266 510.891C213.71 509.929 212.835 509.381 211.641 509.25C207.267 508.849 202.893 508.521 198.516 508.266C198.078 508.266 197.641 508.266 197.203 508.266C194.675 507.244 192.05 506.26 189.328 505.313C183.434 504.478 177.527 503.713 171.609 503.016C168.2 502.499 164.918 501.515 161.766 500.063C137.663 488.119 113.6 476.415 89.5781 464.953C90.4929 463.504 91.8054 462.52 93.5156 462C96.5783 461.562 99.6404 461.562 102.703 462C110.433 464.881 118.09 467.944 125.672 471.188C140.559 475.418 154.996 480.668 168.984 486.938C170.508 487.487 172.039 487.705 173.578 487.594C149.261 474.343 124.98 461.109 100.734 447.891C99.2125 447.568 97.9 446.912 96.7969 445.922C95.7187 444.473 95.9372 443.27 97.4531 442.313C99.4219 441.875 101.391 441.875 103.359 442.313C112.831 445.297 122.019 449.016 130.922 453.469C147.319 458.344 162.741 465.235 177.188 474.141C177.516 474.031 177.844 473.922 178.172 473.813C166.316 465.92 154.285 458.373 142.078 451.172C143.901 449.33 146.088 448.783 148.641 449.531C151.974 450.715 155.256 452.028 158.484 453.469C177.085 465.393 195.46 477.643 213.609 490.219C250.705 501.952 287.674 513.983 324.516 526.313C340.574 529.163 356.761 530.038 373.078 528.938C392.117 527.04 411.148 525.072 430.172 523.031C439.359 522.594 448.547 522.594 457.734 523.031C468.723 523.317 479.004 526.161 488.578 531.563C518.336 552.783 548.305 573.673 578.484 594.234Z" fill="#EB7F6F"/>
<path fill-rule="evenodd" clip-rule="evenodd" d="M298.266 468.891C300.632 468.701 302.929 468.919 305.156 469.547C306.691 473.624 307.019 477.78 306.141 482.016C299.051 484.134 291.832 485.665 284.484 486.609C283.301 482.093 282.645 477.499 282.516 472.828C287.936 471.911 293.186 470.598 298.266 468.891Z" fill="#FCFBFA"/>
<path fill-rule="evenodd" clip-rule="evenodd" d="M103.359 493.828C103.609 492.386 103.171 491.292 102.047 490.547C102.542 489.257 103.308 489.037 104.344 489.891C104.61 491.384 104.281 492.696 103.359 493.828Z" fill="#7C99AF"/>
<path fill-rule="evenodd" clip-rule="evenodd" d="M272.016 477.422C273.645 486.811 279.332 492.17 289.078 493.5C294.11 493.938 299.14 493.938 304.172 493.5C318.627 491.638 333.065 489.669 347.484 487.594C357.11 487.156 366.734 487.156 376.359 487.594C379.229 487.87 382.072 488.308 384.891 488.906C386.239 489.357 387.333 490.123 388.172 491.203C376.147 491.75 364.115 492.078 352.078 492.188C336.712 494.008 321.4 496.195 306.141 498.75C298.12 499.62 290.245 498.963 282.516 496.781C273.768 493.176 270.267 486.723 272.016 477.422Z" fill="#EA8372"/>
<path fill-rule="evenodd" clip-rule="evenodd" d="M102.047 490.547C103.171 491.292 103.609 492.386 103.359 493.828C103.359 494.484 103.359 495.141 103.359 495.797C103.224 497.142 102.678 497.361 101.719 496.453C101.393 494.937 101.284 493.406 101.391 491.859C101.278 491.208 101.497 490.771 102.047 490.547Z" fill="#214E77"/>
<path fill-rule="evenodd" clip-rule="evenodd" d="M578.484 483.984C578.926 496.28 579.363 508.639 579.797 521.062C579.303 521.503 579.084 522.049 579.141 522.703C578.347 522.42 577.69 521.982 577.172 521.391C578.476 509.16 578.914 496.691 578.484 483.984Z" fill="#3E6182"/>
<path fill-rule="evenodd" clip-rule="evenodd" d="M101.391 491.859C101.284 493.406 101.393 494.937 101.719 496.453C102.678 497.361 103.224 497.142 103.359 495.797C104.542 499.024 106.401 501.868 108.937 504.328C109.254 504.95 109.363 505.606 109.266 506.297C109.266 507.172 108.828 507.609 107.953 507.609C105.311 504.627 103.014 501.346 101.062 497.766C100.534 495.668 100.644 493.699 101.391 491.859Z" fill="#486D8D"/>
<path fill-rule="evenodd" clip-rule="evenodd" d="M171.609 503.016C177.527 503.713 183.434 504.478 189.328 505.312C192.05 506.259 194.675 507.244 197.203 508.266C188.453 507.172 179.921 505.422 171.609 503.016Z" fill="#E69487"/>
<path fill-rule="evenodd" clip-rule="evenodd" d="M84.9844 495.141C85.8519 495.029 86.6178 495.248 87.2812 495.797C87.4394 497.627 87.8771 499.377 88.5938 501.047C91.9032 504.139 95.4037 506.983 99.0938 509.578C100.319 511.16 100.319 512.691 99.0938 514.172C98.1369 512.557 96.934 511.135 95.4844 509.906C89.1096 508.237 85.3913 504.19 84.3281 497.766C84.5552 496.88 84.7737 496.005 84.9844 495.141Z" fill="#4A718C"/>
<path fill-rule="evenodd" clip-rule="evenodd" d="M109.266 506.297C109.859 506.762 110.077 507.418 109.922 508.266C109.075 508.421 108.418 508.203 107.953 507.609C108.828 507.609 109.266 507.172 109.266 506.297Z" fill="#A1B9C8"/>
<path fill-rule="evenodd" clip-rule="evenodd" d="M198.516 508.266C202.893 508.521 207.267 508.849 211.641 509.25C212.835 509.381 213.71 509.929 214.266 510.891C208.896 510.223 203.646 509.348 198.516 508.266Z" fill="#E6978A"/>
<path fill-rule="evenodd" clip-rule="evenodd" d="M71.2031 509.578C71.8935 509.48 72.5497 509.589 73.1719 509.906C75.0927 512.617 77.7177 513.929 81.0469 513.844C82.9034 515.926 82.3561 516.91 79.4062 516.797C74.4673 516.775 71.7334 514.369 71.2031 509.578Z" fill="#44678B"/>
<path fill-rule="evenodd" clip-rule="evenodd" d="M153.234 524.672C148.834 524.841 144.459 524.622 140.109 524.016C136.666 526.074 132.947 526.839 128.953 526.313C128.078 525.438 127.203 524.562 126.328 523.688C121.953 523.25 117.578 522.813 113.203 522.375C110.541 521.176 108.353 519.535 106.641 517.453C119.985 509.842 131.797 511.92 142.078 523.688C145.916 523.801 149.635 524.129 153.234 524.672Z" fill="#FBC0AB"/>
<path fill-rule="evenodd" clip-rule="evenodd" d="M90.8906 518.766C90.8906 519.203 90.8906 519.64 90.8906 520.078C88.2387 520.03 87.801 519.155 89.5781 517.453C90.2488 517.686 90.6865 518.124 90.8906 518.766Z" fill="#59646B"/>
<path fill-rule="evenodd" clip-rule="evenodd" d="M104.016 519.422C102.265 520.15 100.406 520.15 98.4375 519.422C96.4091 519.457 94.7684 520.222 93.5157 521.719C94.9016 522.313 95.4483 523.298 95.1563 524.672C92.2228 520.948 91.6755 521.166 93.5157 525.328C91.0094 524.363 90.1347 522.613 90.8907 520.078C90.8907 519.64 90.8907 519.203 90.8907 518.766C95.2797 517.95 99.6549 518.169 104.016 519.422Z" fill="#EB9789"/>
<path fill-rule="evenodd" clip-rule="evenodd" d="M242.484 519.422C255.378 523.678 268.284 527.944 281.203 532.219C278.14 532.656 275.078 532.656 272.016 532.219C265.727 530.997 259.384 530.232 252.984 529.922C249.628 529.556 246.565 530.322 243.797 532.219C243.248 532.882 243.029 533.648 243.141 534.516C240.665 533.063 239.571 530.876 239.859 527.953C240.166 524.934 241.041 522.091 242.484 519.422Z" fill="#FBBCA6"/>
<path fill-rule="evenodd" clip-rule="evenodd" d="M106.641 517.453C108.353 519.535 110.541 521.176 113.203 522.375C117.578 522.813 121.953 523.25 126.328 523.688C127.203 524.562 128.078 525.438 128.953 526.312C132.947 526.839 136.666 526.074 140.109 524.016C144.459 524.622 148.834 524.841 153.234 524.672C154.082 524.516 154.738 524.735 155.203 525.328C152.703 526.151 152.703 526.807 155.203 527.297C155.399 528.678 155.181 529.99 154.547 531.234C152.442 532.089 150.254 532.527 147.984 532.547C147.984 533.203 147.984 533.859 147.984 534.516C142.951 538.342 137.263 540.748 130.922 541.734C129.098 541.879 127.348 541.661 125.672 541.078C121.859 540.428 117.922 540.21 113.859 540.422C112.765 540.422 111.672 540.422 110.578 540.422C110.691 539.771 110.472 539.334 109.922 539.109C109.403 538.518 108.747 538.08 107.953 537.797C102.363 534.618 97.5503 530.461 93.5156 525.328C91.6755 521.166 92.2228 520.948 95.1563 524.672C95.4483 523.298 94.9016 522.313 93.5156 521.719C94.7684 520.222 96.409 519.457 98.4375 519.422C100.406 520.15 102.265 520.15 104.016 519.422C104.63 518.455 105.505 517.798 106.641 517.453Z" fill="#ED8072"/>
<path fill-rule="evenodd" clip-rule="evenodd" d="M155.203 525.328C155.203 525.984 155.203 526.641 155.203 527.297C152.703 526.807 152.703 526.151 155.203 525.328Z" fill="#784549"/>
<path fill-rule="evenodd" clip-rule="evenodd" d="M155.203 525.328C156.237 527.118 156.566 529.087 156.188 531.234C153.473 532.287 150.739 533.38 147.984 534.516C147.984 533.859 147.984 533.203 147.984 532.547C150.254 532.527 152.442 532.089 154.547 531.234C155.181 529.99 155.399 528.678 155.203 527.297C155.203 526.641 155.203 525.984 155.203 525.328Z" fill="#EBA79F"/>
<path fill-rule="evenodd" clip-rule="evenodd" d="M105.328 529.922C105.367 529.566 105.586 529.347 105.984 529.266C113.014 533.945 120.78 535.914 129.281 535.172C132.954 535.226 136.564 534.789 140.109 533.859C140.766 534.078 141.422 534.297 142.078 534.516C128.979 539.113 116.728 537.582 105.328 529.922Z" fill="#855A5F"/>
<path fill-rule="evenodd" clip-rule="evenodd" d="M251.016 537.141C254.24 537.05 257.303 537.487 260.203 538.453C256.978 538.544 253.916 538.107 251.016 537.141Z" fill="#E8ACA0"/>
<path fill-rule="evenodd" clip-rule="evenodd" d="M107.953 537.797C108.747 538.08 109.403 538.518 109.922 539.109C108.82 539.25 108.164 538.813 107.953 537.797Z" fill="#FDE4DD"/>
<path fill-rule="evenodd" clip-rule="evenodd" d="M260.859 538.453C265.67 538.75 270.483 539.078 275.297 539.438C276.488 539.934 277.581 540.481 278.578 541.078C272.556 540.388 266.65 539.513 260.859 538.453Z" fill="#E49C92"/>
<path fill-rule="evenodd" clip-rule="evenodd" d="M432.141 541.734C428.679 541.043 425.178 540.605 421.641 540.422C416.387 540.86 411.137 541.297 405.891 541.734C413.714 538.744 421.917 538.307 430.5 540.422C431.403 540.543 431.95 540.98 432.141 541.734Z" fill="#E78D81"/>
<path fill-rule="evenodd" clip-rule="evenodd" d="M110.578 540.422C111.672 540.422 112.765 540.422 113.859 540.422C117.24 540.965 120.74 541.293 124.359 541.406C116.37 541.517 108.495 541.845 100.734 542.391C94.9272 542.605 89.2395 542.386 83.6719 541.734C92.6093 540.801 101.578 540.363 110.578 540.422Z" fill="#43608A"/>
<path fill-rule="evenodd" clip-rule="evenodd" d="M113.859 540.422C117.922 540.21 121.859 540.428 125.672 541.078C125.672 541.516 125.672 541.953 125.672 542.391C125.453 542.391 125.234 542.391 125.016 542.391C116.922 542.391 108.828 542.391 100.734 542.391C108.495 541.845 116.37 541.517 124.359 541.406C120.74 541.293 117.24 540.965 113.859 540.422Z" fill="#223668"/>
<path opacity="0.01" fill-rule="evenodd" clip-rule="evenodd" d="M125.672 541.078C127.348 541.661 129.098 541.879 130.922 541.734C129.315 542.373 127.565 542.591 125.672 542.391C125.672 541.953 125.672 541.516 125.672 541.078Z" fill="#EECEC7"/>
<path fill-rule="evenodd" clip-rule="evenodd" d="M405.891 541.734C401.411 542.562 396.817 543.218 392.109 543.703C392.884 542.675 393.978 542.127 395.391 542.062C398.884 541.735 402.384 541.625 405.891 541.734Z" fill="#E99F96"/>
<path opacity="0.061" fill-rule="evenodd" clip-rule="evenodd" d="M83.6719 541.734C89.2395 542.386 94.9272 542.605 100.734 542.391C108.828 542.391 116.922 542.391 125.016 542.391C109.815 543.154 94.5026 543.263 79.0781 542.719C80.5068 541.93 82.0385 541.602 83.6719 541.734Z" fill="#BED2E0"/>
<path fill-rule="evenodd" clip-rule="evenodd" d="M281.203 541.078C288.176 541.2 294.957 542.074 301.547 543.703C294.628 543.203 287.847 542.328 281.203 541.078Z" fill="#E8A69B"/>
<path fill-rule="evenodd" clip-rule="evenodd" d="M302.203 543.703C306.797 543.981 311.391 544.309 315.984 544.688C316.809 544.961 317.246 545.508 317.297 546.328C312.161 545.566 307.13 544.691 302.203 543.703Z" fill="#E5978B"/>
<path opacity="0.196" fill-rule="evenodd" clip-rule="evenodd" d="M390.141 543.703C387.438 544.497 384.595 544.934 381.609 545.016C384.278 543.996 387.122 543.559 390.141 543.703Z" fill="#F0BFB7"/>
<path fill-rule="evenodd" clip-rule="evenodd" d="M380.297 545.016C371.484 546.648 362.515 547.742 353.391 548.297C358.737 547.215 364.206 546.231 369.797 545.344C373.29 545.016 376.79 544.907 380.297 545.016Z" fill="#E69C91"/>
<path fill-rule="evenodd" clip-rule="evenodd" d="M447.891 548.953C450.812 549.153 453.327 550.247 455.438 552.234C456.627 551.507 457.174 551.944 457.078 553.547C458.234 553.453 459.328 553.672 460.359 554.203C460.823 555.649 461.479 556.962 462.328 558.141C457.511 555.076 452.698 552.014 447.891 548.953Z" fill="#E69080"/>
<path fill-rule="evenodd" clip-rule="evenodd" d="M578.484 594.234C578.703 594.234 578.922 594.234 579.141 594.234C579.359 610.865 579.141 627.49 578.484 644.109C576.743 643.233 575.212 642.139 573.891 640.828C575.215 641.565 576.527 641.565 577.828 640.828C578.484 625.303 578.703 609.772 578.484 594.234Z" fill="#E39389"/>
</svg>
