<svg width="793" height="793" viewBox="0 0 793 793" fill="none" xmlns="http://www.w3.org/2000/svg">
<path fill-rule="evenodd" clip-rule="evenodd" d="M396.887 143.654C396.409 143.74 396.022 143.998 395.726 144.428C395.596 148.688 395.468 152.947 395.338 157.206C395.241 162.063 395.628 166.838 396.5 171.533C459.59 230.233 522.447 289.218 585.07 348.486C587.182 350.339 589.506 351.888 592.04 353.133C561.838 353.52 531.636 353.649 501.433 353.52C501.433 329.255 501.433 304.99 501.433 280.725C446.45 280.725 391.466 280.725 336.483 280.725C321.831 281.276 306.858 281.534 291.567 281.5C290.025 301.618 289.508 322.011 290.018 342.678C254.781 343.195 219.416 343.711 183.923 344.227C187.562 347.867 191.434 351.223 195.54 354.295C194.384 358.277 192.32 361.762 189.344 364.749C222.893 365.794 256.45 366.181 290.018 365.911C290.018 369.266 290.018 372.623 290.018 375.978C262.656 375.978 235.293 375.978 207.93 375.978C198.633 376.107 189.34 375.978 180.051 375.591C175.395 370.419 170.748 365.256 166.112 360.103C169.134 356.441 172.232 352.956 175.405 349.648C181.696 344.552 187.891 339.26 193.991 333.773C197.555 330.602 200.652 327.117 203.284 323.318C205.687 321.829 208.01 320.151 210.253 318.284C237.277 292.163 264.381 266.22 291.567 240.456C325.767 207.934 360.099 175.538 394.564 143.267C395.531 142.694 396.306 142.823 396.887 143.654ZM379.85 248.2C381.662 252.855 383.469 257.501 385.271 262.139C383.189 262.398 381.383 261.882 379.85 260.59C374.41 255.922 368.989 251.275 363.587 246.651C361.742 244.03 359.419 241.965 356.618 240.456C355.516 239.352 354.226 238.578 352.746 238.132C357.404 232.7 362.566 227.796 368.234 223.419C371.822 231.883 375.694 240.143 379.85 248.2ZM423.992 223.419C429.278 227.802 434.441 232.319 439.48 236.971C435.735 239.813 432.379 243.039 429.413 246.651C424.467 251.341 419.563 255.987 414.699 260.59C412.637 261.96 410.314 262.476 407.729 262.139C412.72 249.059 418.141 236.152 423.992 223.419ZM352.746 238.132C355.343 241.763 358.441 244.861 362.039 247.425C366.906 251.777 371.552 256.423 375.978 261.365C376.847 262.24 377.88 262.757 379.076 262.914C377.03 264.197 374.966 265.487 372.88 266.786C371.319 266.261 369.77 265.745 368.234 265.237C357.95 260.477 347.366 256.733 336.483 254.008C345.99 258.889 355.8 263.148 365.911 266.786C351.071 267.686 336.099 267.815 320.995 267.173C331.246 257.048 341.829 247.367 352.746 238.132ZM444.901 257.493C437.106 260.001 429.619 263.099 422.443 266.786C419.93 266.491 417.607 265.588 415.473 264.075C415.904 263.779 416.162 263.392 416.248 262.914C417.332 262.449 418.106 261.675 418.571 260.59C422.409 256.236 426.54 252.106 430.961 248.2C434.82 244.715 438.175 241.488 441.029 238.52C445.96 243.453 451.123 248.099 456.517 252.459C452.407 253.779 448.535 255.457 444.901 257.493ZM428.638 266.786C434.555 264.6 440.233 262.018 445.675 259.042C449.674 257.752 453.416 255.946 456.904 253.621C461.445 258.421 466.221 262.938 471.231 267.173C456.9 267.815 442.703 267.686 428.638 266.786ZM396.887 296.214C396.887 297.762 396.887 299.311 396.887 300.86C396.564 305.839 395.789 310.745 394.564 315.574C390.249 316.055 386.377 317.604 382.948 320.22C381.915 320.995 380.882 321.769 379.85 322.544C379.334 322.801 378.818 323.06 378.301 323.318C373.601 322.233 369.214 323.007 365.136 325.641C360.282 323.731 355.636 321.408 351.197 318.672C363.586 305.637 378.816 298.151 396.887 296.214ZM397.662 296.214C414.782 296.062 428.85 302.515 439.867 315.574C443.909 320.389 447.652 325.423 451.096 330.675C450.666 330.972 450.408 331.359 450.322 331.837C445.139 334.429 439.976 337.01 434.833 339.581C434.919 339.103 435.177 338.716 435.608 338.419C434.088 335.64 432.281 333.188 430.187 331.062C430.526 331.112 430.785 330.984 430.961 330.675C430.385 329.87 429.611 329.483 428.638 329.513C428.38 328.997 428.122 328.481 427.864 327.964C428.896 327.707 428.896 327.448 427.864 327.19C427.497 326.101 426.723 325.585 425.541 325.641C425.597 324.459 425.081 323.684 423.992 323.318C423.6 322.075 423.083 321.816 422.443 322.544C421.492 321.919 420.717 321.145 420.12 320.22C419.862 319.188 419.603 319.188 419.345 320.22C415.417 317.704 410.77 316.155 405.406 315.574C403.247 314.817 400.924 314.559 398.436 314.799C398.645 308.562 398.387 302.366 397.662 296.214Z" fill="#C0D3B8"/>
<path opacity="0.996" fill-rule="evenodd" clip-rule="evenodd" d="M642.376 605.205C647.855 586.962 653.018 568.634 657.865 550.221C654.867 550.465 652.027 550.207 649.346 549.447C653.297 548.966 657.169 548.45 660.962 547.898C663.073 545.912 663.589 543.588 662.511 540.928C659.194 540.16 655.839 539.901 652.444 540.154C647.281 540.154 642.119 540.154 636.956 540.154C638.753 532.824 640.947 525.596 643.538 518.47C649.697 517.794 655.247 515.6 660.188 511.888C678.077 494.827 690.08 474.305 696.198 450.322C697.073 446.124 696.428 442.252 694.262 438.706C688.776 433.346 682.323 431.926 674.902 434.446C666.371 438.588 659.531 444.654 654.38 452.645C644.647 467.467 637.419 483.472 632.696 500.659C631.558 507.151 633.752 512.056 639.279 515.373C639.741 515.555 639.999 515.942 640.053 516.534C637.386 524.405 634.805 532.279 632.309 540.154C629.201 540.282 626.103 540.153 623.016 539.767C623.664 538.984 623.922 538.08 623.791 537.056C627.78 529.614 628.554 521.87 626.114 513.824C626.019 517.367 625.891 520.981 625.727 524.666C623.966 529.818 622.288 534.982 620.693 540.154C620.176 540.154 619.661 540.154 619.144 540.154C619.144 523.891 619.144 507.628 619.144 491.366C624.898 489.36 629.416 485.747 632.696 480.524C640.021 467.135 642.344 452.938 639.666 437.931C637.025 427.157 630.183 422.252 619.144 423.217C612.019 424.069 606.082 427.167 601.333 432.51C600.566 413.982 600.308 395.396 600.558 376.752C595.137 376.752 589.716 376.752 584.295 376.752C584.295 376.495 584.295 376.236 584.295 375.978C594.242 376.233 604.051 375.974 613.723 375.204C617.958 370.316 622.088 365.283 626.114 360.103C555.981 293.452 485.767 226.982 415.473 160.691C425.624 155.57 436.466 152.601 447.999 151.785C461.172 151.076 474.079 151.592 486.719 153.334C525.016 160.858 560.123 176.088 592.04 199.024C645.342 239.347 685.999 289.297 714.01 348.874C717.116 357.224 719.697 365.485 721.754 373.655C722.141 378.688 722.528 383.722 722.916 388.756C721.22 405.819 722.123 422.728 725.626 439.48C729.043 472.783 723.106 504.276 707.814 533.958C692.37 563.97 670.557 587.719 642.376 605.205Z" fill="#8AD3C1"/>
<path fill-rule="evenodd" clip-rule="evenodd" d="M372.88 173.856C376.619 173.767 377.652 175.445 375.978 178.89C371.469 179.291 370.436 177.613 372.88 173.856Z" fill="#F6F9F5"/>
<path fill-rule="evenodd" clip-rule="evenodd" d="M232.711 195.54C232.195 195.54 231.679 195.54 231.163 195.54C231.679 143.912 232.195 143.912 232.711 195.54Z" fill="#85A791"/>
<path fill-rule="evenodd" clip-rule="evenodd" d="M231.163 195.54C231.679 195.54 232.195 195.54 232.711 195.54C241.095 196.182 249.614 196.57 258.267 196.701C256.824 198.783 255.275 200.719 253.621 202.509C240.456 202.509 227.291 202.509 214.125 202.509C214.471 212.286 219.375 218.61 228.839 221.482C232.083 221.619 235.18 222.006 238.132 222.644C222.148 224.869 213.243 217.899 211.415 201.735C210.253 200.057 209.092 198.379 207.93 196.701C215.81 196.57 223.554 196.182 231.163 195.54Z" fill="#CDD8C3"/>
<path fill-rule="evenodd" clip-rule="evenodd" d="M253.621 202.509C252.821 212.599 247.658 219.311 238.132 222.644C235.18 222.006 232.083 221.619 228.839 221.482C219.375 218.61 214.471 212.286 214.125 202.509C227.291 202.509 240.456 202.509 253.621 202.509Z" fill="#F8ECDC"/>
<path fill-rule="evenodd" clip-rule="evenodd" d="M388.369 221.095C391.473 220.719 392.893 222.009 392.628 224.967C390.089 227.301 388.153 226.914 386.82 223.806C387.19 222.797 387.707 221.894 388.369 221.095Z" fill="#F5F7F6"/>
<path fill-rule="evenodd" clip-rule="evenodd" d="M472.005 266.786C470.652 264.679 469.362 262.615 468.133 260.59C462.95 257.607 458.562 253.606 454.968 248.587C450.872 245.784 447 242.686 443.352 239.294C441.25 237.605 439.701 235.54 438.706 233.099C437.931 232.841 437.157 232.582 436.382 232.324C433.581 228.098 429.967 224.872 425.541 222.644C424.754 220.043 425.4 217.72 427.477 215.674C445.532 232.31 463.215 249.347 480.524 266.786C477.678 267.702 474.839 267.702 472.005 266.786Z" fill="#EFE4CF"/>
<path fill-rule="evenodd" clip-rule="evenodd" d="M570.356 235.809C568.216 235.998 566.539 237.03 565.322 238.907C564.239 241.124 563.464 243.447 562.999 245.876C561.916 240.552 563.852 236.938 568.807 235.035C569.517 235.068 570.033 235.326 570.356 235.809Z" fill="#658C73"/>
<path fill-rule="evenodd" clip-rule="evenodd" d="M583.521 230.388C584.295 230.388 585.07 230.388 585.844 230.388C586.089 233.082 585.702 235.663 584.683 238.132C576.657 246.552 575.109 245.003 580.036 233.486C581.327 232.531 582.489 231.498 583.521 230.388Z" fill="#638B72"/>
<path fill-rule="evenodd" clip-rule="evenodd" d="M584.295 231.163C585.151 235.403 583.602 238.758 579.649 241.23C579.653 237.338 581.202 233.982 584.295 231.163Z" fill="#F2F8E7"/>
<path opacity="0.994" fill-rule="evenodd" clip-rule="evenodd" d="M291.567 240.456C264.381 266.22 237.277 292.162 210.253 318.284C208.01 320.151 205.687 321.829 203.284 323.318C202.862 320.752 202.474 318.171 202.122 315.574C200.953 313.7 199.276 312.926 197.088 313.25C197.35 305.98 195.155 305.206 190.506 310.927C188.475 314.255 187.314 317.869 187.021 321.769C184.895 320.627 183.217 321.143 181.987 323.318C181.055 326.583 180.539 329.938 180.438 333.385C175.358 332.267 173.164 334.461 173.856 339.968C174.065 343.253 174.582 346.48 175.405 349.648C172.232 352.956 169.134 356.441 166.112 360.103C170.748 365.256 175.395 370.419 180.051 375.591C189.34 375.978 198.633 376.107 207.93 375.978C207.93 380.108 207.93 384.239 207.93 388.369C196.949 392.129 186.882 397.55 177.728 404.631C169.467 410.182 162.626 417.152 157.206 425.541C150.191 406.209 137.671 391.624 119.647 381.786C115.488 379.778 111.099 378.875 106.482 379.076C106.36 380.139 106.49 381.172 106.869 382.173C111.033 386.594 114.905 391.24 118.485 396.113C122.205 405.101 126.336 413.877 130.876 422.443C137.774 429.89 145.776 435.828 154.883 440.254C156.796 445.75 157.7 451.428 157.593 457.292C158.67 483.1 158.541 508.913 157.206 534.733C157.424 521.426 156.262 508.261 153.721 495.238C154.856 494.582 155.502 493.55 155.657 492.14C155.343 474.418 149.922 458.413 139.395 444.126C136.143 440.615 132.658 437.388 128.94 434.446C124.526 431.906 119.879 431.26 115 432.51C114.012 433.373 114.012 434.147 115 434.833C117.048 436.746 119.242 438.552 121.583 440.254C122.357 441.545 123.132 442.836 123.906 444.126C126.263 453.302 128.973 462.336 132.038 471.231C129.568 467.861 126.47 465.151 122.745 463.1C120.554 461.931 118.36 461.802 116.162 462.712C115.626 463.438 115.756 463.954 116.549 464.261C118.21 467.058 119.887 469.897 121.583 472.78C123.373 484.847 126.73 496.463 131.65 507.628C135.089 515.042 139.994 521.237 146.364 526.214C147.805 533.656 148.58 541.143 148.688 548.672C145.031 535.348 137.416 525.023 125.842 517.696C121.748 514.734 117.101 513.443 111.903 513.824C107.898 513.251 104.413 514.283 101.448 516.921C100.325 520.193 101.487 522.129 104.933 522.729C111.477 522.767 117.931 523.413 124.293 524.666C133.164 529.279 139.488 536.248 143.267 545.575C144.768 549.435 146.188 553.307 147.526 557.191C140.809 557.062 134.098 557.191 127.391 557.578C126.104 560.037 126.621 561.973 128.94 563.386C129.644 566.77 130.418 570.126 131.263 573.454C130.785 573.368 130.398 573.11 130.102 572.679C129.774 573.807 129.129 574.194 128.166 573.841C105.108 546.471 90.2657 515.366 83.6367 480.524C75.0783 425.185 88.5016 376.139 123.906 333.385C128.884 328.276 133.918 323.372 139.007 318.671C141.871 316.124 145.097 315.09 148.688 315.574C151.73 314.736 154.441 313.316 156.819 311.314C158.427 307.776 159.589 304.033 160.304 300.085C164.068 292.451 169.876 286.9 177.728 283.436C180.748 280.485 183.587 277.387 186.247 274.143C188.926 272.543 191.765 271.382 194.765 270.658C198.329 271.977 201.814 273.525 205.22 275.304C211.973 271.85 218.556 268.107 224.967 264.075C246.28 252.632 268.48 244.759 291.567 240.456Z" fill="#8AD3C1"/>
<path fill-rule="evenodd" clip-rule="evenodd" d="M570.356 235.809C571 220.97 571.387 205.997 571.518 190.893C571.775 205.865 572.034 220.837 572.292 235.809C573.773 239.544 575.451 243.158 577.326 246.651C577.34 248.101 576.952 248.359 576.164 247.425C574.486 244.586 572.809 241.747 571.13 238.907C569.898 241.304 568.221 243.369 566.097 245.102C567.602 242.136 569.022 239.038 570.356 235.809Z" fill="#5A836B"/>
<path fill-rule="evenodd" clip-rule="evenodd" d="M655.541 245.877C659.149 245.501 660.182 246.92 658.639 250.136C657.374 250.518 656.083 250.647 654.767 250.523C654.632 248.881 654.89 247.332 655.541 245.877Z" fill="#AECBAE"/>
<path fill-rule="evenodd" clip-rule="evenodd" d="M663.286 248.974C664.715 248.759 665.748 249.275 666.383 250.523C665.748 251.77 664.715 252.287 663.286 252.072C663.286 251.039 663.286 250.006 663.286 248.974Z" fill="#CDD3C6"/>
<path opacity="0.757" fill-rule="evenodd" clip-rule="evenodd" d="M423.992 223.418C424.257 222.77 424.772 222.511 425.541 222.644C429.967 224.872 433.581 228.098 436.382 232.324C437.157 232.582 437.931 232.841 438.706 233.099C439.701 235.54 441.25 237.605 443.352 239.294C447 242.686 450.872 245.784 454.968 248.587C458.562 253.606 462.95 257.607 468.133 260.59C469.362 262.615 470.652 264.679 472.005 266.786C464.537 267.817 456.793 268.334 448.773 268.335C440.896 268.335 433.151 268.076 425.541 267.56C426.573 267.302 427.606 267.044 428.638 266.786C442.703 267.686 456.9 267.815 471.231 267.173C466.221 262.938 461.445 258.421 456.904 253.621C453.416 255.945 449.674 257.752 445.675 259.042C446.861 257.938 446.603 257.422 444.901 257.493C448.535 255.457 452.407 253.779 456.517 252.459C451.123 248.099 445.96 243.453 441.029 238.52C438.175 241.488 434.82 244.715 430.961 248.2C430.961 247.167 430.445 246.651 429.413 246.651C432.379 243.039 435.735 239.813 439.48 236.971C434.441 232.319 429.278 227.802 423.992 223.418Z" fill="#D6DECF"/>
<path fill-rule="evenodd" clip-rule="evenodd" d="M363.587 246.651C368.989 251.275 374.41 255.921 379.85 260.59C379.784 261.362 380.042 262.007 380.625 262.526C380.165 262.886 379.648 263.015 379.076 262.914C377.88 262.756 376.847 262.24 375.978 261.365C371.552 256.423 366.906 251.777 362.039 247.425C361.261 245.739 361.777 245.481 363.587 246.651Z" fill="#94C8A5"/>
<path fill-rule="evenodd" clip-rule="evenodd" d="M429.413 246.651C430.445 246.651 430.961 247.167 430.961 248.2C426.54 252.106 422.409 256.236 418.571 260.59C418.106 261.675 417.332 262.449 416.248 262.914C415.433 263.029 414.658 262.9 413.924 262.526C414.507 262.007 414.765 261.362 414.699 260.59C419.563 255.987 424.467 251.341 429.413 246.651Z" fill="#86B89D"/>
<path fill-rule="evenodd" clip-rule="evenodd" d="M368.234 265.237C369.105 266.129 369.105 266.903 368.234 267.56C367.375 267.516 366.601 267.258 365.911 266.786C355.8 263.148 345.99 258.889 336.483 254.008C347.366 256.733 357.95 260.476 368.234 265.237Z" fill="#9EC3AE"/>
<path fill-rule="evenodd" clip-rule="evenodd" d="M619.918 231.937C620.95 239.535 621.467 247.407 621.467 255.557C621.209 263.43 620.951 271.303 620.693 279.176C619.918 263.439 619.661 247.692 619.918 231.937Z" fill="#9CAC9F"/>
<path fill-rule="evenodd" clip-rule="evenodd" d="M444.901 257.493C446.603 257.422 446.861 257.938 445.675 259.042C440.233 262.018 434.555 264.599 428.638 266.786C427.606 267.044 426.573 267.302 425.541 267.56C424.326 268.314 423.035 268.443 421.668 267.947C422.099 267.651 422.357 267.263 422.443 266.786C429.619 263.099 437.106 260.001 444.901 257.493Z" fill="#8CBAA4"/>
<path fill-rule="evenodd" clip-rule="evenodd" d="M379.85 248.2C375.694 240.143 371.822 231.883 368.234 223.418C362.566 227.795 357.404 232.7 352.746 238.132C341.829 247.367 331.246 257.047 320.995 267.173C336.099 267.815 351.071 267.686 365.911 266.786C366.601 267.258 367.375 267.516 368.234 267.56C360.365 268.077 352.362 268.334 344.227 268.334C333.49 268.035 322.906 267.648 312.476 267.173C330.385 249.986 348.197 232.82 365.911 215.674C367.318 217.158 368.221 218.965 368.621 221.095C369.396 221.612 370.17 222.128 370.944 222.644C374.504 230.943 377.473 239.461 379.85 248.2Z" fill="#E6DFCB"/>
<path fill-rule="evenodd" clip-rule="evenodd" d="M352.746 238.132C354.226 238.578 355.516 239.352 356.618 240.456C359.419 241.965 361.742 244.03 363.587 246.651C361.777 245.481 361.261 245.739 362.039 247.425C358.441 244.86 355.343 241.763 352.746 238.132Z" fill="#C5DCD5"/>
<path fill-rule="evenodd" clip-rule="evenodd" d="M396.887 143.654C402.85 149.618 409.045 155.297 415.473 160.691C485.767 226.982 555.981 293.452 626.114 360.103C622.088 365.283 617.958 370.316 613.723 375.204C609.795 372.442 606.18 369.216 602.881 365.523C596.691 365.136 590.496 365.008 584.295 365.136C584.377 368.271 584.119 371.369 583.521 374.429C582.521 374.246 581.747 374.504 581.198 375.204C554.666 375.973 528.078 376.23 501.433 375.978C501.433 368.492 501.433 361.006 501.433 353.52C531.636 353.649 561.838 353.52 592.04 353.133C589.506 351.888 587.182 350.339 585.07 348.486C522.447 289.218 459.59 230.233 396.5 171.533C395.628 166.837 395.241 162.062 395.338 157.206C395.468 152.947 395.596 148.688 395.726 144.428C396.022 143.998 396.409 143.74 396.887 143.654Z" fill="#9CBC9B"/>
<path opacity="0.125" fill-rule="evenodd" clip-rule="evenodd" d="M396.887 300.86C396.887 305.764 396.887 310.669 396.887 315.574C396.113 315.574 395.338 315.574 394.564 315.574C395.789 310.744 396.564 305.839 396.887 300.86Z" fill="#E5E8E8"/>
<path fill-rule="evenodd" clip-rule="evenodd" d="M203.284 323.318C200.652 327.117 197.555 330.602 193.991 333.772C187.891 339.26 181.696 344.551 175.405 349.648C174.582 346.48 174.065 343.253 173.856 339.968C173.164 334.461 175.358 332.267 180.438 333.385C180.539 329.938 181.055 326.583 181.987 323.318C183.217 321.142 184.895 320.627 187.021 321.769C187.314 317.869 188.475 314.255 190.506 310.927C195.155 305.206 197.35 305.98 197.088 313.25C199.276 312.926 200.953 313.7 202.122 315.574C202.474 318.171 202.862 320.752 203.284 323.318Z" fill="#457761"/>
<path fill-rule="evenodd" clip-rule="evenodd" d="M394.564 315.574C395.338 315.574 396.113 315.574 396.887 315.574C399.727 315.574 402.566 315.574 405.406 315.574C410.77 316.155 415.417 317.704 419.345 320.22C419.603 321.253 419.862 321.253 420.12 320.22C420.717 321.145 421.492 321.919 422.443 322.543C422.701 323.318 423.217 323.834 423.992 324.092C424.25 324.867 424.766 325.383 425.541 325.641C425.798 326.416 426.315 326.932 427.089 327.19C427.089 327.706 427.347 327.964 427.864 327.964C428.122 328.481 428.38 328.997 428.638 329.513C428.896 330.288 429.413 330.804 430.187 331.062C432.281 333.188 434.088 335.64 435.608 338.419C435.177 338.716 434.919 339.103 434.834 339.581C435.168 340.518 435.685 341.292 436.382 341.904C440.091 349.321 443.963 357.065 447.999 365.136C448.256 365.653 448.515 366.169 448.773 366.685C449.031 367.459 449.547 367.976 450.322 368.234C450.727 369.944 451.759 371.105 453.419 371.719C453.162 371.977 452.903 372.235 452.645 372.493C453.716 373.477 454.49 374.639 454.968 375.978C455.226 376.752 455.743 377.269 456.517 377.527C460.647 382.948 464.778 388.369 468.908 393.79C469.166 394.564 469.682 395.08 470.457 395.338C471.109 396.634 472.142 397.538 473.554 398.049C473.296 398.307 473.038 398.565 472.78 398.823C473.462 399.372 473.978 400.017 474.329 400.759C476.302 404.19 477.851 407.804 478.975 411.601C480.948 419.052 480.948 426.538 478.975 434.059C476.48 442.93 471.833 450.416 465.036 456.517C463.399 445.887 458.752 436.722 451.096 429.025C447.012 426.338 442.624 424.274 437.931 422.83C431.716 421.356 425.521 419.936 419.345 418.571C415.485 418.277 412.259 416.728 409.665 413.924C408.538 409.59 408.28 405.202 408.891 400.759C416.444 395.976 421.349 389.265 423.605 380.625C428.421 377.542 430.229 373.154 429.025 367.459C427.752 364.787 426.074 364.529 423.992 366.685C422.907 362.579 421.099 358.836 418.571 355.456C407.71 356.592 397.901 354.011 389.143 347.712C386.796 345.211 384.731 342.5 382.948 339.581C380.72 347.361 376.461 353.815 370.17 358.941C368.678 361.611 367.645 364.451 367.072 367.459C363.117 363.838 360.923 364.742 360.49 370.17C361.026 374.734 363.22 378.218 367.072 380.625C369.592 389.543 374.884 396.255 382.948 400.759C385.944 410.72 382.588 416.915 372.88 419.345C361.7 420.447 351.375 423.932 341.904 429.8C339.68 431.764 337.744 433.958 336.096 436.382C333.57 441.433 331.118 446.338 328.739 451.096C325.665 445.02 325.665 438.953 328.739 432.897C332.062 427.767 336.192 423.379 341.129 419.732C340.872 419.475 340.613 419.216 340.355 418.958C342.626 417.884 343.917 416.464 344.227 414.699C344.744 414.699 345.001 414.441 345.001 413.924C345.702 413.375 345.959 412.601 345.776 411.601C346.425 411.336 346.684 410.82 346.55 410.052C346.033 399.197 345.259 388.355 344.227 377.527C344.404 372.063 344.92 366.642 345.776 361.264C346.478 359.594 346.994 357.787 347.325 355.843C349.562 344.633 354.466 335.34 362.039 327.964C363.101 327.181 364.133 326.406 365.136 325.641C369.214 323.007 373.601 322.233 378.301 323.318C378.818 324.35 379.334 324.35 379.85 323.318C380.882 323.06 380.882 322.801 379.85 322.543C380.882 321.769 381.915 320.995 382.948 320.22C386.377 317.603 390.249 316.055 394.564 315.574Z" fill="#070413"/>
<path fill-rule="evenodd" clip-rule="evenodd" d="M629.986 310.153C632.662 311.921 635.244 313.857 637.73 315.961C631.521 323.623 623.518 326.204 613.723 323.705C609.343 322.423 605.987 319.841 603.656 315.961C606.65 313.234 609.877 310.782 613.336 308.604C613.715 307.603 613.845 306.57 613.723 305.506C612.66 305.385 611.627 305.514 610.625 305.894C607.631 307.983 604.533 309.919 601.332 311.702C600.222 310.37 599.577 308.821 599.396 307.055C599.01 303.968 598.881 300.871 599.009 297.762C602.375 297.891 605.73 297.761 609.077 297.375C609.758 296.325 610.017 295.163 609.851 293.89C606.743 294.019 603.645 293.889 600.558 293.503C601.68 290.968 603.229 288.774 605.205 286.92C608.044 289.373 610.883 291.825 613.723 294.277C614.457 294.651 615.232 294.78 616.046 294.665C616.168 293.601 616.039 292.568 615.659 291.567C613.207 289.114 610.755 286.663 608.302 284.21C611.348 281.403 614.961 279.983 619.144 279.951C619.015 283.316 619.145 286.672 619.531 290.018C620.306 291.05 621.08 291.05 621.854 290.018C622.241 286.672 622.37 283.316 622.242 279.951C626.331 280.236 629.946 281.657 633.083 284.21C629.856 287.053 627.017 290.279 624.565 293.89C624.979 295.13 625.754 295.517 626.888 295.052C629.61 292.2 632.45 289.49 635.407 286.92C643.482 293.494 642.192 295.818 631.535 293.89C631.369 295.163 631.628 296.325 632.309 297.375C635.655 297.761 639.011 297.891 642.376 297.762C642.804 302.639 642.03 307.285 640.053 311.702C636.405 309.213 632.662 306.889 628.824 304.732C627.663 304.861 627.017 305.506 626.888 306.668C627.743 307.996 628.776 309.158 629.986 310.153Z" fill="#40745E"/>
<path fill-rule="evenodd" clip-rule="evenodd" d="M629.986 310.153C631.513 312.048 632.545 314.243 633.083 316.735C632.546 318.863 631.384 319.509 629.599 318.671C629.319 316.329 628.932 314.006 628.437 311.702C628.628 310.762 629.145 310.246 629.986 310.153Z" fill="#F2F5F2"/>
<path fill-rule="evenodd" clip-rule="evenodd" d="M611.4 311.702C612.281 313.873 612.411 316.196 611.787 318.671C609.932 319.677 609.029 319.031 609.077 316.735C609.34 314.791 610.114 313.113 611.4 311.702Z" fill="#FAFCFA"/>
<path fill-rule="evenodd" clip-rule="evenodd" d="M619.144 307.83C621.145 308.254 621.92 309.545 621.467 311.702C618.537 311.682 617.762 310.391 619.144 307.83Z" fill="#EAEFE7"/>
<path fill-rule="evenodd" clip-rule="evenodd" d="M603.656 300.86C604.688 300.86 605.721 300.86 606.753 300.86C606.753 301.892 606.753 302.925 606.753 303.958C605.721 303.958 604.688 303.958 603.656 303.958C603.656 302.925 603.656 301.892 603.656 300.86Z" fill="#EEF6F4"/>
<path fill-rule="evenodd" clip-rule="evenodd" d="M634.632 300.085C635.522 300.311 636.039 300.956 636.181 302.021C635.468 304.297 634.436 304.297 633.083 302.021C633.514 301.239 634.03 300.593 634.632 300.085Z" fill="#EBEFEA"/>
<path opacity="0.016" fill-rule="evenodd" clip-rule="evenodd" d="M379.85 322.543C379.85 322.801 379.85 323.06 379.85 323.318C379.334 324.35 378.818 324.35 378.301 323.318C378.818 323.06 379.334 322.801 379.85 322.543Z" fill="#E3DBE0"/>
<path opacity="0.106" fill-rule="evenodd" clip-rule="evenodd" d="M423.992 323.318C425.081 323.684 425.597 324.459 425.541 325.641C424.766 325.383 424.25 324.867 423.992 324.092C423.992 323.834 423.992 323.576 423.992 323.318Z" fill="#E9E9F0"/>
<path opacity="0.016" fill-rule="evenodd" clip-rule="evenodd" d="M425.541 325.641C426.723 325.585 427.497 326.101 427.864 327.19C427.606 327.19 427.347 327.19 427.089 327.19C426.315 326.932 425.798 326.416 425.541 325.641Z" fill="#EEEDF3"/>
<path opacity="0.016" fill-rule="evenodd" clip-rule="evenodd" d="M428.638 329.513C429.611 329.483 430.385 329.87 430.961 330.675C430.785 330.984 430.526 331.112 430.187 331.062C429.413 330.804 428.896 330.288 428.638 329.513Z" fill="#EBEAF2"/>
<path fill-rule="evenodd" clip-rule="evenodd" d="M290.018 342.678C290.782 346.14 291.04 349.754 290.792 353.52C258.986 353.267 227.235 353.525 195.54 354.294C191.434 351.223 187.562 347.867 183.923 344.227C219.416 343.711 254.781 343.195 290.018 342.678Z" fill="#98B999"/>
<path fill-rule="evenodd" clip-rule="evenodd" d="M291.567 281.5C291.567 312.993 291.567 344.485 291.567 375.978C291.05 375.978 290.535 375.978 290.018 375.978C290.018 372.622 290.018 369.266 290.018 365.911C256.45 366.181 222.893 365.794 189.344 364.749C192.32 361.762 194.384 358.277 195.54 354.294C227.235 353.525 258.986 353.267 290.792 353.52C291.04 349.754 290.782 346.14 290.018 342.678C289.508 322.011 290.025 301.618 291.567 281.5Z" fill="#A5C1A2"/>
<path fill-rule="evenodd" clip-rule="evenodd" d="M419.345 418.571C414.11 428.016 405.979 432.404 394.951 431.736C386.965 432.386 380.254 429.805 374.816 423.992C373.609 422.662 372.964 421.113 372.88 419.345C382.588 416.915 385.944 410.72 382.948 400.759C374.884 396.255 369.592 389.543 367.072 380.625C363.22 378.218 361.026 374.734 360.49 370.17C360.923 364.742 363.117 363.838 367.072 367.459C367.645 364.451 368.678 361.611 370.17 358.941C376.46 353.815 380.72 347.361 382.948 339.581C384.731 342.5 386.796 345.211 389.143 347.712C397.901 354.011 407.71 356.592 418.571 355.456C421.099 358.836 422.907 362.579 423.992 366.685C426.074 364.529 427.752 364.787 429.025 367.459C430.229 373.154 428.421 377.542 423.604 380.625C421.349 389.265 416.444 395.977 408.891 400.759C408.28 405.202 408.537 409.59 409.665 413.924C412.259 416.728 415.485 418.277 419.345 418.571Z" fill="#F9BE9A"/>
<path fill-rule="evenodd" clip-rule="evenodd" d="M378.301 362.039C380.638 361.911 382.962 362.04 385.271 362.426C385.897 362.664 386.413 363.052 386.82 363.587C384.112 363.609 381.272 363.738 378.301 363.975C377.206 365.173 375.916 365.69 374.429 365.523C375.64 364.179 376.931 363.017 378.301 362.039Z" fill="#261E1E"/>
<path fill-rule="evenodd" clip-rule="evenodd" d="M406.18 362.813C410.083 362.308 413.439 363.341 416.248 365.911C416.118 366.169 415.99 366.427 415.86 366.685C412.124 363.99 408.252 363.732 404.244 365.911C404.394 364.686 405.039 363.653 406.18 362.813Z" fill="#1E1816"/>
<path fill-rule="evenodd" clip-rule="evenodd" d="M613.723 375.204C604.051 375.974 594.242 376.233 584.295 375.978C583.36 375.41 582.328 375.152 581.198 375.204C581.747 374.504 582.521 374.246 583.521 374.429C584.119 371.369 584.377 368.271 584.295 365.136C590.496 365.008 596.691 365.136 602.881 365.524C606.18 369.216 609.795 372.442 613.723 375.204Z" fill="#B7CEB3"/>
<path opacity="0.202" fill-rule="evenodd" clip-rule="evenodd" d="M447.999 365.136C454.205 365.582 460.4 366.227 466.584 367.072C465.319 367.455 464.028 367.583 462.712 367.459C458.213 366.693 453.567 366.435 448.773 366.685C448.515 366.169 448.256 365.653 447.999 365.136Z" fill="#D9E2E3"/>
<path opacity="0.275" fill-rule="evenodd" clip-rule="evenodd" d="M448.773 366.685C453.567 366.435 458.213 366.693 462.712 367.46C458.732 368.225 454.601 368.483 450.322 368.234C449.547 367.976 449.031 367.46 448.773 366.685Z" fill="#BFCBCA"/>
<path fill-rule="evenodd" clip-rule="evenodd" d="M375.978 373.655C379.087 373.526 382.184 373.656 385.271 374.042C388.19 375.942 387.803 376.329 384.109 375.204C383.114 375.552 382.211 376.069 381.399 376.752C379.692 374.946 377.756 374.688 375.591 375.978C375.204 375.72 374.816 375.461 374.429 375.204C375.005 374.675 375.52 374.159 375.978 373.655Z" fill="#181212"/>
<path fill-rule="evenodd" clip-rule="evenodd" d="M408.503 376.753C406.955 376.236 405.406 375.72 403.857 375.204C407.119 373.982 410.474 373.594 413.924 374.042C415.12 374.267 416.152 374.782 417.022 375.591C414.243 375.62 411.661 376.265 409.278 377.527C408.808 377.431 408.55 377.173 408.503 376.753Z" fill="#2E1E1B"/>
<path fill-rule="evenodd" clip-rule="evenodd" d="M403.857 375.204C405.406 375.72 406.955 376.236 408.503 376.752C406.626 376.991 404.82 376.732 403.083 375.978C403.179 375.508 403.436 375.25 403.857 375.204Z" fill="#876D5A"/>
<path fill-rule="evenodd" clip-rule="evenodd" d="M207.93 375.978C235.293 375.978 262.656 375.978 290.018 375.978C290.018 411.343 290.018 446.708 290.018 482.073C287.437 482.073 284.855 482.073 282.274 482.073C284.003 463.893 281.551 446.339 274.917 429.413C273.342 426.811 271.534 426.553 269.496 428.638C264.599 438.919 261.76 449.76 260.978 461.164C260.59 468.129 260.462 475.098 260.59 482.073C259.299 482.073 258.009 482.073 256.718 482.073C256.663 471.994 256.275 461.926 255.557 451.871C254.782 448.773 254.008 445.675 253.233 442.578C252.454 439.952 250.906 439.178 248.587 440.254C245.84 444.235 244.421 448.623 244.328 453.419C242.799 457.045 241.895 460.917 241.617 465.036C241.23 470.709 241.101 476.388 241.23 482.073C236.326 482.073 231.42 482.073 226.516 482.073C226.645 470.196 226.516 458.321 226.129 446.45C223.82 440.797 220.723 435.634 216.836 430.961C215.697 428.947 214.794 426.883 214.125 424.766C216.566 420.628 219.535 416.756 223.031 413.15C229.223 405.423 231.546 396.646 230.001 386.82C229.114 387.737 228.211 387.737 227.291 386.82C225.811 386.36 224.263 386.102 222.644 386.045C217.689 386.57 212.785 387.345 207.93 388.369C207.93 384.239 207.93 380.108 207.93 375.978Z" fill="#4FB29C"/>
<path opacity="0.012" fill-rule="evenodd" clip-rule="evenodd" d="M454.968 375.978C455.541 375.877 456.057 376.006 456.517 376.365C457.476 376.9 457.476 377.287 456.517 377.527C455.743 377.269 455.226 376.752 454.968 375.978Z" fill="#E9ECF2"/>
<path fill-rule="evenodd" clip-rule="evenodd" d="M581.198 375.204C582.328 375.152 583.36 375.41 584.295 375.978C584.295 376.236 584.295 376.494 584.295 376.752C584.549 410.367 584.291 443.924 583.521 477.426C582.662 477.382 581.888 477.124 581.198 476.652C576.991 474.263 572.603 473.876 568.033 475.49C558.036 479.714 548.226 484.36 538.605 489.43C537.002 490.164 535.84 491.325 535.12 492.914C534.501 500.2 537.082 506.137 542.864 510.726C550.221 504.401 557.062 497.561 563.386 490.204C564.265 489.624 565.04 489.753 565.709 490.591C560.107 499.036 553.911 507.038 547.124 514.598C552.883 519.156 559.337 522.253 566.484 523.891C567.635 514.264 569.184 504.713 571.13 495.238C571.905 495.238 572.679 495.238 573.454 495.238C573.678 505.64 574.581 515.966 576.164 526.214C578.939 527.6 581.907 528.117 585.07 527.763C585.07 531.893 585.07 536.024 585.07 540.154C579.127 540.025 573.19 540.154 567.258 540.541C565.336 544.868 566.627 547.578 571.13 548.672C571.388 548.672 571.647 548.672 571.905 548.672C571.078 549.396 570.045 549.654 568.807 549.447C562.566 547.793 557.791 549.858 554.48 555.642C549.343 571.239 547.148 587.243 547.898 603.656C547.154 602.289 546.895 600.74 547.124 599.009C536.661 599.264 526.335 599.006 516.147 598.235C526.787 590.631 531.305 580.306 529.699 567.258C524.966 553.984 515.544 547.53 501.433 547.898C501.433 490.591 501.433 433.285 501.433 375.978C528.078 376.23 554.666 375.973 581.198 375.204ZM547.124 422.443C555.627 422.084 557.951 425.569 554.093 432.897C548.242 435.564 544.628 433.758 543.251 427.476C544.14 425.434 545.431 423.756 547.124 422.443Z" fill="#4FB29C"/>
<path fill-rule="evenodd" clip-rule="evenodd" d="M584.295 376.752C589.716 376.752 595.137 376.752 600.558 376.752C600.308 395.396 600.566 413.982 601.333 432.51C598.117 436.62 595.923 441.267 594.75 446.45C592.718 460.29 594.783 473.455 600.945 485.945C603.461 489.717 606.945 491.782 611.4 492.14C612.949 492.14 614.498 492.14 616.046 492.14C616.046 508.145 616.046 524.149 616.046 540.154C615.789 540.154 615.53 540.154 615.272 540.154C613.515 534.854 612.611 529.434 612.562 523.891C613.336 523.117 614.11 522.342 614.885 521.568C615.973 515.979 614.94 510.816 611.787 506.08C603.763 495.087 594.34 485.536 583.521 477.426C584.291 443.924 584.549 410.367 584.295 376.752Z" fill="#FCFBF6"/>
<path fill-rule="evenodd" clip-rule="evenodd" d="M395.338 370.557C395.933 371.148 396.32 371.922 396.5 372.88C397.195 377.764 397.582 382.668 397.662 387.594C396.887 387.594 396.113 387.594 395.338 387.594C395.338 381.915 395.338 376.236 395.338 370.557Z" fill="#E48D5C"/>
<path fill-rule="evenodd" clip-rule="evenodd" d="M388.369 388.369C392.551 393.876 397.326 394.393 402.695 389.917C402.822 391.379 402.176 392.54 400.759 393.402C394.648 396.146 390.518 394.468 388.369 388.369Z" fill="#362220"/>
<path fill-rule="evenodd" clip-rule="evenodd" d="M227.291 386.82C226.707 388.826 225.416 390.246 223.418 391.079C217.95 394.069 212.529 397.038 207.156 399.985C191.206 407.672 177.783 418.513 166.886 432.51C166.466 432.464 166.208 432.206 166.112 431.736C171.906 423.505 175.778 414.471 177.728 404.631C186.882 397.55 196.949 392.129 207.93 388.369C212.785 387.345 217.689 386.57 222.644 386.045C224.263 386.102 225.811 386.36 227.291 386.82Z" fill="#6F9C7D"/>
<path opacity="0.012" fill-rule="evenodd" clip-rule="evenodd" d="M468.908 393.79C469.48 393.688 469.997 393.817 470.457 394.177C471.415 394.711 471.415 395.098 470.457 395.338C469.682 395.081 469.166 394.564 468.908 393.79Z" fill="#E7E7EE"/>
<path fill-rule="evenodd" clip-rule="evenodd" d="M177.728 404.631C175.778 414.471 171.906 423.505 166.112 431.736C166.208 432.206 166.466 432.464 166.886 432.51C164.434 435.349 162.369 438.447 160.691 441.803C161.375 444.88 161.892 447.978 162.24 451.096C161.628 451.955 161.241 452.987 161.078 454.194C160.82 452.903 160.562 451.613 160.304 450.322C160.016 453.058 159.113 455.381 157.593 457.291C157.7 451.428 156.796 445.75 154.883 440.254C145.776 435.828 137.774 429.89 130.876 422.443C126.336 413.877 122.205 405.101 118.485 396.113C114.905 391.24 111.033 386.594 106.869 382.173C106.49 381.172 106.36 380.139 106.482 379.076C111.099 378.875 115.488 379.778 119.647 381.786C137.671 391.624 150.191 406.209 157.206 425.541C162.626 417.152 169.467 410.182 177.728 404.631Z" fill="#447662"/>
<path fill-rule="evenodd" clip-rule="evenodd" d="M384.497 401.534C391.97 405.61 399.456 405.61 406.955 401.534C407.959 403.615 407.701 405.551 406.18 407.342C398.853 412.334 391.883 411.946 385.271 406.18C384.523 404.712 384.265 403.163 384.497 401.534Z" fill="#F29D67"/>
<path opacity="0.122" fill-rule="evenodd" clip-rule="evenodd" d="M346.55 410.052C346.683 410.82 346.425 411.336 345.776 411.601C344.59 410.498 344.848 409.982 346.55 410.052Z" fill="#D1D0D5"/>
<path fill-rule="evenodd" clip-rule="evenodd" d="M207.156 399.985C208.171 405.588 208.171 411.267 207.156 417.022C198.537 419.341 191.696 424.246 186.634 431.736C172.872 451.783 165.515 473.982 164.563 498.335C163.596 501.614 162.951 504.97 162.627 508.403C162.498 505.95 162.369 503.498 162.24 501.046C163.217 484.384 163.217 467.734 162.24 451.096C161.892 447.978 161.376 444.88 160.691 441.803C162.369 438.447 164.434 435.349 166.886 432.51C177.783 418.513 191.206 407.672 207.156 399.985Z" fill="#8AD3C1"/>
<path fill-rule="evenodd" clip-rule="evenodd" d="M419.345 418.571C425.521 419.936 431.716 421.356 437.931 422.83C442.624 424.274 447.012 426.338 451.096 429.025C458.752 436.722 463.399 445.887 465.036 456.517C470.752 480.71 475.656 504.975 479.75 529.312C479.75 533.958 479.75 538.605 479.75 543.251C475.971 552.579 469.001 556.323 458.84 554.48C455.623 553.001 452.525 551.323 449.547 549.447C440.312 542.407 431.922 534.405 424.379 525.44C423.901 524.705 424.03 524.06 424.766 523.504C422.853 522.738 421.047 521.835 419.345 520.793C421.814 518.834 424.267 516.77 426.702 514.598C429.406 511.208 429.276 507.982 426.315 504.918C423.155 503.347 420.316 501.411 417.796 499.11C418.433 496.302 418.949 493.462 419.345 490.591C419.392 488.535 418.875 486.728 417.796 485.17C417.662 483.342 417.404 481.535 417.022 479.75C417.893 473.638 417.893 467.572 417.022 461.551C415.731 461.034 414.441 461.034 413.15 461.551C408.366 463.811 403.978 466.651 399.985 470.069C394.268 469.549 388.589 469.678 382.948 470.457C382.133 470.572 381.359 470.443 380.625 470.069C376.632 466.651 372.243 463.811 367.459 461.551C366.169 461.034 364.878 461.034 363.587 461.551C362.708 467.83 362.708 474.154 363.587 480.524C360.498 486.936 360.498 493.389 363.587 499.884C363.757 500.794 363.499 501.569 362.813 502.208C360.169 504.11 357.459 505.918 354.682 507.628C353.199 510.821 353.457 513.919 355.456 516.921C357.978 519.595 360.947 521.401 364.362 522.342C359.406 527.294 354.76 532.457 350.422 537.831C346.225 540.196 342.611 543.294 339.581 547.124C335.836 549.901 331.706 552.095 327.19 553.706C322.892 554.478 318.762 554.091 314.799 552.544C314.283 552.287 313.767 552.028 313.25 551.77C312.734 550.738 311.96 549.963 310.927 549.447C310.927 549.189 310.927 548.93 310.927 548.672C310.593 547.735 310.076 546.961 309.378 546.349C308.822 545.117 308.047 543.955 307.055 542.864C307.638 542.345 307.896 541.7 307.83 540.928C307.83 537.573 307.83 534.216 307.83 530.861C308.346 526.472 308.862 522.084 309.378 517.696C309.636 517.696 309.895 517.696 310.153 517.696C313.249 505.317 316.605 492.926 320.22 480.524C323.06 470.714 325.9 460.905 328.739 451.096C331.118 446.338 333.57 441.433 336.096 436.382C337.744 433.958 339.68 431.764 341.904 429.8C351.375 423.932 361.7 420.447 372.88 419.345C372.964 421.113 373.609 422.662 374.816 423.992C380.254 429.805 386.965 432.386 394.951 431.736C405.979 432.404 414.11 428.016 419.345 418.571Z" fill="#E49844"/>
<path opacity="0.227" fill-rule="evenodd" clip-rule="evenodd" d="M336.483 280.725C391.466 280.725 446.45 280.725 501.433 280.725C501.433 304.99 501.433 329.255 501.433 353.52C501.433 361.006 501.433 368.492 501.433 375.978C501.433 433.285 501.433 490.591 501.433 547.898C500.917 547.898 500.401 547.898 499.884 547.898C500.657 459.153 500.915 370.353 500.659 281.5C445.803 281.757 391.078 281.499 336.483 280.725Z" fill="#EEEDE4"/>
<path d="M378 322.5C373.2 322.1 366.333 325 363.5 326.5L347.5 322.5V310L394.5 290.5L447 307L464 329L436.5 341.5L435 338.5C433.333 335.833 429.7 330.2 428.5 329C427 327.5 418 319 410.5 316.5C404.5 314.5 397.333 314.667 394.5 315C384.5 317 382.8 322.9 378 322.5Z" fill="#D6F1E9" stroke="#D6F1E9"/>
<path fill-rule="evenodd" clip-rule="evenodd" d="M619.144 423.217C615.768 445.794 614.477 468.51 615.272 491.366C613.789 491.146 612.499 491.404 611.4 492.14C606.945 491.782 603.461 489.717 600.945 485.945C594.783 473.455 592.718 460.29 594.75 446.45C595.923 441.267 598.117 436.62 601.333 432.51C606.082 427.167 612.019 424.069 619.144 423.217Z" fill="#669878"/>
<path fill-rule="evenodd" clip-rule="evenodd" d="M619.144 423.217C630.183 422.252 637.024 427.157 639.666 437.931C642.344 452.938 640.021 467.135 632.696 480.524C629.416 485.747 624.898 489.36 619.144 491.366C618.209 491.934 617.176 492.192 616.046 492.14C614.498 492.14 612.949 492.14 611.4 492.14C612.499 491.404 613.789 491.146 615.272 491.366C614.477 468.511 615.768 445.794 619.144 423.217Z" fill="#427660"/>
<path fill-rule="evenodd" clip-rule="evenodd" d="M227.291 386.82C228.211 387.737 229.114 387.737 230.001 386.82C231.546 396.646 229.223 405.423 223.031 413.15C219.535 416.756 216.566 420.628 214.125 424.766C214.794 426.883 215.697 428.947 216.836 430.961C220.723 435.634 223.82 440.797 226.129 446.45C226.516 458.321 226.645 470.196 226.516 482.073C220.321 482.073 214.125 482.073 207.93 482.073C208.439 463.468 207.922 445.141 206.381 427.089C208.484 424.988 210.291 422.664 211.802 420.12C212.526 419.293 212.784 418.26 212.577 417.022C210.77 417.022 208.962 417.022 207.156 417.022C208.171 411.267 208.171 405.588 207.156 399.985C212.529 397.038 217.95 394.069 223.418 391.079C225.416 390.246 226.707 388.826 227.291 386.82Z" fill="#F1E5D1"/>
<path fill-rule="evenodd" clip-rule="evenodd" d="M207.156 417.022C208.962 417.022 210.77 417.022 212.577 417.022C212.784 418.26 212.526 419.293 211.802 420.12C211.444 419.051 210.67 418.534 209.479 418.571C203.583 422.015 198.807 426.661 195.152 432.51C184.508 453.214 175.602 474.64 168.435 496.787C169.074 497.473 169.848 497.731 170.758 497.561C169.654 498.212 168.621 498.987 167.661 499.884C167.83 498.974 167.572 498.2 166.886 497.561C166.176 498.047 165.402 498.305 164.563 498.335C165.515 473.982 172.872 451.783 186.634 431.736C191.696 424.246 198.537 419.341 207.156 417.022Z" fill="#679877"/>
<path fill-rule="evenodd" clip-rule="evenodd" d="M206.381 427.089C207.922 445.141 208.439 463.468 207.93 482.073C214.125 482.073 220.321 482.073 226.516 482.073C231.42 482.073 236.326 482.073 241.23 482.073C246.393 482.073 251.555 482.073 256.718 482.073C258.009 482.073 259.299 482.073 260.59 482.073C267.818 482.073 275.046 482.073 282.274 482.073C284.855 482.073 287.437 482.073 290.018 482.073C290.018 486.977 290.018 491.882 290.018 496.787C262.523 496.53 235.161 496.788 207.93 497.561C207.93 502.724 207.93 507.886 207.93 513.049C201.28 512.996 194.826 514.029 188.57 516.147C188.343 502.181 188.601 488.242 189.344 474.329C194.974 461.953 198.976 449.047 201.348 435.608C202.644 432.492 204.322 429.652 206.381 427.089Z" fill="#FCFBF7"/>
<path fill-rule="evenodd" clip-rule="evenodd" d="M694.262 438.706C692.283 439.513 690.605 440.804 689.228 442.578C670.265 465.279 653.616 489.544 639.279 515.372C633.752 512.056 631.558 507.151 632.696 500.659C637.419 483.472 644.647 467.467 654.38 452.645C659.53 444.654 666.371 438.588 674.902 434.446C682.323 431.926 688.776 433.346 694.262 438.706Z" fill="#699979"/>
<path fill-rule="evenodd" clip-rule="evenodd" d="M434.059 437.931C434.833 437.931 435.608 437.931 436.382 437.931C436.382 438.963 436.382 439.997 436.382 441.029C433.707 441.209 432.933 440.177 434.059 437.931Z" fill="#F7F6F4"/>
<path fill-rule="evenodd" clip-rule="evenodd" d="M694.262 438.706C696.428 442.252 697.073 446.124 696.198 450.322C690.08 474.305 678.077 494.827 660.188 511.888C655.247 515.6 649.697 517.794 643.538 518.47C640.947 525.596 638.753 532.824 636.956 540.154C635.32 540.754 633.771 540.754 632.309 540.154C634.805 532.279 637.386 524.405 640.053 516.534C639.999 515.942 639.741 515.555 639.279 515.373C653.616 489.544 670.265 465.279 689.229 442.578C690.605 440.804 692.283 439.513 694.262 438.706Z" fill="#417660"/>
<path fill-rule="evenodd" clip-rule="evenodd" d="M211.802 420.12C210.291 422.664 208.484 424.988 206.381 427.089C204.322 429.652 202.644 432.492 201.348 435.608C198.976 449.047 194.974 461.954 189.344 474.329C185.582 482.618 180.42 489.975 173.856 496.399C172.892 497.012 171.86 497.399 170.758 497.561C169.848 497.731 169.074 497.473 168.435 496.787C175.602 474.64 184.508 453.214 195.152 432.51C198.807 426.661 203.583 422.015 209.479 418.571C210.67 418.534 211.444 419.051 211.802 420.12Z" fill="#3F7660"/>
<path fill-rule="evenodd" clip-rule="evenodd" d="M282.274 482.073C275.046 482.073 267.818 482.073 260.59 482.073C260.462 475.098 260.59 468.129 260.978 461.164C261.76 449.76 264.599 438.919 269.496 428.638C271.534 426.553 273.342 426.811 274.917 429.413C281.551 446.339 284.003 463.893 282.274 482.073Z" fill="#E79649"/>
<path fill-rule="evenodd" clip-rule="evenodd" d="M270.658 443.352C271.949 443.352 273.239 443.352 274.53 443.352C274.53 444.643 274.53 445.933 274.53 447.224C273.239 447.224 271.949 447.224 270.658 447.224C270.658 445.933 270.658 444.643 270.658 443.352Z" fill="#53351D"/>
<path fill-rule="evenodd" clip-rule="evenodd" d="M270.658 458.066C271.949 458.066 273.239 458.066 274.53 458.066C274.53 459.357 274.53 460.647 274.53 461.938C273.239 461.938 271.949 461.938 270.658 461.938C270.658 460.647 270.658 459.357 270.658 458.066Z" fill="#58341F"/>
<path fill-rule="evenodd" clip-rule="evenodd" d="M382.948 470.456C381.915 470.973 380.882 471.489 379.85 472.005C374.332 474.636 368.911 477.475 363.587 480.524C362.708 474.154 362.708 467.83 363.587 461.551C364.878 461.034 366.169 461.034 367.459 461.551C372.243 463.811 376.632 466.651 380.625 470.069C381.359 470.443 382.133 470.572 382.948 470.456Z" fill="#203936"/>
<path fill-rule="evenodd" clip-rule="evenodd" d="M153.721 495.238C153.243 495.152 152.856 494.894 152.56 494.463C148.334 478.788 142.396 463.816 134.748 449.547C132.172 445.05 128.945 441.049 125.068 437.544C121.982 435.612 118.626 434.708 115 434.833C114.012 434.147 114.012 433.373 115 432.51C119.879 431.26 124.526 431.906 128.94 434.446C132.658 437.388 136.143 440.615 139.395 444.126C149.922 458.413 155.343 474.418 155.657 492.14C155.502 493.55 154.856 494.582 153.721 495.238Z" fill="#689879"/>
<path fill-rule="evenodd" clip-rule="evenodd" d="M256.718 482.073C251.555 482.073 246.393 482.073 241.23 482.073C241.101 476.388 241.23 470.709 241.617 465.036C241.895 460.917 242.799 457.045 244.328 453.419C244.421 448.624 245.84 444.235 248.587 440.254C250.905 439.178 252.454 439.952 253.233 442.578C254.008 445.675 254.782 448.773 255.557 451.871C256.275 461.926 256.662 471.994 256.718 482.073Z" fill="#E4944D"/>
<path fill-rule="evenodd" clip-rule="evenodd" d="M251.297 460.389C252.034 461.488 252.292 462.778 252.072 464.261C250.341 464.49 248.792 464.231 247.425 463.487C247.335 460.846 248.626 459.813 251.297 460.389Z" fill="#744927"/>
<path fill-rule="evenodd" clip-rule="evenodd" d="M251.297 473.554C250.168 472.384 248.749 471.61 247.038 471.231C246.56 470.496 246.689 469.851 247.425 469.295C243.572 469.344 243.314 467.795 246.651 464.648C245.712 463.791 245.97 463.404 247.425 463.487C248.792 464.231 250.341 464.49 252.072 464.261C252.292 462.778 252.034 461.488 251.297 460.389C249.229 459.136 246.906 458.62 244.328 458.84C244.328 457.034 244.328 455.226 244.328 453.419C244.829 451.872 245.475 450.323 246.264 448.773C248.166 450.183 250.36 450.7 252.846 450.322C252.779 452.721 253.166 452.98 254.008 451.096C255.074 461.128 255.461 471.195 255.169 481.298C253.364 481.3 251.815 480.655 250.523 479.362C252.185 477.537 252.443 475.601 251.297 473.554Z" fill="#ED9846"/>
<path fill-rule="evenodd" clip-rule="evenodd" d="M248.974 446.45C251.297 446.192 252.33 447.224 252.072 449.547C250.781 449.547 249.491 449.547 248.2 449.547C248.148 448.418 248.406 447.385 248.974 446.45Z" fill="#4F321B"/>
<path fill-rule="evenodd" clip-rule="evenodd" d="M417.022 479.749C413.364 478.31 409.75 476.632 406.18 474.716C403.911 473.695 401.588 473.179 399.21 473.167C397.996 474.951 397.092 476.887 396.5 478.975C395.351 485.386 394.189 491.581 393.015 497.561C393.635 496.367 393.893 495.077 393.79 493.689C391.466 493.689 389.143 493.689 386.82 493.689C387.186 496.893 388.994 498.442 392.241 498.335C389.897 503.568 391.704 506.536 397.662 507.241C396.927 507.615 396.153 507.744 395.338 507.628C393.199 507.439 391.521 506.407 390.305 504.531C389.43 505.802 388.269 506.576 386.82 506.854C385.582 507.061 384.549 506.803 383.722 506.08C390.3 504.979 391.332 502.139 386.82 497.561C386.988 488.956 385.31 480.696 381.786 472.78C381.267 472.197 380.621 471.939 379.85 472.005C380.882 471.489 381.915 470.973 382.948 470.456C388.589 469.678 394.268 469.549 399.985 470.069C403.978 466.651 408.366 463.811 413.15 461.551C414.441 461.034 415.731 461.034 417.022 461.551C417.893 467.572 417.893 473.638 417.022 479.749Z" fill="#20413B"/>
<path fill-rule="evenodd" clip-rule="evenodd" d="M271.432 472.78C274.249 472.189 275.411 473.221 274.917 475.877C271.366 477.359 270.205 476.326 271.432 472.78Z" fill="#664733"/>
<path fill-rule="evenodd" clip-rule="evenodd" d="M417.022 479.75C417.404 481.535 417.662 483.342 417.796 485.17C418.064 490.237 417.548 495.142 416.248 499.884C414.637 500.306 413.088 500.951 411.601 501.82C412.227 502.059 412.743 502.446 413.15 502.982C412.229 503.701 411.197 503.959 410.052 503.756C410.052 504.531 410.052 505.305 410.052 506.08C407.361 506.904 405.297 507.936 403.857 509.177C401.081 508.961 398.242 508.445 395.338 507.628C396.153 507.744 396.927 507.615 397.662 507.241C391.704 506.536 389.897 503.568 392.241 498.335C392.241 497.819 392.499 497.561 393.015 497.561C394.189 491.581 395.351 485.386 396.5 478.975C397.092 476.887 397.996 474.951 399.21 473.167C401.588 473.179 403.911 473.695 406.18 474.716C409.75 476.632 413.364 478.31 417.022 479.75Z" fill="#417760"/>
<path fill-rule="evenodd" clip-rule="evenodd" d="M251.297 473.554C251.297 474.586 251.297 475.62 251.297 476.652C250.006 476.652 248.716 476.652 247.425 476.652C247.335 474.011 248.626 472.978 251.297 473.554Z" fill="#5D4028"/>
<path fill-rule="evenodd" clip-rule="evenodd" d="M581.198 476.652C590.162 491.617 597.132 507.492 602.107 524.278C600.935 525.733 600.419 527.412 600.558 529.312C599.858 528.763 599.6 527.988 599.784 526.989C596.735 526.762 593.767 527.02 590.878 527.763C590.492 531.885 590.362 536.015 590.491 540.154C588.684 540.154 586.877 540.154 585.07 540.154C585.07 536.024 585.07 531.893 585.07 527.763C581.907 528.117 578.939 527.601 576.164 526.214C574.581 515.966 573.678 505.64 573.454 495.238C572.679 495.238 571.905 495.238 571.13 495.238C569.184 504.713 567.635 514.264 566.484 523.891C559.337 522.253 552.883 519.156 547.124 514.598C553.911 507.038 560.107 499.036 565.709 490.591C565.04 489.753 564.265 489.624 563.386 490.204C557.062 497.561 550.221 504.401 542.864 510.726C537.082 506.137 534.501 500.2 535.12 492.914C535.84 491.325 537.002 490.164 538.605 489.43C548.226 484.36 558.036 479.714 568.033 475.49C572.603 473.876 576.991 474.263 581.198 476.652Z" fill="#427560"/>
<path fill-rule="evenodd" clip-rule="evenodd" d="M189.344 474.329C188.601 488.242 188.343 502.181 188.57 516.147C176.479 523.208 167.831 533.275 162.627 546.349C162.268 545.889 162.138 545.373 162.24 544.8C162.449 538.597 162.836 532.402 163.401 526.214C165.073 517.47 166.493 508.694 167.661 499.884C168.621 498.987 169.654 498.212 170.758 497.561C171.86 497.399 172.892 497.012 173.856 496.399C180.42 489.975 185.582 482.618 189.344 474.329Z" fill="#8AD3C1"/>
<path fill-rule="evenodd" clip-rule="evenodd" d="M290.018 375.978C290.535 375.978 291.05 375.978 291.567 375.978C291.366 432.702 291.624 490.008 292.341 547.898C291.567 547.898 290.792 547.898 290.018 547.898C290.018 531.119 290.018 514.34 290.018 497.561C262.656 497.561 235.293 497.561 207.93 497.561C235.161 496.788 262.523 496.53 290.018 496.787C290.018 491.882 290.018 486.977 290.018 482.073C290.018 446.708 290.018 411.343 290.018 375.978Z" fill="#D0CDC0"/>
<path fill-rule="evenodd" clip-rule="evenodd" d="M581.198 476.652C581.888 477.124 582.662 477.382 583.521 477.426C594.34 485.536 603.763 495.087 611.787 506.08C614.94 510.816 615.973 515.979 614.885 521.568C614.11 522.342 613.336 523.117 612.562 523.891C612.611 529.434 613.515 534.854 615.272 540.154C614.24 540.154 613.207 540.154 612.174 540.154C610.982 535.324 610.208 530.419 609.851 525.44C607.817 525.898 605.751 526.156 603.656 526.214C604.687 530.856 605.72 535.503 606.753 540.154C605.462 540.154 604.172 540.154 602.881 540.154C601.712 536.633 600.938 533.019 600.558 529.312C600.419 527.412 600.935 525.733 602.107 524.278C597.132 507.492 590.162 491.617 581.198 476.652Z" fill="#659777"/>
<path fill-rule="evenodd" clip-rule="evenodd" d="M132.038 471.231C136.157 479.471 141.062 487.215 146.751 494.463C146.331 494.51 146.073 494.768 145.977 495.238C148.677 500.886 150.355 506.822 151.011 513.049C151.39 512.048 151.52 511.015 151.398 509.952C152.164 514.192 152.422 518.58 152.172 523.117C150.665 523.531 149.891 524.563 149.849 526.214C148.582 525.247 147.678 523.956 147.139 522.342C142.43 504.336 135.461 487.298 126.229 471.231C123.777 468.778 121.325 466.327 118.873 463.874C118.039 463.51 117.264 463.639 116.549 464.261C115.756 463.954 115.626 463.438 116.162 462.712C118.36 461.802 120.554 461.931 122.745 463.1C126.47 465.151 129.568 467.861 132.038 471.231Z" fill="#67967A"/>
<path fill-rule="evenodd" clip-rule="evenodd" d="M379.85 472.005C380.621 471.939 381.266 472.197 381.786 472.78C385.31 480.696 386.988 488.956 386.82 497.561C379.952 498.288 378.919 501.128 383.722 506.08C384.549 506.803 385.582 507.062 386.82 506.854C383.491 508.54 379.877 509.314 375.978 509.177C370.73 507.539 366.599 504.442 363.587 499.884C360.498 493.389 360.498 486.936 363.587 480.524C368.911 477.475 374.332 474.636 379.85 472.005Z" fill="#3D715A"/>
<path fill-rule="evenodd" clip-rule="evenodd" d="M372.88 488.268C376.74 486.486 379.063 487.776 379.85 492.14C379.544 495.635 377.737 496.797 374.429 495.625C371.008 495.441 369.588 493.763 370.17 490.591C370.497 489.1 371.4 488.325 372.88 488.268Z" fill="#203935"/>
<path fill-rule="evenodd" clip-rule="evenodd" d="M372.88 488.268C377.348 488.436 378.639 490.372 376.752 494.076C371.538 494.716 370.247 492.78 372.88 488.268Z" fill="#F2F3F4"/>
<path fill-rule="evenodd" clip-rule="evenodd" d="M393.015 497.561C392.499 497.561 392.241 497.819 392.241 498.335C388.994 498.442 387.186 496.893 386.82 493.689C389.143 493.689 391.466 493.689 393.79 493.689C393.893 495.077 393.635 496.367 393.015 497.561Z" fill="#E0B9A6"/>
<path fill-rule="evenodd" clip-rule="evenodd" d="M407.729 489.042C408.5 488.976 409.145 489.235 409.665 489.817C410.858 497.869 408.019 499.677 401.146 495.238C399.746 491.168 401.037 488.586 405.019 487.494C406.334 487.406 407.238 487.922 407.729 489.042Z" fill="#224038"/>
<path fill-rule="evenodd" clip-rule="evenodd" d="M407.729 489.042C409.678 491.888 408.904 493.954 405.406 495.238C401.675 494.271 400.901 492.335 403.082 489.43C404.61 489.046 406.159 488.917 407.729 489.042Z" fill="#EEF1F1"/>
<path fill-rule="evenodd" clip-rule="evenodd" d="M207.93 497.561C235.293 497.561 262.656 497.561 290.018 497.561C290.018 514.34 290.018 531.119 290.018 547.898C275.65 549.617 267.39 557.619 265.237 571.905C262.656 570.872 260.074 570.872 257.493 571.905C257.878 567.259 255.813 565.581 251.297 566.871C250.104 567.933 249.071 569.094 248.2 570.356C247.942 570.356 247.683 570.356 247.425 570.356C247.004 567.124 246.101 564.027 244.715 561.063C241.554 557.658 239.231 558.174 237.745 562.612C236.976 565.665 236.46 568.762 236.196 571.905C234.58 571.21 232.902 570.694 231.163 570.356C235.389 564.031 237.068 557.061 236.196 549.447C234.108 546.837 231.397 545.804 228.065 546.349C228.924 545.737 229.956 545.35 231.163 545.188C230.646 544.93 230.13 544.671 229.614 544.413C230.343 538.07 228.537 532.39 224.193 527.376C221.719 527.236 219.395 526.849 217.223 526.214C221.513 526.882 225.255 525.849 228.452 523.117C228.106 519.134 225.911 516.423 221.87 514.985C217.331 513.584 212.684 512.939 207.93 513.049C207.93 507.886 207.93 502.724 207.93 497.561Z" fill="#4FB29C"/>
<path fill-rule="evenodd" clip-rule="evenodd" d="M417.796 499.11C420.316 501.411 423.155 503.347 426.315 504.918C429.276 507.982 429.406 511.208 426.702 514.598C424.267 516.77 421.814 518.834 419.345 520.793C416.764 520.793 414.182 520.793 411.601 520.793C406.097 519.846 401.451 517.265 397.662 513.049C402.408 511.243 407.054 509.049 411.601 506.467C414.143 504.32 416.209 501.868 417.796 499.11Z" fill="#F9BE98"/>
<path fill-rule="evenodd" clip-rule="evenodd" d="M619.144 491.366C619.144 507.628 619.144 523.891 619.144 540.154C618.156 538.557 617.51 536.749 617.208 534.733C617.064 536.697 616.677 538.504 616.046 540.154C616.046 524.149 616.046 508.145 616.046 492.14C617.176 492.192 618.209 491.934 619.144 491.366Z" fill="#5E8A6F"/>
<path fill-rule="evenodd" clip-rule="evenodd" d="M363.587 499.884C366.599 504.442 370.73 507.539 375.978 509.177C378.419 510.554 381 511.716 383.722 512.662C379.434 516.611 374.529 519.321 369.008 520.793C367.302 520.874 365.753 521.39 364.362 522.342C360.947 521.401 357.978 519.595 355.456 516.921C353.457 513.919 353.199 510.821 354.682 507.628C357.459 505.918 360.169 504.11 362.813 502.208C363.499 501.569 363.757 500.794 363.587 499.884Z" fill="#F8BD97"/>
<path fill-rule="evenodd" clip-rule="evenodd" d="M386.82 497.561C391.332 502.139 390.3 504.979 383.722 506.08C378.919 501.128 379.952 498.288 386.82 497.561Z" fill="#60967A"/>
<path fill-rule="evenodd" clip-rule="evenodd" d="M444.901 481.298C445.363 481.48 445.621 481.868 445.675 482.46C444.899 488.794 443.996 495.119 442.965 501.433C442.647 505.772 442.518 509.903 442.578 513.824C439.864 512.338 437.283 510.661 434.833 508.79C435.995 508.145 436.899 507.241 437.544 506.08C440.544 497.984 442.996 489.723 444.901 481.298Z" fill="#C57A3B"/>
<path fill-rule="evenodd" clip-rule="evenodd" d="M341.904 482.847C342.569 492.566 342.828 502.376 342.678 512.275C344.16 511.599 345.58 510.824 346.938 509.952C347.322 504.528 347.838 504.27 348.486 509.177C348.744 500.659 349.003 492.14 349.261 483.622C349.538 490.598 349.925 497.568 350.422 504.531C350.52 507.127 350.003 509.579 348.874 511.888C349.901 513.787 350.547 515.723 350.81 517.696C349.711 516.274 348.807 514.725 348.099 513.049C346.877 512.606 345.715 512.348 344.614 512.275C336.544 517.019 328.671 522.053 320.995 527.376C320.02 528.136 318.987 528.394 317.897 528.15C323.372 522.512 328.922 516.962 334.547 511.5C338.347 502.235 340.799 492.685 341.904 482.847Z" fill="#BE7635"/>
<path fill-rule="evenodd" clip-rule="evenodd" d="M125.842 517.696C125.902 518.664 126.418 519.309 127.391 519.632C126.799 521.234 126.412 522.912 126.23 524.666C125.473 523.679 124.827 523.679 124.293 524.666C117.931 523.413 111.477 522.767 104.933 522.73C101.487 522.129 100.325 520.193 101.448 516.921C104.413 514.283 107.898 513.251 111.903 513.824C117.101 513.444 121.748 514.734 125.842 517.696Z" fill="#689679"/>
<path fill-rule="evenodd" clip-rule="evenodd" d="M417.796 485.17C418.875 486.728 419.392 488.535 419.345 490.591C418.949 493.462 418.433 496.302 417.796 499.11C416.209 501.868 414.143 504.32 411.601 506.467C407.054 509.049 402.408 511.243 397.662 513.049C401.451 517.265 406.097 519.846 411.601 520.793C412.297 532.863 411.264 544.738 408.503 556.417C405.146 567.251 402.565 578.35 400.759 589.716C398.32 593.759 395.997 593.759 393.79 589.716C392.984 579.148 392.338 568.564 391.854 557.965C391.337 564.161 390.821 570.356 390.305 576.551C389.938 578.316 389.164 579.865 387.981 581.198C387.744 572.146 387.228 563.111 386.433 554.093C386.045 566.482 385.916 578.872 386.045 591.265C385.959 591.743 385.702 592.13 385.271 592.427C382.169 593.527 380.104 592.623 379.076 589.716C375.815 572.771 371.814 555.992 367.072 539.379C366.433 533.874 366.82 528.453 368.234 523.117C368.934 522.568 369.192 521.793 369.008 520.793C374.529 519.321 379.434 516.611 383.722 512.662C381 511.716 378.419 510.554 375.978 509.177C379.877 509.314 383.491 508.54 386.82 506.854C388.269 506.576 389.43 505.802 390.305 504.531C391.521 506.407 393.199 507.439 395.338 507.628C398.242 508.445 401.081 508.961 403.857 509.177C405.297 507.936 407.361 506.904 410.052 506.08C410.052 505.305 410.052 504.531 410.052 503.756C411.197 503.959 412.229 503.701 413.15 502.982C412.743 502.446 412.227 502.059 411.601 501.82C413.088 500.951 414.637 500.306 416.248 499.884C417.548 495.142 418.064 490.237 417.796 485.17Z" fill="#4E8368"/>
<path fill-rule="evenodd" clip-rule="evenodd" d="M207.93 513.049C212.684 512.939 217.331 513.584 221.87 514.985C225.911 516.423 228.106 519.134 228.452 523.117C225.255 525.849 221.513 526.882 217.223 526.214C214.27 525.218 211.173 524.443 207.93 523.891C201.86 522.483 195.664 521.967 189.344 522.342C183.657 524.027 178.882 527.124 175.018 531.635C171.176 537.51 167.95 543.705 165.337 550.221C163.878 550.057 162.846 549.283 162.24 547.898C161.247 546.769 161.247 545.736 162.24 544.8C162.138 545.373 162.268 545.889 162.627 546.349C167.831 533.275 176.479 523.208 188.57 516.147C194.826 514.029 201.28 512.996 207.93 513.049Z" fill="#6E9B7D"/>
<path fill-rule="evenodd" clip-rule="evenodd" d="M411.601 520.793C414.182 520.793 416.764 520.793 419.345 520.793C421.047 521.835 422.853 522.738 424.766 523.504C424.03 524.06 423.901 524.705 424.379 525.44C431.922 534.405 440.312 542.407 449.547 549.447C449.492 554.128 449.879 558.775 450.709 563.386C450.924 564.096 451.311 564.611 451.871 564.935C444.146 568.593 436.402 572.336 428.638 576.164C424.257 576.55 419.869 576.68 415.473 576.551C416.264 572.191 416.392 567.803 415.86 563.386C413.979 560.34 411.526 558.016 408.503 556.417C411.264 544.738 412.297 532.863 411.601 520.793Z" fill="#BE773A"/>
<path fill-rule="evenodd" clip-rule="evenodd" d="M449.547 489.817C449.914 497.705 450.172 505.707 450.322 513.824C456.2 517.506 461.75 521.637 466.972 526.214C467.261 526.924 467.649 527.57 468.133 528.15C467.875 528.28 467.617 528.408 467.359 528.538C460.13 523.631 452.644 519.114 444.901 514.985C446.037 514.135 446.683 512.973 446.837 511.5C447.995 504.298 448.898 497.071 449.547 489.817Z" fill="#BA7736"/>
<path fill-rule="evenodd" clip-rule="evenodd" d="M189.344 522.342C195.664 521.967 201.86 522.483 207.93 523.891C207.93 536.024 207.93 548.156 207.93 560.289C206.898 562.612 206.898 564.935 207.93 567.258C208.184 576.431 207.926 585.466 207.156 594.363C200.351 592.762 194.414 594.311 189.344 599.009C196.228 598.818 202.036 601.141 206.769 605.979C208.312 607.774 209.215 609.839 209.479 612.174C200.703 613.207 191.925 613.207 183.149 612.174C187.141 594.274 192.046 576.721 197.863 559.514C197.754 558.329 197.238 557.555 196.314 557.191C193.633 556.43 190.793 556.173 187.795 556.416C188.286 545.025 188.802 533.667 189.344 522.342Z" fill="#FCFAF6"/>
<path fill-rule="evenodd" clip-rule="evenodd" d="M189.344 522.342C188.802 533.667 188.286 545.025 187.795 556.417C190.793 556.173 193.633 556.43 196.314 557.191C185.214 557.191 174.114 557.191 163.014 557.191C163.635 554.81 164.41 552.487 165.337 550.221C167.95 543.705 171.176 537.51 175.018 531.635C178.882 527.124 183.657 524.027 189.344 522.342Z" fill="#FCF5EB"/>
<path fill-rule="evenodd" clip-rule="evenodd" d="M207.93 523.891C211.173 524.443 214.27 525.218 217.223 526.214C219.395 526.849 221.719 527.236 224.193 527.376C228.537 532.39 230.343 538.07 229.614 544.413C230.13 544.671 230.646 544.93 231.163 545.188C229.956 545.35 228.924 545.737 228.065 546.349C225.656 548.042 223.978 550.365 223.031 553.319C222.773 558.998 222.515 564.677 222.257 570.356C220.551 566.295 218.357 562.551 215.674 559.127C212.729 557.368 210.147 557.755 207.93 560.289C207.93 548.156 207.93 536.024 207.93 523.891Z" fill="#EFE3D0"/>
<path fill-rule="evenodd" clip-rule="evenodd" d="M600.558 529.312C600.938 533.019 601.712 536.633 602.881 540.154C598.751 540.154 594.621 540.154 590.491 540.154C590.362 536.015 590.491 531.885 590.878 527.763C593.766 527.02 596.735 526.762 599.784 526.989C599.6 527.989 599.858 528.763 600.558 529.312Z" fill="#F3F7F3"/>
<path fill-rule="evenodd" clip-rule="evenodd" d="M612.174 540.154C610.368 540.154 608.56 540.154 606.753 540.154C605.72 535.503 604.687 530.856 603.656 526.214C605.751 526.156 607.817 525.898 609.851 525.44C610.208 530.419 610.982 535.324 612.174 540.154Z" fill="#F2F4EA"/>
<path fill-rule="evenodd" clip-rule="evenodd" d="M369.008 520.793C369.192 521.793 368.934 522.568 368.234 523.117C368.335 522.544 368.206 522.028 367.847 521.568C366.148 525.654 365.245 529.913 365.136 534.346C365.695 540.486 366.34 546.552 367.072 552.544C363.72 551.706 360.493 550.544 357.392 549.06C353.011 548.673 348.623 548.544 344.227 548.672C346.291 545.062 348.355 541.448 350.422 537.831C354.76 532.457 359.406 527.294 364.362 522.342C365.753 521.39 367.302 520.874 369.008 520.793Z" fill="#31614F"/>
<path fill-rule="evenodd" clip-rule="evenodd" d="M307.83 530.861C307.83 534.216 307.83 537.573 307.83 540.928C307.291 538.039 306.775 535.07 306.281 532.022C306.702 531.467 307.219 531.08 307.83 530.861Z" fill="#F0D29F"/>
<path fill-rule="evenodd" clip-rule="evenodd" d="M623.791 537.056C623.037 538.325 622.005 539.358 620.693 540.154C622.288 534.981 623.966 529.818 625.727 524.666C625.891 520.981 626.019 517.367 626.114 513.824C628.554 521.87 627.78 529.614 623.791 537.056Z" fill="#54876A"/>
<path fill-rule="evenodd" clip-rule="evenodd" d="M115 434.833C118.626 434.708 121.982 435.612 125.068 437.544C128.945 441.049 132.172 445.05 134.748 449.547C142.396 463.816 148.334 478.788 152.56 494.463C152.856 494.894 153.243 495.152 153.721 495.238C156.262 508.261 157.424 521.426 157.206 534.733C158.541 508.913 158.67 483.1 157.593 457.291C159.113 455.381 160.016 453.058 160.304 450.322C160.562 451.613 160.82 452.903 161.078 454.194C161.241 452.987 161.628 451.955 162.24 451.096C163.217 467.734 163.217 484.384 162.24 501.046C162.369 503.498 162.498 505.95 162.627 508.403C162.951 504.97 163.596 501.614 164.563 498.335C165.402 498.305 166.176 498.047 166.886 497.561C167.572 498.2 167.83 498.974 167.661 499.884C166.493 508.694 165.073 517.47 163.401 526.214C162.836 532.402 162.449 538.597 162.24 544.8C161.247 545.736 161.247 546.769 162.24 547.898C162.846 549.283 163.878 550.057 165.337 550.221C164.41 552.487 163.635 554.81 163.014 557.191C162.756 557.191 162.498 557.191 162.24 557.191C157.335 557.191 152.43 557.191 147.526 557.191C146.188 553.307 144.768 549.435 143.267 545.575C139.488 536.248 133.164 529.279 124.293 524.666C124.827 523.679 125.473 523.679 126.229 524.666C126.412 522.912 126.799 521.234 127.391 519.632C126.418 519.309 125.902 518.664 125.842 517.696C137.416 525.023 145.031 535.348 148.688 548.672C148.58 541.143 147.805 533.656 146.364 526.214C139.994 521.237 135.089 515.042 131.65 507.628C126.73 496.463 123.373 484.847 121.583 472.78C119.887 469.897 118.21 467.058 116.549 464.261C117.264 463.639 118.039 463.51 118.873 463.874C121.325 466.327 123.777 468.778 126.229 471.231C135.461 487.298 142.43 504.336 147.139 522.342C147.678 523.956 148.582 525.247 149.849 526.214C150.878 531.862 151.781 537.542 152.56 543.251C152.552 536.548 152.423 529.837 152.172 523.117C152.422 518.58 152.164 514.192 151.398 509.952C151.622 505.503 151.235 501.114 150.236 496.787C149.252 495.716 148.09 494.941 146.751 494.463C141.062 487.215 136.157 479.471 132.038 471.231C128.973 462.336 126.263 453.302 123.906 444.126C123.132 442.836 122.357 441.545 121.583 440.254C119.242 438.552 117.048 436.746 115 434.833Z" fill="#497961"/>
<path fill-rule="evenodd" clip-rule="evenodd" d="M152.172 523.117C152.423 529.837 152.552 536.548 152.56 543.251C151.781 537.542 150.878 531.862 149.849 526.214C149.891 524.563 150.665 523.531 152.172 523.117Z" fill="#D7E2D8"/>
<path fill-rule="evenodd" clip-rule="evenodd" d="M146.751 494.463C148.09 494.941 149.252 495.716 150.236 496.787C151.235 501.114 151.622 505.503 151.398 509.952C151.52 511.015 151.39 512.048 151.011 513.049C150.355 506.822 148.677 500.886 145.977 495.238C146.073 494.768 146.331 494.51 146.751 494.463Z" fill="#EAF2E6"/>
<path fill-rule="evenodd" clip-rule="evenodd" d="M619.144 540.154C619.661 540.154 620.176 540.154 620.693 540.154C622.005 539.358 623.037 538.325 623.791 537.056C623.922 538.08 623.664 538.984 623.016 539.767C626.103 540.153 629.201 540.282 632.309 540.154C633.771 540.754 635.32 540.754 636.956 540.154C642.119 540.154 647.281 540.154 652.444 540.154C652.566 542.788 652.308 545.37 651.669 547.898C624.691 547.641 597.845 547.899 571.13 548.672C566.627 547.578 565.336 544.868 567.258 540.541C573.19 540.154 579.127 540.025 585.07 540.154C586.877 540.154 588.684 540.154 590.491 540.154C594.621 540.154 598.751 540.154 602.881 540.154C604.172 540.154 605.462 540.154 606.753 540.154C608.56 540.154 610.368 540.154 612.174 540.154C613.207 540.154 614.24 540.154 615.272 540.154C615.53 540.154 615.789 540.154 616.046 540.154C616.677 538.504 617.064 536.697 617.208 534.733C617.51 536.749 618.156 538.557 619.144 540.154Z" fill="#2A504B"/>
<path fill-rule="evenodd" clip-rule="evenodd" d="M652.444 540.154C655.839 539.901 659.194 540.16 662.511 540.928C663.589 543.588 663.073 545.912 660.962 547.898C657.865 547.898 654.767 547.898 651.669 547.898C652.308 545.37 652.566 542.788 652.444 540.154Z" fill="#65957C"/>
<path fill-rule="evenodd" clip-rule="evenodd" d="M350.422 537.831C348.355 541.448 346.291 545.062 344.227 548.672C343.134 550.542 341.586 551.833 339.581 552.544C339.581 550.738 339.581 548.93 339.581 547.124C342.611 543.294 346.225 540.196 350.422 537.831Z" fill="#C1793B"/>
<path opacity="0.063" fill-rule="evenodd" clip-rule="evenodd" d="M309.378 546.349C310.076 546.961 310.593 547.735 310.927 548.672C308.986 548.57 308.469 547.796 309.378 546.349Z" fill="#FBECDC"/>
<path fill-rule="evenodd" clip-rule="evenodd" d="M571.13 548.672C597.845 547.899 624.691 547.641 651.669 547.898C654.767 547.898 657.865 547.898 660.962 547.898C657.169 548.45 653.297 548.966 649.346 549.447C637.213 549.447 625.081 549.447 612.949 549.447C599.252 549.639 585.57 549.38 571.905 548.672C571.647 548.672 571.388 548.672 571.13 548.672Z" fill="#1A3633"/>
<path fill-rule="evenodd" clip-rule="evenodd" d="M228.065 546.349C231.397 545.804 234.108 546.837 236.196 549.447C237.068 557.061 235.389 564.031 231.163 570.356C228.812 572.175 226.618 574.24 224.58 576.551C223.631 574.965 222.469 574.708 221.095 575.777C216.069 573.911 211.681 571.071 207.93 567.258C206.898 564.935 206.898 562.612 207.93 560.289C210.147 557.756 212.729 557.368 215.674 559.127C218.357 562.552 220.551 566.295 222.257 570.356C222.515 564.677 222.773 558.998 223.031 553.319C223.978 550.365 225.656 548.042 228.065 546.349Z" fill="#325E4D"/>
<path fill-rule="evenodd" clip-rule="evenodd" d="M290.018 547.898C290.792 547.898 291.567 547.898 292.341 547.898C297.221 547.957 301.867 548.989 306.281 550.995C306.546 551.644 307.061 551.903 307.83 551.77C309.73 552.333 311.537 553.107 313.25 554.093C319.416 557.176 325.611 560.274 331.836 563.386C342.004 569.117 352.071 575.053 362.039 581.198C366.896 584.665 372.058 587.762 377.527 590.491C377.997 590.395 378.255 590.137 378.301 589.716C378.559 589.716 378.818 589.716 379.076 589.716C380.104 592.623 382.169 593.527 385.271 592.427C385.702 592.13 385.959 591.743 386.045 591.265C388.173 588.877 390.755 588.361 393.79 589.716C395.997 593.759 398.32 593.759 400.759 589.716C404.246 589.21 407.344 587.79 410.052 585.457C412.219 582.69 414.026 579.722 415.473 576.551C419.869 576.68 424.257 576.55 428.638 576.164C436.402 572.336 444.146 568.592 451.871 564.935C461.236 560.608 470.786 556.736 480.524 553.319C481.04 553.319 481.298 553.061 481.298 552.544C484.094 551.613 486.934 550.838 489.817 550.221C491.871 550.291 493.677 549.775 495.238 548.672C496.605 547.928 498.153 547.669 499.884 547.898C500.401 547.898 500.917 547.898 501.433 547.898C515.544 547.53 524.966 553.984 529.699 567.258C531.305 580.305 526.787 590.631 516.147 598.235C507.957 602.975 499.438 607.105 490.591 610.625C481.648 613.826 472.614 616.408 463.487 618.369C453.037 619.707 442.712 620.223 432.51 619.918C432.517 625.325 430.711 629.972 427.089 633.858C426.573 633.858 426.315 634.116 426.315 634.632C404.209 636.343 382.267 635.052 360.49 630.76C344.793 627.933 329.564 623.546 314.799 617.595C307.41 616.67 303.796 620.026 303.958 627.662C298.02 627.662 292.083 627.662 286.146 627.662C280.473 627.473 275.956 625.149 272.594 620.693C271.655 618.111 272.3 616.175 274.53 614.885C282.136 614.25 289.622 613.605 296.988 612.949C298.813 613.075 300.62 612.946 302.409 612.561C291.346 607.688 281.537 601.105 272.981 592.814C267.6 586.942 265.018 579.972 265.237 571.905C267.39 557.619 275.65 549.617 290.018 547.898Z" fill="#0D2129"/>
<path fill-rule="evenodd" clip-rule="evenodd" d="M495.238 548.672C493.677 549.775 491.871 550.291 489.817 550.221C491.377 549.118 493.184 548.603 495.238 548.672Z" fill="#616867"/>
<path opacity="0.063" fill-rule="evenodd" clip-rule="evenodd" d="M310.927 549.447C311.96 549.963 312.734 550.738 313.25 551.77C311.937 551.627 310.905 550.981 310.153 549.834C310.329 549.525 310.588 549.396 310.927 549.447Z" fill="#FBF9F4"/>
<path fill-rule="evenodd" clip-rule="evenodd" d="M571.905 548.672C585.57 549.38 599.252 549.639 612.949 549.447C610.121 554.329 607.927 559.492 606.366 564.935C604.795 571.953 606.344 578.148 611.013 583.521C620.619 593.002 630.557 602.036 640.828 610.625C640.828 611.4 640.828 612.174 640.828 612.949C640.13 613.561 639.613 614.335 639.279 615.272C622.242 615.272 605.205 615.272 588.167 615.272C588.375 614.034 588.116 613.001 587.393 612.174C586.26 607.227 584.969 602.322 583.521 597.46C579.326 581.784 574.68 566.296 569.582 550.996C569.324 550.479 569.065 549.963 568.807 549.447C570.045 549.654 571.078 549.396 571.905 548.672Z" fill="#254C48"/>
<path opacity="0.063" fill-rule="evenodd" clip-rule="evenodd" d="M307.83 551.77C307.061 551.903 306.546 551.645 306.281 550.996C307.384 549.81 307.9 550.068 307.83 551.77Z" fill="#D3D7D6"/>
<path fill-rule="evenodd" clip-rule="evenodd" d="M612.949 549.447C625.082 549.447 637.213 549.447 649.346 549.447C652.027 550.207 654.867 550.465 657.865 550.221C653.018 568.634 647.855 586.962 642.376 605.205C642.446 607.258 641.93 609.065 640.828 610.625C630.557 602.036 620.619 593.002 611.013 583.521C606.344 578.148 604.795 571.953 606.366 564.935C607.927 559.492 610.121 554.329 612.949 549.447Z" fill="#649677"/>
<path fill-rule="evenodd" clip-rule="evenodd" d="M369.783 561.837C370.83 568.854 369.281 575.177 365.136 580.811C364.135 581.19 363.102 581.319 362.039 581.198C352.071 575.054 342.004 569.117 331.836 563.386C334.418 560.289 336.999 557.191 339.581 554.093C348.113 549.87 356.632 549.998 365.136 554.48C367.178 556.628 368.726 559.081 369.783 561.837Z" fill="#508468"/>
<path fill-rule="evenodd" clip-rule="evenodd" d="M569.582 550.996C574.68 566.296 579.326 581.784 583.521 597.461C572.61 598.975 561.51 599.492 550.221 599.009C550.052 585.612 551.73 572.447 555.255 559.514C557.444 552.415 562.22 549.575 569.582 550.996Z" fill="#E8DCC6"/>
<path fill-rule="evenodd" clip-rule="evenodd" d="M479.75 543.251C479.541 546.683 479.799 550.039 480.524 553.319C470.786 556.736 461.236 560.608 451.871 564.935C451.312 564.611 450.924 564.096 450.709 563.386C449.879 558.775 449.492 554.128 449.547 549.447C452.525 551.323 455.623 553.001 458.84 554.48C469.001 556.323 475.971 552.579 479.75 543.251Z" fill="#F9EBDA"/>
<path fill-rule="evenodd" clip-rule="evenodd" d="M368.234 523.117C366.82 528.453 366.433 533.874 367.072 539.379C371.814 555.992 375.815 572.771 379.076 589.716C378.818 589.716 378.559 589.716 378.301 589.716C375.225 580.955 372.774 571.92 370.944 562.612C370.648 562.181 370.261 561.923 369.783 561.837C368.726 559.08 367.178 556.628 365.136 554.48C356.632 549.998 348.113 549.87 339.581 554.093C339.581 553.577 339.581 553.061 339.581 552.544C341.586 551.833 343.134 550.542 344.227 548.672C348.623 548.544 353.011 548.673 357.392 549.06C360.493 550.544 363.72 551.706 367.072 552.544C366.34 546.552 365.695 540.486 365.136 534.346C365.245 529.913 366.148 525.654 367.847 521.568C368.206 522.028 368.335 522.544 368.234 523.117Z" fill="#21483D"/>
<path fill-rule="evenodd" clip-rule="evenodd" d="M162.24 557.191C162.498 557.191 162.756 557.191 163.014 557.191C174.114 557.191 185.214 557.191 196.314 557.191C197.238 557.555 197.754 558.329 197.863 559.514C192.046 576.721 187.141 594.274 183.149 612.174C182.891 612.174 182.632 612.174 182.375 612.174C182.366 611 181.85 610.096 180.826 609.464C171.977 602.684 163.588 595.327 155.657 587.393C153.798 583.729 153.281 579.856 154.108 575.777C155.636 571.17 157.96 567.039 161.078 563.386C161.517 561.32 161.904 559.256 162.24 557.191Z" fill="#679879"/>
<path fill-rule="evenodd" clip-rule="evenodd" d="M339.581 547.124C339.581 548.93 339.581 550.738 339.581 552.544C339.581 553.061 339.581 553.577 339.581 554.093C336.999 557.191 334.418 560.289 331.836 563.386C325.611 560.274 319.416 557.176 313.25 554.093C314.025 553.835 314.541 553.319 314.799 552.544C318.762 554.091 322.892 554.478 327.19 553.706C331.706 552.095 335.836 549.901 339.581 547.124Z" fill="#F8F1E6"/>
<path fill-rule="evenodd" clip-rule="evenodd" d="M408.503 556.417C411.526 558.016 413.979 560.34 415.86 563.386C416.392 567.803 416.264 572.191 415.473 576.551C414.026 579.722 412.219 582.69 410.052 585.457C407.344 587.79 404.246 589.211 400.759 589.716C402.565 578.35 405.146 567.251 408.503 556.417Z" fill="#376854"/>
<path fill-rule="evenodd" clip-rule="evenodd" d="M147.526 557.191C152.43 557.191 157.335 557.191 162.24 557.191C161.904 559.256 161.517 561.32 161.078 563.386C157.96 567.039 155.636 571.17 154.108 575.777C153.281 579.857 153.798 583.729 155.657 587.393C163.588 595.327 171.977 602.684 180.826 609.464C181.85 610.096 182.366 611 182.375 612.174C182.375 612.949 182.375 613.723 182.375 614.498C181.858 614.498 181.6 614.756 181.6 615.272C167.919 615.272 154.238 615.272 140.556 615.272C140.88 614.713 141.396 614.326 142.105 614.11C138.07 600.683 134.456 587.131 131.263 573.454C130.418 570.126 129.644 566.771 128.94 563.386C126.621 561.973 126.104 560.037 127.391 557.578C134.098 557.191 140.809 557.062 147.526 557.191Z" fill="#254A46"/>
<path fill-rule="evenodd" clip-rule="evenodd" d="M633.858 564.161C635.826 565.03 635.826 566.063 633.858 567.258C632.986 566.245 632.986 565.212 633.858 564.161Z" fill="#D6EAE0"/>
<path fill-rule="evenodd" clip-rule="evenodd" d="M642.376 564.161C643.151 564.161 643.925 564.161 644.7 564.161C644.7 564.935 644.7 565.709 644.7 566.484C643.925 566.484 643.151 566.484 642.376 566.484C642.376 565.709 642.376 564.935 642.376 564.161Z" fill="#DDEEDA"/>
<path fill-rule="evenodd" clip-rule="evenodd" d="M369.783 561.837C370.261 561.923 370.648 562.181 370.944 562.612C372.774 571.92 375.225 580.955 378.301 589.716C378.255 590.137 377.997 590.395 377.527 590.491C372.058 587.762 366.896 584.665 362.039 581.198C363.102 581.319 364.135 581.19 365.136 580.811C369.281 575.177 370.83 568.854 369.783 561.837Z" fill="#305B4C"/>
<path fill-rule="evenodd" clip-rule="evenodd" d="M257.493 571.905C254.432 572.503 251.335 572.76 248.2 572.679C248.2 571.905 248.2 571.13 248.2 570.356C249.071 569.094 250.104 567.933 251.297 566.871C255.813 565.581 257.878 567.259 257.493 571.905Z" fill="#77A684"/>
<path fill-rule="evenodd" clip-rule="evenodd" d="M247.425 570.356C247.683 570.356 247.942 570.356 248.2 570.356C248.2 571.13 248.2 571.905 248.2 572.679C251.335 572.761 254.432 572.503 257.493 571.905C260.074 570.872 262.656 570.872 265.237 571.905C265.018 579.973 267.6 586.942 272.981 592.814C270.772 595.984 267.675 597.532 263.688 597.46C262.378 596.404 261.088 595.372 259.816 594.363C259.714 593.791 259.844 593.274 260.203 592.814C261.286 593.241 262.319 593.499 263.301 593.588C264.452 593.005 264.582 592.36 263.688 591.652C264.862 590.183 265.379 588.505 265.237 586.619C262.62 586.607 260.297 585.833 258.267 584.295C258.254 583.112 257.737 582.725 256.718 583.134C256.07 583.917 255.812 584.82 255.944 585.844C256.896 587.236 257.412 588.785 257.493 590.491C259.062 590.365 260.611 590.495 262.139 590.878C261.881 591.136 261.623 591.394 261.365 591.652C258.561 592.534 255.721 593.179 252.846 593.588C252.846 592.814 252.846 592.04 252.846 591.265C252.072 591.265 251.297 591.265 250.523 591.265C250.699 588.99 249.924 587.183 248.2 585.844C248.2 584.812 248.2 583.779 248.2 582.747C247.425 582.747 246.651 582.747 245.876 582.747C245.876 583.521 245.876 584.295 245.876 585.07C244.379 585.542 243.088 586.317 242.004 587.393C242.004 587.651 242.004 587.91 242.004 588.167C241.233 588.101 240.588 588.36 240.068 588.942C238.873 591.01 237.97 593.204 237.358 595.524C235.83 595.908 234.281 596.037 232.711 595.912C231.33 595.607 230.04 595.092 228.839 594.363C229.408 593.427 229.666 592.395 229.614 591.265C230.998 588.497 232.418 585.658 233.873 582.747C237.666 579.235 241.925 576.395 246.651 574.228C247.388 573.032 247.646 571.741 247.425 570.356Z" fill="#A9BF9E"/>
<path fill-rule="evenodd" clip-rule="evenodd" d="M207.93 567.258C211.681 571.071 216.069 573.911 221.095 575.777C221.147 576.907 220.889 577.939 220.321 578.875C220.016 580.256 219.501 581.546 218.772 582.747C216.226 583.176 214.29 584.467 212.964 586.619C212.577 590.224 212.448 593.837 212.577 597.46C210.844 596.209 209.037 595.177 207.156 594.363C207.926 585.466 208.184 576.431 207.93 567.258Z" fill="#ECE1D4"/>
<path fill-rule="evenodd" clip-rule="evenodd" d="M247.425 570.356C247.646 571.741 247.388 573.032 246.651 574.228C241.925 576.395 237.666 579.235 233.873 582.747C232.418 585.658 230.998 588.497 229.614 591.265C227.987 589.137 226.567 586.814 225.355 584.295C226.486 588.798 226.744 593.444 226.129 598.235C222.178 598.566 220.629 600.63 221.482 604.43C221.609 602.745 222.254 601.326 223.418 600.171C225.648 599.748 227.713 599.103 229.614 598.235C231.624 598.665 233.431 599.439 235.035 600.558C235.401 607.375 234.755 614.087 233.099 620.693C232.739 621.801 232.093 622.704 231.163 623.403C228.853 623.789 226.53 623.918 224.193 623.791C224.187 613.151 220.315 604.374 212.577 597.46C212.448 593.837 212.577 590.224 212.964 586.619C214.29 584.467 216.226 583.176 218.772 582.747C220.42 583.621 222.227 583.75 224.193 583.134C223.567 581.813 222.535 581.168 221.095 581.198C221.279 580.198 221.021 579.424 220.321 578.874C220.889 577.939 221.147 576.907 221.095 575.777C222.469 574.707 223.631 574.965 224.58 576.551C226.618 574.24 228.812 572.175 231.163 570.356C232.902 570.694 234.58 571.21 236.196 571.905C236.46 568.762 236.976 565.665 237.745 562.612C239.231 558.174 241.554 557.658 244.715 561.063C246.101 564.027 247.004 567.124 247.425 570.356Z" fill="#78A482"/>
<path fill-rule="evenodd" clip-rule="evenodd" d="M634.632 571.13C638.371 571.041 639.403 572.719 637.73 576.164C632.959 576.844 631.926 575.166 634.632 571.13Z" fill="#F1F8F2"/>
<path fill-rule="evenodd" clip-rule="evenodd" d="M393.79 589.716C390.755 588.361 388.173 588.878 386.045 591.265C385.916 578.872 386.045 566.482 386.433 554.093C387.228 563.111 387.744 572.146 387.981 581.198C389.164 579.865 389.938 578.316 390.305 576.551C390.821 570.356 391.337 564.161 391.854 557.965C392.338 568.564 392.984 579.148 393.79 589.716Z" fill="#1E473D"/>
<path fill-rule="evenodd" clip-rule="evenodd" d="M220.321 578.875C221.021 579.424 221.279 580.198 221.095 581.198C222.535 581.168 223.567 581.813 224.193 583.134C222.227 583.75 220.42 583.621 218.772 582.747C219.501 581.546 220.016 580.256 220.321 578.875Z" fill="#353E34"/>
<path fill-rule="evenodd" clip-rule="evenodd" d="M258.267 584.295C258.018 585.494 257.244 586.011 255.944 585.844C255.812 584.821 256.07 583.917 256.718 583.134C257.737 582.725 258.254 583.112 258.267 584.295Z" fill="#414638"/>
<path fill-rule="evenodd" clip-rule="evenodd" d="M248.2 585.844C247.2 586.028 246.426 585.77 245.876 585.07C245.876 584.295 245.876 583.521 245.876 582.747C246.651 582.747 247.425 582.747 248.2 582.747C248.2 583.779 248.2 584.812 248.2 585.844Z" fill="#413121"/>
<path fill-rule="evenodd" clip-rule="evenodd" d="M568.807 549.447C569.065 549.963 569.324 550.479 569.582 550.996C562.22 549.575 557.444 552.415 555.255 559.514C551.73 572.447 550.052 585.612 550.221 599.009C550.304 603.461 550.821 607.849 551.77 612.174C552.349 615.208 554.157 617.144 557.191 617.982C565.651 619.354 574.169 620 582.747 619.918C582.747 620.951 582.747 621.984 582.747 623.016C561.836 623.145 540.927 623.016 520.019 622.629C536.425 621.605 552.946 621.089 569.582 621.08C565.452 620.822 561.321 620.564 557.191 620.306C552.9 618.981 550.06 616.27 548.672 612.174C548.33 609.345 548.071 606.505 547.898 603.656C547.148 587.243 549.343 571.239 554.48 555.642C557.791 549.858 562.566 547.793 568.807 549.447Z" fill="#5F8A70"/>
<path fill-rule="evenodd" clip-rule="evenodd" d="M242.004 587.393C242.779 587.393 243.553 587.393 244.328 587.393C244.328 588.167 244.328 588.942 244.328 589.716C243.027 589.883 242.253 589.366 242.004 588.167C242.004 587.91 242.004 587.651 242.004 587.393Z" fill="#CC523C"/>
<path fill-rule="evenodd" clip-rule="evenodd" d="M258.267 584.295C260.297 585.833 262.62 586.607 265.237 586.619C265.379 588.505 264.862 590.183 263.688 591.652C264.582 592.36 264.452 593.005 263.301 593.588C262.319 593.499 261.286 593.241 260.203 592.814C259.844 593.274 259.714 593.791 259.816 594.363C253.889 594.825 247.952 595.212 242.004 595.524C241.175 596.184 240.401 596.829 239.681 597.46C237.182 597.324 234.859 596.808 232.711 595.912C234.281 596.037 235.83 595.908 237.358 595.524C237.97 593.204 238.873 591.01 240.068 588.942C240.588 588.36 241.233 588.101 242.004 588.167C242.253 589.366 243.027 589.883 244.328 589.716C244.328 588.942 244.328 588.167 244.328 587.393C243.553 587.393 242.779 587.393 242.004 587.393C243.088 586.317 244.379 585.542 245.876 585.07C246.426 585.77 247.2 586.028 248.2 585.844C249.924 587.183 250.699 588.99 250.523 591.265C251.297 591.265 252.072 591.265 252.846 591.265C252.846 592.04 252.846 592.814 252.846 593.588C255.721 593.179 258.561 592.534 261.365 591.652C261.623 591.394 261.881 591.136 262.139 590.878C260.611 590.495 259.062 590.365 257.493 590.491C257.412 588.785 256.896 587.236 255.944 585.844C257.244 586.011 258.019 585.494 258.267 584.295Z" fill="#B5BDA2"/>
<path fill-rule="evenodd" clip-rule="evenodd" d="M259.816 587.393C262.493 587.522 262.751 588.297 260.59 589.716C259.904 589.077 259.646 588.303 259.816 587.393Z" fill="#D36F5D"/>
<path fill-rule="evenodd" clip-rule="evenodd" d="M229.614 591.265C229.666 592.395 229.408 593.427 228.839 594.363C227.538 596.087 227.796 597.378 229.614 598.235C227.713 599.103 225.648 599.748 223.418 600.171C222.254 601.326 221.609 602.745 221.482 604.43C220.629 600.63 222.178 598.566 226.129 598.235C226.744 593.444 226.486 588.798 225.355 584.295C226.567 586.814 227.987 589.137 229.614 591.265Z" fill="#387151"/>
<path fill-rule="evenodd" clip-rule="evenodd" d="M259.816 594.363C261.088 595.372 262.378 596.404 263.688 597.46C263.688 602.365 263.688 607.27 263.688 612.174C262.472 616.53 260.149 620.273 256.718 623.403C251.184 625.771 246.666 624.61 243.166 619.918C241.146 615.928 239.985 611.797 239.681 607.528C239.681 604.172 239.681 600.816 239.681 597.46C240.401 596.829 241.175 596.184 242.004 595.524C247.952 595.212 253.889 594.825 259.816 594.363Z" fill="#336552"/>
<path fill-rule="evenodd" clip-rule="evenodd" d="M272.981 592.814C281.537 601.106 291.346 607.688 302.409 612.562C300.62 612.946 298.813 613.075 296.988 612.949C285.911 612.228 274.811 611.97 263.688 612.174C263.688 607.27 263.688 602.365 263.688 597.46C267.675 597.532 270.772 595.984 272.981 592.814Z" fill="#FAF9F4"/>
<path fill-rule="evenodd" clip-rule="evenodd" d="M516.147 598.235C526.335 599.006 536.661 599.264 547.124 599.009C546.895 600.74 547.154 602.289 547.898 603.656C548.071 606.505 548.33 609.345 548.672 612.174C529.052 612.304 509.434 612.174 489.817 611.787C490.247 611.491 490.505 611.103 490.591 610.625C499.438 607.105 507.957 602.975 516.147 598.235Z" fill="#FCFBF8"/>
<path fill-rule="evenodd" clip-rule="evenodd" d="M583.521 597.46C584.969 602.322 586.26 607.227 587.393 612.174C575.756 612.196 563.882 612.196 551.77 612.174C550.821 607.849 550.304 603.461 550.221 599.009C561.51 599.492 572.61 598.975 583.521 597.46Z" fill="#FCFAF6"/>
<path fill-rule="evenodd" clip-rule="evenodd" d="M228.839 594.363C230.04 595.092 231.33 595.607 232.711 595.912C234.859 596.808 237.182 597.324 239.681 597.46C239.681 600.816 239.681 604.172 239.681 607.528C239.681 608.56 239.681 609.593 239.681 610.625C238.39 610.625 237.1 610.625 235.809 610.625C236.055 607.116 235.797 603.76 235.035 600.558C233.431 599.439 231.624 598.665 229.614 598.235C227.796 597.378 227.538 596.087 228.839 594.363Z" fill="#F6F3EC"/>
<path fill-rule="evenodd" clip-rule="evenodd" d="M207.156 594.363C209.037 595.177 210.844 596.209 212.577 597.46C220.315 604.374 224.187 613.151 224.193 623.791C220.569 623.919 216.956 623.79 213.351 623.403C212.297 619.504 211.006 615.761 209.479 612.174C209.215 609.839 208.312 607.774 206.769 605.979C202.036 601.141 196.228 598.818 189.344 599.009C194.414 594.311 200.351 592.762 207.156 594.363Z" fill="#437260"/>
<path fill-rule="evenodd" clip-rule="evenodd" d="M235.035 600.558C235.797 603.76 236.055 607.116 235.809 610.625C237.1 610.625 238.39 610.625 239.681 610.625C239.681 609.593 239.681 608.56 239.681 607.528C239.985 611.797 241.146 615.928 243.166 619.918C246.666 624.61 251.184 625.771 256.718 623.403C260.149 620.273 262.472 616.53 263.688 612.174C274.811 611.97 285.911 612.228 296.988 612.949C289.622 613.605 282.136 614.251 274.53 614.885C272.3 616.175 271.655 618.111 272.594 620.693C275.956 625.15 280.473 627.473 286.146 627.663C283.453 628.3 280.614 628.687 277.627 628.824C275.595 629.27 275.079 630.303 276.079 631.922C278.093 632.634 280.158 633.151 282.274 633.471C291.043 634.319 299.82 635.093 308.604 635.794C369.648 638.076 430.568 638.205 491.366 636.181C508.546 636.41 525.583 634.991 542.477 631.922C543.103 631.683 543.619 631.296 544.026 630.76C539.425 628.514 534.52 627.352 529.312 627.275C516.168 626.222 503.003 625.577 489.817 625.339C488.392 624.048 486.843 622.886 485.17 621.854C478.133 619.449 470.906 618.288 463.487 618.37C472.614 616.408 481.648 613.826 490.591 610.625C490.505 611.103 490.247 611.491 489.817 611.787C509.434 612.174 529.052 612.304 548.672 612.174C550.06 616.27 552.9 618.981 557.191 620.306C561.321 620.564 565.452 620.822 569.582 621.08C552.946 621.089 536.425 621.605 520.019 622.629C540.927 623.016 561.836 623.145 582.747 623.016C603.398 623.016 624.048 623.016 644.7 623.016C663.802 623.016 682.904 623.016 702.006 623.016C705.372 623.145 708.727 623.015 712.074 622.629C712.332 622.371 712.59 622.112 712.848 621.854C690.152 620.759 667.436 620.372 644.7 620.693C645.216 616.563 643.409 614.755 639.279 615.272C639.613 614.335 640.13 613.561 640.828 612.949C678.406 613.442 715.836 616.023 753.118 620.693C758.206 621.185 762.853 622.733 767.057 625.339C766.6 626.345 765.826 626.99 764.734 627.275C760.465 628.8 756.077 629.833 751.569 630.373C728.639 633.338 705.665 635.789 682.646 637.73C521.336 645.36 359.999 645.876 198.637 639.279C166.234 637.789 133.967 634.821 101.835 630.373C98.6758 629.841 95.5782 629.067 92.5425 628.05C88.3366 625.408 88.8524 623.601 94.0913 622.629C97.419 621.732 100.775 620.958 104.159 620.306C115.312 619.088 126.412 617.668 137.459 616.046C136.84 618.315 136.582 620.639 136.684 623.016C149.591 623.016 162.498 623.016 175.405 623.016C180.099 623.241 184.745 622.983 189.344 622.242C190.292 620.385 190.164 618.578 188.957 616.821C186.855 615.662 184.661 614.888 182.375 614.498C182.375 613.723 182.375 612.949 182.375 612.174C182.632 612.174 182.891 612.174 183.149 612.174C191.925 613.207 200.703 613.207 209.479 612.174C211.006 615.761 212.297 619.504 213.351 623.403C216.956 623.79 220.569 623.919 224.193 623.791C226.53 623.918 228.853 623.789 231.163 623.403C232.093 622.704 232.739 621.801 233.099 620.693C234.755 614.087 235.401 607.375 235.035 600.558Z" fill="#ACE3D3"/>
<path fill-rule="evenodd" clip-rule="evenodd" d="M551.77 612.174C563.882 612.196 575.756 612.196 587.393 612.174C588.116 613.001 588.375 614.034 588.167 615.272C584.42 614.635 582.613 616.183 582.747 619.918C574.169 620 565.651 619.354 557.191 617.982C554.157 617.144 552.349 615.208 551.77 612.174Z" fill="#E4D9C8"/>
<path fill-rule="evenodd" clip-rule="evenodd" d="M140.556 615.272C154.238 615.272 167.919 615.272 181.6 615.272C179.848 618.062 177.782 620.643 175.405 623.016C162.498 623.016 149.591 623.016 136.684 623.016C136.582 620.639 136.84 618.315 137.458 616.046C138.286 615.323 139.318 615.064 140.556 615.272Z" fill="#1E4041"/>
<path fill-rule="evenodd" clip-rule="evenodd" d="M588.167 615.272C605.205 615.272 622.242 615.272 639.279 615.272C643.409 614.755 645.216 616.563 644.7 620.693C644.7 620.951 644.7 621.209 644.7 621.467C644.7 621.984 644.7 622.5 644.7 623.016C624.048 623.016 603.398 623.016 582.747 623.016C582.747 621.984 582.747 620.951 582.747 619.918C582.613 616.183 584.42 614.635 588.167 615.272Z" fill="#1E4444"/>
<path fill-rule="evenodd" clip-rule="evenodd" d="M314.799 617.595C314.799 619.144 314.799 620.693 314.799 622.242C311.85 621.981 309.011 622.368 306.281 623.403C314.649 625.786 314.39 627.076 305.506 627.275C307.001 629.33 309.066 630.362 311.702 630.373C309.392 630.759 307.069 630.888 304.732 630.76C304.474 629.728 304.215 628.695 303.958 627.663C303.796 620.026 307.41 616.67 314.799 617.595Z" fill="#F3AD87"/>
<path fill-rule="evenodd" clip-rule="evenodd" d="M463.487 618.37C470.906 618.288 478.133 619.449 485.17 621.855C486.843 622.886 488.392 624.048 489.817 625.34C490.505 627.206 491.021 629.142 491.366 631.148C491.32 632.26 491.062 633.292 490.591 634.245C471.233 634.632 451.872 634.762 432.51 634.632C433.495 630.025 433.882 625.378 433.672 620.693C433.375 620.262 432.988 620.005 432.51 619.919C442.712 620.224 453.037 619.707 463.487 618.37Z" fill="#F9BB98"/>
<path fill-rule="evenodd" clip-rule="evenodd" d="M182.375 614.498C184.661 614.888 186.855 615.662 188.957 616.821C190.164 618.578 190.292 620.385 189.344 622.242C184.745 622.983 180.099 623.241 175.405 623.016C177.782 620.643 179.848 618.062 181.6 615.272C181.6 614.755 181.858 614.498 182.375 614.498Z" fill="#85A98A"/>
<path fill-rule="evenodd" clip-rule="evenodd" d="M314.799 617.595C329.564 623.546 344.793 627.934 360.49 630.76C360.166 631.319 359.65 631.707 358.941 631.922C341.136 633.263 323.325 633.65 305.506 633.083C305.021 632.373 304.762 631.599 304.732 630.76C307.069 630.888 309.392 630.759 311.702 630.373C309.066 630.362 307.001 629.33 305.506 627.275C314.39 627.076 314.649 625.786 306.281 623.403C309.011 622.368 311.85 621.981 314.799 622.242C314.799 620.693 314.799 619.144 314.799 617.595Z" fill="#F8BE9C"/>
<path fill-rule="evenodd" clip-rule="evenodd" d="M644.7 621.467C644.7 621.209 644.7 620.951 644.7 620.693C667.436 620.372 690.152 620.759 712.848 621.855C712.59 622.112 712.332 622.371 712.074 622.629C708.727 623.015 705.372 623.145 702.006 623.016C702.597 622.421 703.372 622.034 704.33 621.855C684.454 621.467 664.578 621.338 644.7 621.467Z" fill="#B2BFAB"/>
<path fill-rule="evenodd" clip-rule="evenodd" d="M432.51 619.918C432.988 620.004 433.375 620.262 433.672 620.693C433.882 625.378 433.495 630.025 432.51 634.632C430.529 634.866 428.721 634.608 427.089 633.858C430.711 629.972 432.517 625.325 432.51 619.918Z" fill="#F39A6F"/>
<path fill-rule="evenodd" clip-rule="evenodd" d="M644.7 621.467C664.578 621.338 684.454 621.467 704.33 621.854C703.372 622.034 702.597 622.421 702.006 623.016C682.904 623.016 663.802 623.016 644.7 623.016C644.7 622.5 644.7 621.984 644.7 621.467Z" fill="#51806D"/>
<path fill-rule="evenodd" clip-rule="evenodd" d="M489.817 625.339C503.003 625.577 516.168 626.222 529.312 627.275C534.52 627.352 539.425 628.514 544.026 630.76C543.619 631.296 543.103 631.683 542.477 631.922C525.583 634.991 508.546 636.41 491.366 636.181C469.682 635.665 447.999 635.149 426.315 634.632C426.315 634.116 426.573 633.858 427.089 633.858C428.721 634.608 430.529 634.866 432.51 634.632C451.872 634.762 471.233 634.632 490.591 634.245C491.062 633.292 491.32 632.26 491.366 631.147C491.021 629.142 490.505 627.206 489.817 625.339Z" fill="#B9B0A4"/>
<path fill-rule="evenodd" clip-rule="evenodd" d="M286.146 627.663C292.083 627.663 298.02 627.663 303.957 627.663C304.215 628.695 304.474 629.728 304.732 630.76C304.762 631.599 305.021 632.373 305.506 633.083C323.325 633.65 341.136 633.263 358.941 631.922C359.65 631.707 360.166 631.319 360.49 630.76C382.267 635.052 404.209 636.343 426.315 634.632C447.999 635.149 469.682 635.665 491.366 636.181C430.568 638.205 369.648 638.076 308.604 635.794C299.82 635.093 291.043 634.319 282.274 633.471C280.158 633.151 278.093 632.634 276.079 631.922C275.079 630.303 275.595 629.27 277.627 628.824C280.614 628.687 283.453 628.3 286.146 627.663Z" fill="#AFACA4"/>
<path opacity="0.989" fill-rule="evenodd" clip-rule="evenodd" d="M682.646 637.73C677.031 641.913 671.094 645.656 664.834 648.959C631.412 663.79 596.564 674.116 560.289 679.936C520.314 686.847 480.045 689.428 439.48 687.68C413.773 685.543 387.96 683.994 362.039 683.033C327.954 679.922 294.397 673.985 261.365 665.222C240.132 658.363 219.481 650.232 199.412 640.828C198.794 640.474 198.536 639.957 198.637 639.279C359.999 645.876 521.336 645.36 682.646 637.73Z" fill="#29786A"/>
</svg>
