<svg width="50" height="50" viewBox="0 0 50 50" fill="none" xmlns="http://www.w3.org/2000/svg">
<circle cx="25" cy="25" r="25" fill="#48D346"/>
<g clip-path="url(#clip0_1_1889)">
<path d="M12.25 37.75L14.5875 32.3667C12.7992 29.8281 11.9988 26.7241 12.3365 23.6373C12.6742 20.5505 14.1268 17.693 16.4217 15.6012C18.7166 13.5093 21.696 12.3268 24.8008 12.2757C27.9056 12.2245 30.9224 13.3082 33.2849 15.3233C35.6475 17.3384 37.1934 20.1465 37.6327 23.2205C38.0719 26.2945 37.3742 29.4232 35.6705 32.0193C33.9668 34.6154 31.3742 36.5005 28.3793 37.3209C25.3844 38.1413 22.1931 37.8405 19.4042 36.475L12.25 37.75Z" stroke="white" strokeWidth="2.75" strokeLinejoin="round"/>
<path d="M20.75 22.1667C20.75 22.3546 20.8246 22.5348 20.9575 22.6676C21.0903 22.8005 21.2705 22.8751 21.4583 22.8751C21.6462 22.8751 21.8264 22.8005 21.9592 22.6676C22.092 22.5348 22.1667 22.3546 22.1667 22.1667V20.7501C22.1667 20.5622 22.092 20.3821 21.9592 20.2492C21.8264 20.1164 21.6462 20.0417 21.4583 20.0417C21.2705 20.0417 21.0903 20.1164 20.9575 20.2492C20.8246 20.3821 20.75 20.5622 20.75 20.7501V22.1667ZM20.75 22.1667C20.75 24.0454 21.4963 25.847 22.8247 27.1754C24.153 28.5038 25.9547 29.2501 27.8333 29.2501M27.8333 29.2501H29.25C29.4379 29.2501 29.618 29.1755 29.7509 29.0426C29.8837 28.9098 29.9583 28.7296 29.9583 28.5417C29.9583 28.3539 29.8837 28.1737 29.7509 28.0409C29.618 27.908 29.4379 27.8334 29.25 27.8334H27.8333C27.6455 27.8334 27.4653 27.908 27.3325 28.0409C27.1996 28.1737 27.125 28.3539 27.125 28.5417C27.125 28.7296 27.1996 28.9098 27.3325 29.0426C27.4653 29.1755 27.6455 29.2501 27.8333 29.2501Z" stroke="white" strokeWidth="2.75" stroke-linecap="round" strokeLinejoin="round"/>
</g>
<defs>
<clipPath id="clip0_1_1889">
<rect width="34" height="34" fill="white" transform="translate(8 8)"/>
</clipPath>
</defs>
</svg>
